<svg width="16508" height="1914" viewBox="0 0 16508 1914" fill="none" xmlns="http://www.w3.org/2000/svg">
<rect width="16353" height="1914" fill="white"/>
<path d="M536.715 664.512C522.066 664.512 513.115 670.046 509.859 681.113C507.906 687.949 506.93 718.711 506.93 773.398V868.125C506.93 888.307 508.72 900.84 512.301 905.723C515.882 910.28 526.949 912.559 545.504 912.559H566.012L570.406 912.07L599.703 910.605C602.633 910.28 605.4 910.117 608.004 910.117C639.254 910.117 665.458 898.561 686.617 875.449C707.776 852.337 718.355 824.342 718.355 791.465V778.281C718.355 744.753 706.799 717.572 683.688 696.738C660.901 675.579 632.906 665 599.703 665L590.914 664.023L578.219 663.535H548.922C543.714 664.186 539.645 664.512 536.715 664.512ZM595.309 962.852H553.316C528.251 962.852 514.091 966.27 510.836 973.105C507.906 979.941 506.441 1000.61 506.441 1035.12V1175.25C506.441 1205.53 510.022 1224.08 517.184 1230.92C524.671 1237.43 545.178 1240.68 578.707 1240.68H607.516C650.484 1240.68 685.315 1229.45 712.008 1206.99C738.701 1184.21 752.047 1154.26 752.047 1117.15V1091.76C752.047 1051.72 737.398 1020.31 708.102 997.52C678.805 974.408 641.207 962.852 595.309 962.852ZM584.078 611.289C699.964 611.289 774.345 641.725 807.223 702.598C818.941 724.082 824.801 748.822 824.801 776.816C824.801 804.486 818.128 828.9 804.781 850.059C791.76 871.217 780.042 886.029 769.625 894.492C759.534 902.63 749.117 909.954 738.375 916.465C727.958 922.65 722.75 926.719 722.75 928.672C722.75 930.625 735.771 938.275 761.812 951.621C788.18 964.642 809.013 980.104 824.312 998.008C851.656 1030.56 865.328 1064.09 865.328 1098.59V1111.29C865.328 1168.58 841.891 1214.15 795.016 1248.01C778.089 1260.38 754.326 1271.28 723.727 1280.72C693.453 1289.84 657.32 1294.39 615.328 1294.39H563.57L550.875 1293.91C542.411 1293.58 533.785 1293.42 524.996 1293.42L512.301 1292.93C503.837 1292.6 495.374 1292.44 486.91 1292.44L474.215 1291.95C465.751 1291.63 457.288 1291.46 448.824 1291.46H411.227C354.586 1291.46 326.266 1286.09 326.266 1275.35C326.266 1264.28 334.892 1254.03 352.145 1244.59C369.723 1234.82 381.116 1218.39 386.324 1195.27C391.858 1171.84 394.625 1117.47 394.625 1032.19V871.543L393.648 820.762C393.323 812.298 393.16 792.116 393.16 760.215C393.16 728.314 390.068 706.016 383.883 693.32C378.023 680.299 366.142 669.557 348.238 661.094C330.335 652.63 321.383 645.143 321.383 638.633C321.383 629.193 325.94 622.845 335.055 619.59C344.169 616.009 372.164 614.219 419.039 614.219L532.32 611.289H584.078ZM1218.84 1063.93H1210.54C1167.9 1063.93 1132.26 1073.53 1103.61 1092.73C1075.29 1111.61 1061.13 1135.21 1061.13 1163.54V1173.3C1061.13 1189.9 1066.17 1204.88 1076.27 1218.22C1086.68 1231.24 1100.03 1237.75 1116.3 1237.75L1122.16 1238.73H1136.81C1170.67 1238.73 1198.34 1224.9 1219.82 1197.23C1229.26 1185.18 1233.98 1160.44 1233.98 1123.01C1233.98 1120.08 1233.98 1117.15 1233.98 1114.22L1234.47 1102.5V1090.78C1234.47 1072.88 1229.26 1063.93 1218.84 1063.93ZM981.539 906.211C981.539 882.122 1000.58 860.638 1038.67 841.758C1077.08 822.552 1116.79 812.949 1157.81 812.949C1159.11 812.949 1160.41 812.949 1161.71 812.949C1200.78 812.949 1232.03 817.669 1255.46 827.109C1302.99 845.99 1330.17 886.029 1337.01 947.227C1337.66 953.411 1337.98 994.427 1337.98 1070.27C1337.98 1145.79 1339.94 1190.07 1343.84 1203.09C1348.08 1216.11 1359.14 1225.71 1377.05 1231.89C1395.28 1238.08 1404.39 1243.94 1404.39 1249.47C1404.39 1261.19 1398.53 1270.14 1386.81 1276.33C1363.38 1288.7 1340.26 1294.88 1317.48 1294.88C1295.02 1294.88 1278.25 1289.67 1267.18 1279.26C1247.33 1260.7 1236.75 1251.43 1235.45 1251.43C1234.14 1251.43 1215.75 1259.73 1180.27 1276.33C1144.79 1292.6 1113.7 1300.74 1087.01 1300.74C1046.97 1300.74 1015.56 1289.67 992.77 1267.54C969.983 1245.4 958.59 1218.55 958.59 1186.97V1174.77C958.59 1140.91 973.238 1111.13 1002.54 1085.41C1031.83 1059.69 1084.57 1039.67 1160.74 1025.35C1188.41 1020.14 1205.82 1015.26 1212.98 1010.7C1227.31 1001.59 1234.47 983.034 1234.47 955.039C1234.47 927.044 1226.98 905.56 1212.01 890.586C1197.03 875.612 1177.01 868.125 1151.95 868.125C1126.88 868.125 1102.63 882.773 1079.2 912.07C1056.08 941.042 1034.92 955.527 1015.72 955.527C992.932 955.527 981.539 939.089 981.539 906.211ZM1480.07 1272.91C1480.07 1266.07 1487.4 1257.29 1502.05 1246.54C1517.02 1235.8 1527.11 1219.04 1532.32 1196.25C1537.53 1173.14 1540.13 1085.9 1540.13 934.531C1540.13 783.164 1538.34 697.389 1534.76 677.207C1531.51 657.025 1523.21 642.539 1509.86 633.75C1488.38 619.753 1477.63 611.126 1477.63 607.871V602.012C1477.63 596.478 1482.35 591.595 1491.79 587.363C1521.09 574.668 1560.15 568.32 1608.98 568.32H1618.75C1635.35 568.32 1644.95 579.551 1647.55 602.012C1647.88 604.941 1648.04 629.518 1648.04 675.742V780.723L1647.55 800.742V831.504L1647.07 851.523C1647.07 851.523 1647.07 903.118 1647.07 1006.31C1647.07 1102.66 1648.53 1162.4 1651.46 1185.51C1654.72 1208.29 1662.04 1224.9 1673.43 1235.31C1674.74 1236.29 1681.57 1240.52 1693.94 1248.01C1706.31 1255.49 1712.5 1263.14 1712.5 1270.96C1712.5 1282.35 1692.31 1288.05 1651.95 1288.05L1631.93 1289.02H1611.91L1531.83 1290.49H1521.58C1493.91 1290.49 1480.07 1284.63 1480.07 1272.91ZM2045.99 1063.93H2037.69C1995.05 1063.93 1959.4 1073.53 1930.76 1092.73C1902.44 1111.61 1888.28 1135.21 1888.28 1163.54V1173.3C1888.28 1189.9 1893.32 1204.88 1903.41 1218.22C1913.83 1231.24 1927.18 1237.75 1943.45 1237.75L1949.31 1238.73H1963.96C1997.82 1238.73 2025.48 1224.9 2046.97 1197.23C2056.41 1185.18 2061.13 1160.44 2061.13 1123.01C2061.13 1120.08 2061.13 1117.15 2061.13 1114.22L2061.62 1102.5V1090.78C2061.62 1072.88 2056.41 1063.93 2045.99 1063.93ZM1808.69 906.211C1808.69 882.122 1827.73 860.638 1865.82 841.758C1904.23 822.552 1943.94 812.949 1984.96 812.949C1986.26 812.949 1987.56 812.949 1988.86 812.949C2027.93 812.949 2059.18 817.669 2082.61 827.109C2130.14 845.99 2157.32 886.029 2164.16 947.227C2164.81 953.411 2165.13 994.427 2165.13 1070.27C2165.13 1145.79 2167.09 1190.07 2170.99 1203.09C2175.22 1216.11 2186.29 1225.71 2204.2 1231.89C2222.42 1238.08 2231.54 1243.94 2231.54 1249.47C2231.54 1261.19 2225.68 1270.14 2213.96 1276.33C2190.52 1288.7 2167.41 1294.88 2144.62 1294.88C2122.16 1294.88 2105.4 1289.67 2094.33 1279.26C2074.48 1260.7 2063.9 1251.43 2062.59 1251.43C2061.29 1251.43 2042.9 1259.73 2007.42 1276.33C1971.94 1292.6 1940.85 1300.74 1914.16 1300.74C1874.12 1300.74 1842.7 1289.67 1819.92 1267.54C1797.13 1245.4 1785.74 1218.55 1785.74 1186.97V1174.77C1785.74 1140.91 1800.39 1111.13 1829.68 1085.41C1858.98 1059.69 1911.71 1039.67 1987.89 1025.35C2015.56 1020.14 2032.97 1015.26 2040.13 1010.7C2054.46 1001.59 2061.62 983.034 2061.62 955.039C2061.62 927.044 2054.13 905.56 2039.16 890.586C2024.18 875.612 2004.16 868.125 1979.1 868.125C1954.03 868.125 1929.78 882.773 1906.34 912.07C1883.23 941.042 1862.07 955.527 1842.87 955.527C1820.08 955.527 1808.69 939.089 1808.69 906.211ZM2377.54 1286.09C2331.64 1286.09 2308.69 1279.58 2308.69 1266.56C2308.69 1255.82 2314.71 1247.03 2326.75 1240.2C2348.56 1227.83 2361.26 1216.76 2364.84 1206.99C2368.42 1196.9 2370.21 1149.86 2370.21 1065.88C2370.21 981.569 2367.61 932.253 2362.4 917.93C2357.52 903.281 2348.4 891.237 2335.05 881.797C2321.71 872.357 2315.04 864.707 2315.04 858.848C2315.04 852.988 2319.43 847.454 2328.22 842.246C2348.73 830.202 2381.28 824.18 2425.88 824.18C2439.22 824.18 2449.64 828.737 2457.12 837.852C2459.73 841.107 2463.31 848.268 2467.87 859.336C2472.75 870.078 2476.01 875.449 2477.63 875.449C2483.82 875.124 2493.42 870.729 2506.44 862.266C2551.36 831.992 2592.05 816.855 2628.51 816.855H2629.49H2645.11C2671.48 816.855 2695.24 823.366 2716.4 836.387C2737.56 849.408 2753.84 868.939 2765.23 894.98C2776.95 921.022 2782.81 977.826 2782.81 1065.39C2782.81 1152.63 2784.6 1201.46 2788.18 1211.88C2792.09 1221.97 2802.67 1231.41 2819.92 1240.2C2837.5 1248.98 2846.29 1257.61 2846.29 1266.07C2846.29 1280.72 2800.06 1288.05 2707.61 1288.05H2692.96C2663.67 1288.05 2649.02 1281.05 2649.02 1267.05C2649.02 1264.12 2652.6 1257.12 2659.76 1246.05C2666.92 1234.66 2671.81 1222.13 2674.41 1208.46C2677.01 1194.79 2678.32 1149.86 2678.32 1073.69C2678.32 997.194 2673.6 948.04 2664.16 926.23C2651.14 896.283 2629.49 881.309 2599.21 881.309C2577.08 881.309 2555.6 886.517 2534.76 896.934C2514.25 907.025 2499.28 921.51 2489.84 940.391C2480.73 958.945 2476.17 1003.7 2476.17 1074.67C2476.17 1145.31 2478.12 1188.11 2482.03 1203.09C2485.93 1217.73 2490.65 1229.62 2496.19 1238.73L2514.25 1268.03C2514.25 1280.72 2488.7 1287.07 2437.59 1287.07L2407.81 1286.09H2377.54ZM3275 955.039C3261.32 955.039 3242.28 940.879 3217.87 912.559C3193.78 884.238 3165.78 870.078 3133.88 870.078C3102.31 870.078 3075.78 885.866 3054.29 917.441C3032.81 948.691 3022.07 993.125 3022.07 1050.74C3022.07 1108.36 3035.25 1153.44 3061.62 1186C3088.31 1218.22 3122.98 1234.34 3165.62 1234.34C3189.06 1234.34 3208.59 1231.41 3224.21 1225.55C3240.17 1219.69 3254.81 1213.5 3268.16 1206.99C3281.83 1200.16 3291.43 1196.74 3296.97 1196.74C3306.41 1196.74 3311.13 1202.92 3311.13 1215.29C3311.13 1234.17 3292.09 1252.89 3254 1271.45C3215.91 1290 3178.97 1299.28 3143.16 1299.28C3073.5 1299.28 3017.51 1277.47 2975.19 1233.85C2957.94 1215.94 2943.45 1192.99 2931.73 1165C2920.02 1136.68 2914.16 1106.41 2914.16 1074.18V1050.25C2914.16 1049.6 2914.16 1048.79 2914.16 1047.81C2914.16 1047.16 2914.16 1046.51 2914.16 1045.86C2914.16 1017.54 2920.5 988.242 2933.2 957.969C2958.26 898.724 2998.63 857.708 3054.29 834.922C3086.52 821.901 3118.58 815.391 3150.48 815.391H3161.71C3205.66 815.391 3242.93 823.04 3273.53 838.34C3298.27 850.71 3310.64 871.38 3310.64 900.352C3310.64 919.557 3306.73 933.555 3298.92 942.344C3291.43 950.807 3283.46 955.039 3275 955.039ZM3702.24 972.617V957.48C3702.24 933.392 3693.62 911.745 3676.36 892.539C3659.11 873.008 3637.95 863.242 3612.89 863.242H3603.61C3599.05 863.893 3595.96 864.219 3594.33 864.219C3571.55 864.219 3549.9 877.24 3529.39 903.281C3509.21 929.323 3499.12 957.155 3499.12 986.777V993.125C3499.12 1003.54 3505.3 1008.75 3517.67 1008.75C3522.55 1009.73 3525.16 1010.21 3525.48 1010.21L3536.71 1010.7H3539.64L3543.06 1010.21L3637.3 1004.84L3654.88 1002.89C3686.45 1002.89 3702.24 992.799 3702.24 972.617ZM3499.12 1102.01C3499.12 1139.12 3513.11 1170.21 3541.11 1195.27C3569.1 1220.34 3604.59 1232.87 3647.55 1232.87C3664.81 1232.87 3680.43 1230.43 3694.43 1225.55C3708.75 1220.34 3724.21 1214.15 3740.82 1206.99C3757.74 1199.83 3768.32 1196.25 3772.55 1196.25C3785.58 1196.25 3792.09 1203.25 3792.09 1217.25C3792.09 1236.13 3768 1256.31 3719.82 1277.79C3688.57 1291.79 3655.04 1298.79 3619.23 1298.79H3608.49C3547.29 1298.79 3496.51 1280.23 3456.15 1243.12C3434.34 1222.94 3417.41 1197.23 3405.37 1165.98C3393.32 1134.4 3387.3 1100.55 3387.3 1064.41L3387.79 1053.18V1041.95C3387.79 1010.7 3394.95 979.941 3409.27 949.668C3423.92 919.395 3441.34 894.492 3461.52 874.961C3504.16 833.945 3554.78 813.275 3613.38 812.949C3701.92 812.949 3760.84 847.454 3790.13 916.465C3799.25 938.275 3803.8 958.294 3803.8 976.523V986.289C3803.8 1008.75 3794.53 1023.89 3775.97 1031.7C3757.42 1039.19 3713.64 1045.37 3644.62 1050.25C3575.61 1055.14 3538.18 1058.39 3532.32 1060.02C3510.18 1065.55 3499.12 1079.55 3499.12 1102.01ZM4341.89 731.406V916.465C4341.89 939.251 4344.98 954.062 4351.17 960.898C4357.35 967.409 4372.49 970.664 4396.58 970.664H4419.53C4462.5 970.664 4497.16 957.48 4523.53 931.113C4550.22 904.421 4563.57 867.962 4563.57 821.738V805.625C4563.57 758.424 4549.41 721.803 4521.09 695.762C4492.77 669.72 4454.03 656.699 4404.88 656.699H4400.48C4372.49 656.699 4355.73 660.443 4350.19 667.93C4344.66 675.417 4341.89 696.576 4341.89 731.406ZM4390.72 604.941H4442.96C4558.2 604.941 4632.74 639.609 4666.6 708.945C4679.29 734.987 4685.64 763.796 4685.64 795.371V809.043C4685.64 809.043 4685.64 809.368 4685.64 810.02C4685.64 871.868 4658.46 921.836 4604.1 959.922C4565.36 986.94 4505.46 1003.54 4424.41 1009.73C4389.9 1012.33 4369.07 1017.7 4361.91 1025.84C4350.52 1038.54 4344.82 1069.13 4344.82 1117.64C4344.82 1165.81 4349.87 1197.06 4359.96 1211.39C4364.84 1218.22 4375.74 1226.85 4392.67 1237.27C4409.92 1247.36 4418.55 1255.17 4418.55 1260.7C4418.55 1277.96 4397.55 1286.58 4355.56 1286.58H4232.03C4184.83 1286.58 4161.23 1278.77 4161.23 1263.14C4161.23 1253.38 4169.85 1243.29 4187.11 1232.87C4204.36 1222.45 4215.43 1211.55 4220.31 1200.16C4225.19 1188.44 4227.63 1158.49 4227.63 1110.31L4228.12 1098.11C4228.45 1089.64 4228.61 1081.18 4228.61 1072.71C4228.61 1064.25 4228.61 1055.79 4228.61 1047.32L4229.1 1021.93V958.457L4228.61 933.066C4228.61 809.043 4226.01 734.824 4220.8 710.41C4215.91 685.671 4205.17 668.581 4188.57 659.141C4172.29 649.701 4164.16 640.911 4164.16 632.773C4164.16 624.31 4168.71 618.125 4177.83 614.219C4186.94 610.312 4214.61 608.359 4260.84 608.359L4312.59 607.383L4351.17 605.918C4368.42 605.267 4381.6 604.941 4390.72 604.941ZM5011.32 1270.96C5011.32 1283.65 4981.86 1290 4922.95 1290H4871.19L4850.68 1289.02L4819.92 1288.54C4785.41 1288.54 4768.16 1282.35 4768.16 1269.98C4768.16 1261.19 4775.81 1251.91 4791.11 1242.15C4806.73 1232.06 4817.15 1219.2 4822.36 1203.57C4827.89 1187.62 4830.66 1140.91 4830.66 1063.44C4830.66 985.964 4828.06 938.926 4822.85 922.324C4817.96 905.723 4810.15 893.841 4799.41 886.68C4780.2 873.984 4770.6 864.707 4770.6 858.848C4770.6 852.988 4774.02 847.78 4780.86 843.223C4801.04 829.551 4835.22 822.715 4883.39 822.715H4892.67C4911.23 822.715 4924.41 832.155 4932.22 851.035C4940.04 869.59 4946.38 878.867 4951.27 878.867C4956.15 878.867 4964.45 874.31 4976.17 865.195C4988.21 856.081 5002.54 846.966 5019.14 837.852C5036.06 828.737 5054.78 824.18 5075.29 824.18C5095.8 824.18 5111.42 829.551 5122.16 840.293C5133.23 850.71 5138.77 864.219 5138.77 880.82C5138.44 897.747 5134.05 910.443 5125.58 918.906C5117.12 927.37 5108 931.602 5098.24 931.602C5088.47 931.602 5075.61 927.695 5059.66 919.883C5043.71 911.745 5030.37 907.676 5019.62 907.676C5008.88 907.676 4997.16 912.233 4984.47 921.348C4971.77 930.137 4960.87 946.087 4951.75 969.199C4942.96 991.986 4938.57 1031.21 4938.57 1086.88C4938.57 1142.21 4942.48 1178.02 4950.29 1194.3C4958.1 1210.25 4970.15 1224.9 4986.42 1238.24C5003.02 1251.59 5011.32 1262.49 5011.32 1270.96ZM5505.95 972.617V957.48C5505.95 933.392 5497.33 911.745 5480.07 892.539C5462.82 873.008 5441.66 863.242 5416.6 863.242H5407.32C5402.76 863.893 5399.67 864.219 5398.04 864.219C5375.26 864.219 5353.61 877.24 5333.1 903.281C5312.92 929.323 5302.83 957.155 5302.83 986.777V993.125C5302.83 1003.54 5309.01 1008.75 5321.38 1008.75C5326.27 1009.73 5328.87 1010.21 5329.2 1010.21L5340.43 1010.7H5343.36L5346.77 1010.21L5441.01 1004.84L5458.59 1002.89C5490.17 1002.89 5505.95 992.799 5505.95 972.617ZM5302.83 1102.01C5302.83 1139.12 5316.83 1170.21 5344.82 1195.27C5372.82 1220.34 5408.3 1232.87 5451.27 1232.87C5468.52 1232.87 5484.14 1230.43 5498.14 1225.55C5512.46 1220.34 5527.93 1214.15 5544.53 1206.99C5561.45 1199.83 5572.03 1196.25 5576.27 1196.25C5589.29 1196.25 5595.8 1203.25 5595.8 1217.25C5595.8 1236.13 5571.71 1256.31 5523.53 1277.79C5492.28 1291.79 5458.75 1298.79 5422.95 1298.79H5412.2C5351.01 1298.79 5300.22 1280.23 5259.86 1243.12C5238.05 1222.94 5221.12 1197.23 5209.08 1165.98C5197.03 1134.4 5191.01 1100.55 5191.01 1064.41L5191.5 1053.18V1041.95C5191.5 1010.7 5198.66 979.941 5212.98 949.668C5227.63 919.395 5245.05 894.492 5265.23 874.961C5307.87 833.945 5358.49 813.275 5417.09 812.949C5505.63 812.949 5564.55 847.454 5593.84 916.465C5602.96 938.275 5607.52 958.294 5607.52 976.523V986.289C5607.52 1008.75 5598.24 1023.89 5579.68 1031.7C5561.13 1039.19 5517.35 1045.37 5448.34 1050.25C5379.33 1055.14 5341.89 1058.39 5336.03 1060.02C5313.9 1065.55 5302.83 1079.55 5302.83 1102.01ZM6054.29 955.039C6040.62 955.039 6021.58 940.879 5997.16 912.559C5973.08 884.238 5945.08 870.078 5913.18 870.078C5881.6 870.078 5855.07 885.866 5833.59 917.441C5812.11 948.691 5801.36 993.125 5801.36 1050.74C5801.36 1108.36 5814.55 1153.44 5840.91 1186C5867.61 1218.22 5902.27 1234.34 5944.92 1234.34C5968.36 1234.34 5987.89 1231.41 6003.51 1225.55C6019.46 1219.69 6034.11 1213.5 6047.46 1206.99C6061.13 1200.16 6070.73 1196.74 6076.27 1196.74C6085.71 1196.74 6090.43 1202.92 6090.43 1215.29C6090.43 1234.17 6071.38 1252.89 6033.3 1271.45C5995.21 1290 5958.26 1299.28 5922.46 1299.28C5852.8 1299.28 5796.81 1277.47 5754.49 1233.85C5737.24 1215.94 5722.75 1192.99 5711.03 1165C5699.31 1136.68 5693.45 1106.41 5693.45 1074.18V1050.25C5693.45 1049.6 5693.45 1048.79 5693.45 1047.81C5693.45 1047.16 5693.45 1046.51 5693.45 1045.86C5693.45 1017.54 5699.8 988.242 5712.5 957.969C5737.56 898.724 5777.93 857.708 5833.59 834.922C5865.82 821.901 5897.88 815.391 5929.78 815.391H5941.01C5984.96 815.391 6022.23 823.04 6052.83 838.34C6077.57 850.71 6089.94 871.38 6089.94 900.352C6089.94 919.557 6086.03 933.555 6078.22 942.344C6070.73 950.807 6062.76 955.039 6054.29 955.039ZM6355.56 663.047C6355.56 677.37 6349.38 690.716 6337.01 703.086C6324.96 715.13 6312.92 721.152 6300.88 721.152C6298.27 721.803 6296.15 722.129 6294.53 722.129L6283.79 723.105C6267.51 723.105 6252.86 717.734 6239.84 706.992C6227.14 696.25 6220.8 682.415 6220.8 665.488V656.699C6220.8 639.772 6227.47 625.612 6240.82 614.219C6254.49 602.5 6270.11 596.641 6287.69 596.641H6290.13L6306.73 598.594C6316.83 598.594 6327.24 604.128 6337.98 615.195C6349.05 625.938 6354.59 636.842 6354.59 647.91L6355.56 652.305V663.047ZM6200.29 880.82C6183.36 872.682 6174.9 865.033 6174.9 857.871C6174.9 850.71 6178.32 845.013 6185.15 840.781C6208.92 826.458 6246.51 819.297 6297.95 819.297H6312.11C6329.68 819.297 6339.61 827.435 6341.89 843.711C6343.19 852.5 6343.84 911.745 6343.84 1021.45C6343.84 1130.82 6346.12 1193.65 6350.68 1209.92C6355.24 1225.87 6366.14 1238.24 6383.39 1247.03C6400.65 1255.49 6409.27 1264.12 6409.27 1272.91C6409.27 1285.28 6368.91 1291.46 6288.18 1291.46L6273.53 1291.95H6213.96C6190.2 1291.95 6178.32 1286.09 6178.32 1274.38C6178.32 1264.61 6185.48 1255.17 6199.8 1246.05C6214.45 1236.94 6224.54 1226.85 6230.07 1215.78C6236.26 1203.74 6239.35 1175.58 6239.35 1131.31L6239.84 1115.68V1100.55L6240.33 1077.6V1062.46L6240.82 1047.32C6240.82 970.176 6238.21 925.254 6233 912.559C6228.12 899.538 6217.22 888.958 6200.29 880.82ZM6806.73 1070.76C6832.45 1095.18 6845.31 1126.1 6845.31 1163.54C6845.31 1200.64 6830.01 1232.55 6799.41 1259.24C6768.81 1285.61 6726.49 1298.79 6672.46 1298.79H6659.27C6597.75 1298.79 6550.88 1291.14 6518.65 1275.84C6500.74 1267.38 6491.79 1248.5 6491.79 1219.2V1206.99C6491.79 1169.56 6498.79 1150.84 6512.79 1150.84C6524.51 1150.84 6538.34 1161.91 6554.29 1184.04C6570.24 1205.85 6583.59 1220.5 6594.33 1227.99C6615.17 1242.31 6639.58 1249.47 6667.57 1249.47C6695.89 1249.47 6716.73 1243.61 6730.07 1231.89C6743.42 1219.85 6750.09 1204.06 6750.09 1184.53C6750.09 1165 6738.7 1146.93 6715.91 1130.33C6703.87 1121.54 6675.71 1107.71 6631.44 1088.83C6587.5 1069.95 6554.62 1050.25 6532.81 1029.75C6511 1008.91 6500.09 979.616 6500.09 941.855C6500.09 904.095 6515.88 873.496 6547.46 850.059C6579.03 826.296 6617.93 814.414 6664.16 814.414H6677.34C6737.89 814.414 6780.37 821.576 6804.78 835.898C6817.48 843.385 6823.82 864.219 6823.82 898.398C6823.82 932.578 6815.69 949.668 6799.41 949.668C6790.3 949.668 6777.76 939.577 6761.81 919.395C6746.19 898.887 6731.86 884.401 6718.84 875.938C6705.82 867.148 6687.76 862.754 6664.64 862.754C6641.86 862.754 6623.79 867.962 6610.45 878.379C6597.1 888.796 6590.43 903.932 6590.43 923.789C6590.43 943.32 6602.63 960.898 6627.05 976.523C6633.23 980.755 6660.25 993.288 6708.1 1014.12C6755.95 1034.95 6788.83 1053.83 6806.73 1070.76ZM7108.49 663.047C7108.49 677.37 7102.31 690.716 7089.94 703.086C7077.89 715.13 7065.85 721.152 7053.8 721.152C7051.2 721.803 7049.08 722.129 7047.46 722.129L7036.71 723.105C7020.44 723.105 7005.79 717.734 6992.77 706.992C6980.07 696.25 6973.73 682.415 6973.73 665.488V656.699C6973.73 639.772 6980.4 625.612 6993.75 614.219C7007.42 602.5 7023.04 596.641 7040.62 596.641H7043.06L7059.66 598.594C7069.76 598.594 7080.17 604.128 7090.91 615.195C7101.98 625.938 7107.52 636.842 7107.52 647.91L7108.49 652.305V663.047ZM6953.22 880.82C6936.29 872.682 6927.83 865.033 6927.83 857.871C6927.83 850.71 6931.25 845.013 6938.08 840.781C6961.85 826.458 6999.44 819.297 7050.88 819.297H7065.04C7082.61 819.297 7092.54 827.435 7094.82 843.711C7096.12 852.5 7096.77 911.745 7096.77 1021.45C7096.77 1130.82 7099.05 1193.65 7103.61 1209.92C7108.17 1225.87 7119.07 1238.24 7136.32 1247.03C7153.58 1255.49 7162.2 1264.12 7162.2 1272.91C7162.2 1285.28 7121.84 1291.46 7041.11 1291.46L7026.46 1291.95H6966.89C6943.13 1291.95 6931.25 1286.09 6931.25 1274.38C6931.25 1264.61 6938.41 1255.17 6952.73 1246.05C6967.38 1236.94 6977.47 1226.85 6983 1215.78C6989.19 1203.74 6992.28 1175.58 6992.28 1131.31L6992.77 1115.68V1100.55L6993.26 1077.6V1062.46L6993.75 1047.32C6993.75 970.176 6991.14 925.254 6985.93 912.559C6981.05 899.538 6970.15 888.958 6953.22 880.82ZM7347.75 1038.54V1056.6C7347.75 1111.94 7358.49 1157.84 7379.98 1194.3C7390.07 1211.55 7402.93 1225.22 7418.55 1235.31C7434.18 1245.4 7449.96 1250.45 7465.91 1250.45H7475.68C7505.3 1250.45 7530.86 1236.13 7552.34 1207.48C7574.15 1178.51 7585.05 1137.49 7585.05 1084.43V1049.77C7585.05 997.357 7574.15 952.923 7552.34 916.465C7530.86 879.681 7503.51 861.289 7470.31 861.289H7455.17C7425.22 861.289 7399.83 877.402 7379 909.629C7358.17 941.855 7347.75 984.824 7347.75 1038.54ZM7702.73 1040.49V1064.9C7702.73 1090.62 7697.52 1118.78 7687.11 1149.38C7665.3 1213.18 7621.84 1257.77 7556.73 1283.16C7528.41 1294.23 7501.07 1299.77 7474.7 1299.77H7458.59C7396.42 1299.77 7344.49 1278.93 7302.83 1237.27C7283.95 1218.39 7268.65 1193.48 7256.93 1162.56C7245.21 1131.63 7239.35 1098.76 7239.35 1063.93V1055.62C7239.35 1024.05 7244.89 992.148 7255.95 959.922C7277.44 897.096 7319.59 853.477 7382.42 829.062C7410.74 817.995 7437.92 812.461 7463.96 812.461H7488.38C7517.35 812.461 7545.83 818.971 7573.82 831.992C7626.88 856.732 7663.83 896.12 7684.66 950.156C7696.71 982.057 7702.73 1012.17 7702.73 1040.49ZM7858 1286.09C7812.11 1286.09 7789.16 1279.58 7789.16 1266.56C7789.16 1255.82 7795.18 1247.03 7807.22 1240.2C7829.03 1227.83 7841.73 1216.76 7845.31 1206.99C7848.89 1196.9 7850.68 1149.86 7850.68 1065.88C7850.68 981.569 7848.08 932.253 7842.87 917.93C7837.98 903.281 7828.87 891.237 7815.52 881.797C7802.18 872.357 7795.5 864.707 7795.5 858.848C7795.5 852.988 7799.9 847.454 7808.69 842.246C7829.2 830.202 7861.75 824.18 7906.34 824.18C7919.69 824.18 7930.11 828.737 7937.59 837.852C7940.2 841.107 7943.78 848.268 7948.34 859.336C7953.22 870.078 7956.47 875.449 7958.1 875.449C7964.29 875.124 7973.89 870.729 7986.91 862.266C8031.83 831.992 8072.52 816.855 8108.98 816.855H8109.96H8125.58C8151.95 816.855 8175.71 823.366 8196.87 836.387C8218.03 849.408 8234.31 868.939 8245.7 894.98C8257.42 921.022 8263.28 977.826 8263.28 1065.39C8263.28 1152.63 8265.07 1201.46 8268.65 1211.88C8272.55 1221.97 8283.13 1231.41 8300.39 1240.2C8317.96 1248.98 8326.75 1257.61 8326.75 1266.07C8326.75 1280.72 8280.53 1288.05 8188.08 1288.05H8173.43C8144.14 1288.05 8129.49 1281.05 8129.49 1267.05C8129.49 1264.12 8133.07 1257.12 8140.23 1246.05C8147.39 1234.66 8152.27 1222.13 8154.88 1208.46C8157.48 1194.79 8158.79 1149.86 8158.79 1073.69C8158.79 997.194 8154.07 948.04 8144.62 926.23C8131.6 896.283 8109.96 881.309 8079.68 881.309C8057.55 881.309 8036.06 886.517 8015.23 896.934C7994.72 907.025 7979.75 921.51 7970.31 940.391C7961.19 958.945 7956.64 1003.7 7956.64 1074.67C7956.64 1145.31 7958.59 1188.11 7962.5 1203.09C7966.4 1217.73 7971.12 1229.62 7976.66 1238.73L7994.72 1268.03C7994.72 1280.72 7969.17 1287.07 7918.06 1287.07L7888.28 1286.09H7858ZM8871.68 664.512C8857.03 664.512 8848.08 670.046 8844.82 681.113C8842.87 687.949 8841.89 718.711 8841.89 773.398V868.125C8841.89 888.307 8843.68 900.84 8847.26 905.723C8850.84 910.28 8861.91 912.559 8880.46 912.559H8900.97L8905.37 912.07L8934.66 910.605C8937.59 910.28 8940.36 910.117 8942.96 910.117C8974.21 910.117 9000.42 898.561 9021.58 875.449C9042.74 852.337 9053.32 824.342 9053.32 791.465V778.281C9053.32 744.753 9041.76 717.572 9018.65 696.738C8995.86 675.579 8967.87 665 8934.66 665L8925.88 664.023L8913.18 663.535H8883.88C8878.67 664.186 8874.61 664.512 8871.68 664.512ZM8930.27 962.852H8888.28C8863.21 962.852 8849.05 966.27 8845.8 973.105C8842.87 979.941 8841.4 1000.61 8841.4 1035.12V1175.25C8841.4 1205.53 8844.98 1224.08 8852.14 1230.92C8859.63 1237.43 8880.14 1240.68 8913.67 1240.68H8942.48C8985.45 1240.68 9020.28 1229.45 9046.97 1206.99C9073.66 1184.21 9087.01 1154.26 9087.01 1117.15V1091.76C9087.01 1051.72 9072.36 1020.31 9043.06 997.52C9013.77 974.408 8976.17 962.852 8930.27 962.852ZM8919.04 611.289C9034.92 611.289 9109.31 641.725 9142.18 702.598C9153.9 724.082 9159.76 748.822 9159.76 776.816C9159.76 804.486 9153.09 828.9 9139.74 850.059C9126.72 871.217 9115 886.029 9104.59 894.492C9094.49 902.63 9084.08 909.954 9073.34 916.465C9062.92 922.65 9057.71 926.719 9057.71 928.672C9057.71 930.625 9070.73 938.275 9096.77 951.621C9123.14 964.642 9143.97 980.104 9159.27 998.008C9186.62 1030.56 9200.29 1064.09 9200.29 1098.59V1111.29C9200.29 1168.58 9176.85 1214.15 9129.98 1248.01C9113.05 1260.38 9089.29 1271.28 9058.69 1280.72C9028.41 1289.84 8992.28 1294.39 8950.29 1294.39H8898.53L8885.84 1293.91C8877.37 1293.58 8868.75 1293.42 8859.96 1293.42L8847.26 1292.93C8838.8 1292.6 8830.33 1292.44 8821.87 1292.44L8809.18 1291.95C8800.71 1291.63 8792.25 1291.46 8783.79 1291.46H8746.19C8689.55 1291.46 8661.23 1286.09 8661.23 1275.35C8661.23 1264.28 8669.85 1254.03 8687.11 1244.59C8704.68 1234.82 8716.08 1218.39 8721.29 1195.27C8726.82 1171.84 8729.59 1117.47 8729.59 1032.19V871.543L8728.61 820.762C8728.28 812.298 8728.12 792.116 8728.12 760.215C8728.12 728.314 8725.03 706.016 8718.84 693.32C8712.98 680.299 8701.1 669.557 8683.2 661.094C8665.3 652.63 8656.34 645.143 8656.34 638.633C8656.34 629.193 8660.9 622.845 8670.02 619.59C8679.13 616.009 8707.12 614.219 8754 614.219L8867.28 611.289H8919.04ZM9403.41 1038.54V1056.6C9403.41 1111.94 9414.16 1157.84 9435.64 1194.3C9445.73 1211.55 9458.59 1225.22 9474.21 1235.31C9489.84 1245.4 9505.63 1250.45 9521.58 1250.45H9531.34C9560.97 1250.45 9586.52 1236.13 9608 1207.48C9629.81 1178.51 9640.72 1137.49 9640.72 1084.43V1049.77C9640.72 997.357 9629.81 952.923 9608 916.465C9586.52 879.681 9559.18 861.289 9525.97 861.289H9510.84C9480.89 861.289 9455.5 877.402 9434.66 909.629C9413.83 941.855 9403.41 984.824 9403.41 1038.54ZM9758.39 1040.49V1064.9C9758.39 1090.62 9753.19 1118.78 9742.77 1149.38C9720.96 1213.18 9677.5 1257.77 9612.4 1283.16C9584.08 1294.23 9556.73 1299.77 9530.37 1299.77H9514.25C9452.08 1299.77 9400.16 1278.93 9358.49 1237.27C9339.61 1218.39 9324.31 1193.48 9312.59 1162.56C9300.88 1131.63 9295.02 1098.76 9295.02 1063.93V1055.62C9295.02 1024.05 9300.55 992.148 9311.62 959.922C9333.1 897.096 9375.26 853.477 9438.08 829.062C9466.4 817.995 9493.58 812.461 9519.62 812.461H9544.04C9573.01 812.461 9601.49 818.971 9629.49 831.992C9682.55 856.732 9719.49 896.12 9740.33 950.156C9752.37 982.057 9758.39 1012.17 9758.39 1040.49ZM9951.27 1038.54V1056.6C9951.27 1111.94 9962.01 1157.84 9983.49 1194.3C9993.58 1211.55 10006.4 1225.22 10022.1 1235.31C10037.7 1245.4 10053.5 1250.45 10069.4 1250.45H10079.2C10108.8 1250.45 10134.4 1236.13 10155.9 1207.48C10177.7 1178.51 10188.6 1137.49 10188.6 1084.43V1049.77C10188.6 997.357 10177.7 952.923 10155.9 916.465C10134.4 879.681 10107 861.289 10073.8 861.289H10058.7C10028.7 861.289 10003.3 877.402 9982.52 909.629C9961.68 941.855 9951.27 984.824 9951.27 1038.54ZM10306.2 1040.49V1064.9C10306.2 1090.62 10301 1118.78 10290.6 1149.38C10268.8 1213.18 10225.4 1257.77 10160.2 1283.16C10131.9 1294.23 10104.6 1299.77 10078.2 1299.77H10062.1C9999.93 1299.77 9948.01 1278.93 9906.34 1237.27C9887.46 1218.39 9872.16 1193.48 9860.45 1162.56C9848.73 1131.63 9842.87 1098.76 9842.87 1063.93V1055.62C9842.87 1024.05 9848.4 992.148 9859.47 959.922C9880.95 897.096 9923.11 853.477 9985.93 829.062C10014.3 817.995 10041.4 812.461 10067.5 812.461H10091.9C10120.9 812.461 10149.3 818.971 10177.3 831.992C10230.4 856.732 10267.3 896.12 10288.2 950.156C10300.2 982.057 10306.2 1012.17 10306.2 1040.49ZM10590.4 1082.97C10570.6 1082.97 10560.6 1111.61 10560.6 1168.91C10560.6 1189.09 10565.4 1208.78 10574.8 1227.99L10588 1250.45C10592.5 1258.59 10594.8 1264.45 10594.8 1268.03C10594.8 1279.75 10562.1 1285.61 10496.7 1285.61C10431.2 1285.61 10398.5 1280.07 10398.5 1269C10398.5 1266.07 10403.9 1257.29 10414.6 1242.64C10425.7 1227.66 10433.7 1210.25 10438.6 1190.39C10443.8 1170.21 10446.4 1123.5 10446.4 1050.25L10446.9 1031.7C10447.5 1015.1 10447.8 1002.73 10447.8 994.59L10448.8 957.48L10449.3 919.883V844.199C10449.3 750.124 10447.5 694.622 10443.9 677.695C10440.7 660.443 10434.7 647.422 10425.9 638.633L10415.1 630.332L10403.4 623.008C10394 616.172 10389.3 609.824 10389.3 603.965C10389.3 597.78 10393.2 592.409 10401 587.852C10423.1 575.156 10457.3 568.809 10503.5 568.809H10520.1C10538.7 568.809 10550.2 581.992 10554.8 608.359C10556.4 618.125 10557.2 691.042 10557.2 827.109L10556.7 883.262C10556.7 927.858 10556.9 951.621 10557.2 954.551C10560.8 985.475 10569.3 1000.94 10582.6 1000.94C10596 1000.94 10618.9 983.359 10651.5 948.203C10684 912.721 10700.3 887.493 10700.3 872.52L10698.8 854.941C10698.8 843.874 10703.1 836.061 10711.5 831.504C10720.3 826.947 10738.4 824.668 10765.7 824.668C10827.9 824.668 10859 831.341 10859 844.688C10859 845.013 10830.2 868.288 10772.6 914.512C10714.9 960.736 10686.1 993.776 10686.1 1013.63C10686.1 1033.49 10725.7 1089.64 10804.8 1182.09C10822 1202.27 10840.9 1219.69 10861.4 1234.34C10882.3 1248.98 10892.7 1258.75 10892.7 1263.63C10892.7 1279.58 10868.6 1287.56 10820.4 1287.56H10784.8C10753.5 1287.56 10731.1 1278.61 10717.4 1260.7L10697.8 1213.34C10689.7 1193.81 10676.2 1170.7 10657.3 1144C10628.3 1103.31 10606.1 1082.97 10590.4 1082.97ZM11161.7 1082.97C11141.9 1082.97 11131.9 1111.61 11131.9 1168.91C11131.9 1189.09 11136.6 1208.78 11146.1 1227.99L11159.3 1250.45C11163.8 1258.59 11166.1 1264.45 11166.1 1268.03C11166.1 1279.75 11133.4 1285.61 11068 1285.61C11002.5 1285.61 10969.8 1280.07 10969.8 1269C10969.8 1266.07 10975.2 1257.29 10985.9 1242.64C10997 1227.66 11005 1210.25 11009.9 1190.39C11015.1 1170.21 11017.7 1123.5 11017.7 1050.25L11018.2 1031.7C11018.8 1015.1 11019.1 1002.73 11019.1 994.59L11020.1 957.48L11020.6 919.883V844.199C11020.6 750.124 11018.8 694.622 11015.2 677.695C11012 660.443 11006 647.422 10997.2 638.633L10986.4 630.332L10974.7 623.008C10965.3 616.172 10960.5 609.824 10960.5 603.965C10960.5 597.78 10964.4 592.409 10972.3 587.852C10994.4 575.156 11028.6 568.809 11074.8 568.809H11091.4C11110 568.809 11121.5 581.992 11126.1 608.359C11127.7 618.125 11128.5 691.042 11128.5 827.109L11128 883.262C11128 927.858 11128.2 951.621 11128.5 954.551C11132.1 985.475 11140.6 1000.94 11153.9 1000.94C11167.2 1000.94 11190.2 983.359 11222.8 948.203C11255.3 912.721 11271.6 887.493 11271.6 872.52L11270.1 854.941C11270.1 843.874 11274.3 836.061 11282.8 831.504C11291.6 826.947 11309.7 824.668 11337 824.668C11399.2 824.668 11430.3 831.341 11430.3 844.688C11430.3 845.013 11401.5 868.288 11343.8 914.512C11286.2 960.736 11257.4 993.776 11257.4 1013.63C11257.4 1033.49 11297 1089.64 11376.1 1182.09C11393.3 1202.27 11412.2 1219.69 11432.7 1234.34C11453.5 1248.98 11464 1258.75 11464 1263.63C11464 1279.58 11439.9 1287.56 11391.7 1287.56H11356.1C11324.8 1287.56 11302.3 1278.61 11288.7 1260.7L11269.1 1213.34C11261 1193.81 11247.5 1170.7 11228.6 1144C11199.6 1103.31 11177.3 1082.97 11161.7 1082.97ZM11832.1 972.617V957.48C11832.1 933.392 11823.5 911.745 11806.2 892.539C11789 873.008 11767.8 863.242 11742.8 863.242H11733.5C11728.9 863.893 11725.8 864.219 11724.2 864.219C11701.4 864.219 11679.8 877.24 11659.3 903.281C11639.1 929.323 11629 957.155 11629 986.777V993.125C11629 1003.54 11635.2 1008.75 11647.6 1008.75C11652.4 1009.73 11655 1010.21 11655.4 1010.21L11666.6 1010.7H11669.5L11672.9 1010.21L11767.2 1004.84L11784.8 1002.89C11816.3 1002.89 11832.1 992.799 11832.1 972.617ZM11629 1102.01C11629 1139.12 11643 1170.21 11671 1195.27C11699 1220.34 11734.5 1232.87 11777.4 1232.87C11794.7 1232.87 11810.3 1230.43 11824.3 1225.55C11838.6 1220.34 11854.1 1214.15 11870.7 1206.99C11887.6 1199.83 11898.2 1196.25 11902.4 1196.25C11915.5 1196.25 11922 1203.25 11922 1217.25C11922 1236.13 11897.9 1256.31 11849.7 1277.79C11818.5 1291.79 11784.9 1298.79 11749.1 1298.79H11738.4C11677.2 1298.79 11626.4 1280.23 11586 1243.12C11564.2 1222.94 11547.3 1197.23 11535.2 1165.98C11523.2 1134.4 11517.2 1100.55 11517.2 1064.41L11517.7 1053.18V1041.95C11517.7 1010.7 11524.8 979.941 11539.2 949.668C11553.8 919.395 11571.2 894.492 11591.4 874.961C11634 833.945 11684.7 813.275 11743.3 812.949C11831.8 812.949 11890.7 847.454 11920 916.465C11929.1 938.275 11933.7 958.294 11933.7 976.523V986.289C11933.7 1008.75 11924.4 1023.89 11905.9 1031.7C11887.3 1039.19 11843.5 1045.37 11774.5 1050.25C11705.5 1055.14 11668.1 1058.39 11662.2 1060.02C11640.1 1065.55 11629 1079.55 11629 1102.01ZM12331.1 972.617V957.48C12331.1 933.392 12322.5 911.745 12305.3 892.539C12288 873.008 12266.9 863.242 12241.8 863.242H12232.5C12228 863.893 12224.9 864.219 12223.2 864.219C12200.5 864.219 12178.8 877.24 12158.3 903.281C12138.1 929.323 12128 957.155 12128 986.777V993.125C12128 1003.54 12134.2 1008.75 12146.6 1008.75C12151.5 1009.73 12154.1 1010.21 12154.4 1010.21L12165.6 1010.7H12168.6L12172 1010.21L12266.2 1004.84L12283.8 1002.89C12315.4 1002.89 12331.1 992.799 12331.1 972.617ZM12128 1102.01C12128 1139.12 12142 1170.21 12170 1195.27C12198 1220.34 12233.5 1232.87 12276.5 1232.87C12293.7 1232.87 12309.3 1230.43 12323.3 1225.55C12337.7 1220.34 12353.1 1214.15 12369.7 1206.99C12386.6 1199.83 12397.2 1196.25 12401.5 1196.25C12414.5 1196.25 12421 1203.25 12421 1217.25C12421 1236.13 12396.9 1256.31 12348.7 1277.79C12317.5 1291.79 12283.9 1298.79 12248.1 1298.79H12237.4C12176.2 1298.79 12125.4 1280.23 12085.1 1243.12C12063.2 1222.94 12046.3 1197.23 12034.3 1165.98C12022.2 1134.4 12016.2 1100.55 12016.2 1064.41L12016.7 1053.18V1041.95C12016.7 1010.7 12023.9 979.941 12038.2 949.668C12052.8 919.395 12070.2 894.492 12090.4 874.961C12133.1 833.945 12183.7 813.275 12242.3 812.949C12330.8 812.949 12389.7 847.454 12419 916.465C12428.2 938.275 12432.7 958.294 12432.7 976.523V986.289C12432.7 1008.75 12423.4 1023.89 12404.9 1031.7C12386.3 1039.19 12342.5 1045.37 12273.5 1050.25C12204.5 1055.14 12167.1 1058.39 12161.2 1060.02C12139.1 1065.55 12128 1079.55 12128 1102.01ZM12901 1072.23V1043.42C12901 991.009 12890.2 949.18 12868.7 917.93C12847.3 886.68 12820.2 871.055 12787.7 871.055H12782.8C12764.9 871.055 12747.5 876.1 12730.6 886.191C12713.6 895.957 12700.6 908.49 12691.5 923.789C12682.7 939.089 12678.3 984.173 12678.3 1059.04V1100.55L12678.8 1105.92V1126.43L12679.3 1131.31V1141.56C12679.9 1148.72 12680.3 1153.93 12680.3 1157.19C12680.3 1184.86 12689.1 1206.5 12706.6 1222.13C12724.5 1237.43 12748.5 1245.08 12778.4 1245.08H12783.3C12819.1 1245.08 12847.6 1228.64 12868.7 1195.76C12890.2 1162.88 12901 1121.71 12901 1072.23ZM12705.7 1282.19C12688.7 1282.19 12680.3 1304 12680.3 1347.62C12680.3 1391.56 12683.4 1419.39 12689.5 1431.11C12696.1 1443.16 12706.3 1454.06 12720.3 1463.83C12734.6 1473.59 12741.8 1481.89 12741.8 1488.73C12741.8 1503.38 12720.6 1510.7 12678.3 1510.7H12629.5C12555.3 1510.7 12518.2 1503.22 12518.2 1488.24C12518.2 1483.68 12527.6 1472.29 12546.5 1454.06C12556.6 1444.3 12564.5 1424.44 12570.4 1394.49C12576.3 1364.87 12579.2 1308.55 12579.2 1225.55V1022.91L12578.2 970.664C12578.2 938.763 12574 915.488 12565.5 900.84C12562.3 895.306 12553.8 887.819 12540.1 878.379C12526.5 868.613 12519.6 860.312 12519.6 853.477C12519.6 846.641 12523.5 841.27 12531.3 837.363C12556.7 824.993 12590.3 818.809 12631.9 818.809C12642.7 818.809 12653.6 825.319 12664.6 838.34C12676 851.361 12682.4 857.871 12683.7 857.871C12688.9 857.871 12699.3 853.477 12714.9 844.688C12730.9 835.573 12739.4 830.69 12740.3 830.039C12768.3 817.018 12792.6 810.508 12813.1 810.508H12838.5C12856.7 810.508 12877.4 815.553 12900.5 825.645C12944.8 844.85 12976.5 880.82 12995.7 933.555C13007.1 964.479 13012.8 994.59 13012.8 1023.89V1051.23C13012.8 1081.5 13006.6 1112.59 12994.2 1144.49C12969.8 1207.64 12928.5 1250.61 12870.2 1273.4C12845.5 1283.16 12816.7 1288.05 12783.8 1288.05L12705.7 1282.19ZM13286.2 663.047C13286.2 677.37 13280 690.716 13267.7 703.086C13255.6 715.13 13243.6 721.152 13231.5 721.152C13228.9 721.803 13226.8 722.129 13225.2 722.129L13214.4 723.105C13198.2 723.105 13183.5 717.734 13170.5 706.992C13157.8 696.25 13151.5 682.415 13151.5 665.488V656.699C13151.5 639.772 13158.1 625.612 13171.5 614.219C13185.2 602.5 13200.8 596.641 13218.4 596.641H13220.8L13237.4 598.594C13247.5 598.594 13257.9 604.128 13268.6 615.195C13279.7 625.938 13285.2 636.842 13285.2 647.91L13286.2 652.305V663.047ZM13131 880.82C13114 872.682 13105.6 865.033 13105.6 857.871C13105.6 850.71 13109 845.013 13115.8 840.781C13139.6 826.458 13177.2 819.297 13228.6 819.297H13242.8C13260.3 819.297 13270.3 827.435 13272.6 843.711C13273.9 852.5 13274.5 911.745 13274.5 1021.45C13274.5 1130.82 13276.8 1193.65 13281.3 1209.92C13285.9 1225.87 13296.8 1238.24 13314.1 1247.03C13331.3 1255.49 13339.9 1264.12 13339.9 1272.91C13339.9 1285.28 13299.6 1291.46 13218.8 1291.46L13204.2 1291.95H13144.6C13120.9 1291.95 13109 1286.09 13109 1274.38C13109 1264.61 13116.1 1255.17 13130.5 1246.05C13145.1 1236.94 13155.2 1226.85 13160.7 1215.78C13166.9 1203.74 13170 1175.58 13170 1131.31L13170.5 1115.68V1100.55L13171 1077.6V1062.46L13171.5 1047.32C13171.5 970.176 13168.9 925.254 13163.7 912.559C13158.8 899.538 13147.9 888.958 13131 880.82ZM13487.9 1286.09C13442 1286.09 13419 1279.58 13419 1266.56C13419 1255.82 13425.1 1247.03 13437.1 1240.2C13458.9 1227.83 13471.6 1216.76 13475.2 1206.99C13478.8 1196.9 13480.6 1149.86 13480.6 1065.88C13480.6 981.569 13478 932.253 13472.8 917.93C13467.9 903.281 13458.8 891.237 13445.4 881.797C13432.1 872.357 13425.4 864.707 13425.4 858.848C13425.4 852.988 13429.8 847.454 13438.6 842.246C13459.1 830.202 13491.6 824.18 13536.2 824.18C13549.6 824.18 13560 828.737 13567.5 837.852C13570.1 841.107 13573.7 848.268 13578.2 859.336C13583.1 870.078 13586.4 875.449 13588 875.449C13594.2 875.124 13603.8 870.729 13616.8 862.266C13661.7 831.992 13702.4 816.855 13738.9 816.855H13739.8H13755.5C13781.8 816.855 13805.6 823.366 13826.8 836.387C13847.9 849.408 13864.2 868.939 13875.6 894.98C13887.3 921.022 13893.2 977.826 13893.2 1065.39C13893.2 1152.63 13895 1201.46 13898.5 1211.88C13902.4 1221.97 13913 1231.41 13930.3 1240.2C13947.8 1248.98 13956.6 1257.61 13956.6 1266.07C13956.6 1280.72 13910.4 1288.05 13818 1288.05H13803.3C13774 1288.05 13759.4 1281.05 13759.4 1267.05C13759.4 1264.12 13763 1257.12 13770.1 1246.05C13777.3 1234.66 13782.2 1222.13 13784.8 1208.46C13787.4 1194.79 13788.7 1149.86 13788.7 1073.69C13788.7 997.194 13783.9 948.04 13774.5 926.23C13761.5 896.283 13739.8 881.309 13709.6 881.309C13687.4 881.309 13665.9 886.517 13645.1 896.934C13624.6 907.025 13609.6 921.51 13600.2 940.391C13591.1 958.945 13586.5 1003.7 13586.5 1074.67C13586.5 1145.31 13588.5 1188.11 13592.4 1203.09C13596.3 1217.73 13601 1229.62 13606.5 1238.73L13624.6 1268.03C13624.6 1280.72 13599.1 1287.07 13547.9 1287.07L13518.2 1286.09H13487.9ZM14231.5 844.199H14218.8C14201.6 844.199 14184.8 854.128 14168.6 873.984C14152.3 893.841 14144.1 916.953 14144.1 943.32L14143.2 951.133L14142.7 963.34V976.035L14143.2 979.941C14143.2 1013.8 14150.5 1041.14 14165.1 1061.97C14179.8 1082.81 14201.6 1093.22 14230.6 1093.22H14234C14256.4 1093.22 14275.6 1084.43 14291.6 1066.86C14307.5 1049.28 14315.5 1026 14315.5 997.031V977.988C14314.5 970.176 14314.1 963.828 14314.1 958.945C14314.1 928.021 14305.4 901.165 14288.2 878.379C14271.3 855.592 14252.4 844.199 14231.5 844.199ZM14188.1 1278.28C14165.3 1278.28 14145.9 1286.26 14130 1302.21C14114 1318.16 14106.1 1338.18 14106.1 1362.27V1366.17C14106.1 1393.84 14117 1415.65 14138.8 1431.6C14160.6 1447.55 14190.4 1455.53 14228.1 1455.53H14240.8C14286.4 1455.53 14323 1445.11 14350.7 1424.28C14378.3 1403.44 14392.2 1379.03 14392.2 1351.04L14391.7 1347.13C14391.7 1328.57 14384 1313.6 14368.7 1302.21C14353.4 1291.14 14335.4 1285.61 14314.5 1285.61C14301.5 1283.98 14292.1 1283.16 14286.2 1283.16L14269.6 1281.7H14261.3L14232 1279.75L14212 1278.28H14188.1ZM14488.4 838.828C14488.4 857.383 14476.7 869.264 14453.2 874.473C14429.8 879.355 14418.1 888.958 14418.1 903.281L14419.5 913.535L14421.5 925.254L14423.9 937.949C14425.5 948.691 14426.4 963.828 14426.4 983.359C14426.4 1002.89 14420.8 1023.07 14409.8 1043.91C14378.8 1101.52 14319.3 1133.1 14231.1 1138.63C14202.7 1140.59 14184.7 1143.03 14176.9 1145.96C14159.9 1152.47 14151.5 1163.37 14151.5 1178.67C14151.5 1193.97 14164 1204.71 14189.1 1210.9C14192.6 1211.88 14225 1214.97 14286.2 1220.18C14347.4 1225.06 14388.3 1232.71 14408.8 1243.12C14452.1 1264.61 14473.7 1295.7 14473.7 1336.39C14473.7 1389.77 14449.8 1433.23 14401.9 1466.76C14354.4 1500.29 14292.1 1517.05 14214.9 1517.05C14160.6 1517.05 14115.3 1506.63 14079.2 1485.8C14062.6 1476.36 14049.1 1463.99 14038.7 1448.69C14028.6 1433.72 14023.5 1418.09 14023.5 1401.82C14023.5 1372.85 14032.2 1348.76 14049.4 1329.55C14077.1 1298.95 14090.9 1282.68 14090.9 1280.72C14090.9 1278.77 14084.9 1270.14 14072.8 1254.84C14060.8 1239.54 14054.8 1223.59 14054.8 1206.99C14054.8 1190.39 14062.6 1172.49 14078.2 1153.28C14094.2 1133.75 14102.1 1122.85 14102.1 1120.57C14102.1 1118.29 14092.4 1101.69 14072.8 1070.76C14053.3 1039.51 14043.6 1009.89 14043.6 981.895C14043.6 953.9 14049.6 928.997 14061.6 907.188C14095.8 845.013 14159.4 813.926 14252.5 813.926H14266.7L14334.6 818.32L14359.5 819.297C14367.9 819.622 14376.6 819.785 14385.3 819.785L14437.1 816.367C14471.3 816.367 14488.4 823.854 14488.4 838.828ZM15092.9 630.332C15092.9 636.517 15083.4 645.632 15064.5 657.676C15046 669.72 15034.4 686.159 15029.9 706.992C15025.6 727.5 15023.5 809.368 15023.5 952.598C15023.5 1095.5 15026.1 1177.37 15031.3 1198.2C15036.9 1218.71 15048.8 1234.17 15067 1244.59C15085.5 1254.68 15094.8 1264.12 15094.8 1272.91C15094.8 1284.95 15080 1290.98 15050.4 1290.98L15039.6 1290.49L15017.2 1290C15009.7 1289.67 15002.2 1289.51 14994.7 1289.51L14973.2 1288.54H14907.3C14854.3 1288.54 14827.7 1283.82 14827.7 1274.38V1267.54C14827.7 1261.35 14838.1 1252.24 14859 1240.2C14880.1 1227.83 14893.3 1210.57 14898.5 1188.44C14903.7 1165.98 14906.3 1086.39 14906.3 949.668C14906.3 812.624 14903.3 732.708 14897.1 709.922C14890.9 686.81 14881.1 671.673 14867.8 664.512C14841.1 649.863 14827.7 638.796 14827.7 631.309C14827.7 618.613 14878 612.266 14978.6 612.266L15032.3 611.289H15064.1C15083.3 611.289 15092.9 617.637 15092.9 630.332ZM15258.4 1286.09C15212.5 1286.09 15189.5 1279.58 15189.5 1266.56C15189.5 1255.82 15195.6 1247.03 15207.6 1240.2C15229.4 1227.83 15242.1 1216.76 15245.7 1206.99C15249.3 1196.9 15251.1 1149.86 15251.1 1065.88C15251.1 981.569 15248.5 932.253 15243.3 917.93C15238.4 903.281 15229.3 891.237 15215.9 881.797C15202.6 872.357 15195.9 864.707 15195.9 858.848C15195.9 852.988 15200.3 847.454 15209.1 842.246C15229.6 830.202 15262.1 824.18 15306.7 824.18C15320.1 824.18 15330.5 828.737 15338 837.852C15340.6 841.107 15344.2 848.268 15348.7 859.336C15353.6 870.078 15356.9 875.449 15358.5 875.449C15364.7 875.124 15374.3 870.729 15387.3 862.266C15432.2 831.992 15472.9 816.855 15509.4 816.855H15510.3H15526C15552.3 816.855 15576.1 823.366 15597.3 836.387C15618.4 849.408 15634.7 868.939 15646.1 894.98C15657.8 921.022 15663.7 977.826 15663.7 1065.39C15663.7 1152.63 15665.5 1201.46 15669 1211.88C15672.9 1221.97 15683.5 1231.41 15700.8 1240.2C15718.4 1248.98 15727.1 1257.61 15727.1 1266.07C15727.1 1280.72 15680.9 1288.05 15588.5 1288.05H15573.8C15544.5 1288.05 15529.9 1281.05 15529.9 1267.05C15529.9 1264.12 15533.5 1257.12 15540.6 1246.05C15547.8 1234.66 15552.7 1222.13 15555.3 1208.46C15557.9 1194.79 15559.2 1149.86 15559.2 1073.69C15559.2 997.194 15554.5 948.04 15545 926.23C15532 896.283 15510.3 881.309 15480.1 881.309C15457.9 881.309 15436.5 886.517 15415.6 896.934C15395.1 907.025 15380.1 921.51 15370.7 940.391C15361.6 958.945 15357 1003.7 15357 1074.67C15357 1145.31 15359 1188.11 15362.9 1203.09C15366.8 1217.73 15371.5 1229.62 15377 1238.73L15395.1 1268.03C15395.1 1280.72 15369.6 1287.07 15318.5 1287.07L15288.7 1286.09H15258.4ZM16155.9 955.039C16142.2 955.039 16123.1 940.879 16098.7 912.559C16074.6 884.238 16046.6 870.078 16014.7 870.078C15983.2 870.078 15956.6 885.866 15935.2 917.441C15913.7 948.691 15902.9 993.125 15902.9 1050.74C15902.9 1108.36 15916.1 1153.44 15942.5 1186C15969.2 1218.22 16003.8 1234.34 16046.5 1234.34C16069.9 1234.34 16089.4 1231.41 16105.1 1225.55C16121 1219.69 16135.7 1213.5 16149 1206.99C16162.7 1200.16 16172.3 1196.74 16177.8 1196.74C16187.3 1196.74 16192 1202.92 16192 1215.29C16192 1234.17 16172.9 1252.89 16134.9 1271.45C16096.8 1290 16059.8 1299.28 16024 1299.28C15954.4 1299.28 15898.4 1277.47 15856.1 1233.85C15838.8 1215.94 15824.3 1192.99 15812.6 1165C15800.9 1136.68 15795 1106.41 15795 1074.18V1050.25C15795 1049.6 15795 1048.79 15795 1047.81C15795 1047.16 15795 1046.51 15795 1045.86C15795 1017.54 15801.4 988.242 15814.1 957.969C15839.1 898.724 15879.5 857.708 15935.2 834.922C15967.4 821.901 15999.4 815.391 16031.3 815.391H16042.6C16086.5 815.391 16123.8 823.04 16154.4 838.34C16179.1 850.71 16191.5 871.38 16191.5 900.352C16191.5 919.557 16187.6 933.555 16179.8 942.344C16172.3 950.807 16164.3 955.039 16155.9 955.039Z" fill="black"/>
</svg>
