<svg width="16508" height="1089" viewBox="0 0 16508 1089" fill="none" xmlns="http://www.w3.org/2000/svg">
<rect width="16353" height="1056" fill="white"/>
<path d="M536.715 235.512C522.066 235.512 513.115 241.046 509.859 252.113C507.906 258.949 506.93 289.711 506.93 344.398V439.125C506.93 459.307 508.72 471.84 512.301 476.723C515.882 481.28 526.949 483.559 545.504 483.559H566.012L570.406 483.07L599.703 481.605C602.633 481.28 605.4 481.117 608.004 481.117C639.254 481.117 665.458 469.561 686.617 446.449C707.776 423.337 718.355 395.342 718.355 362.465V349.281C718.355 315.753 706.799 288.572 683.688 267.738C660.901 246.579 632.906 236 599.703 236L590.914 235.023L578.219 234.535H548.922C543.714 235.186 539.645 235.512 536.715 235.512ZM595.309 533.852H553.316C528.251 533.852 514.091 537.27 510.836 544.105C507.906 550.941 506.441 571.612 506.441 606.117V746.254C506.441 776.527 510.022 795.082 517.184 801.918C524.671 808.428 545.178 811.684 578.707 811.684H607.516C650.484 811.684 685.315 800.453 712.008 777.992C738.701 755.206 752.047 725.258 752.047 688.148V662.758C752.047 622.719 737.398 591.306 708.102 568.52C678.805 545.408 641.207 533.852 595.309 533.852ZM584.078 182.289C699.964 182.289 774.345 212.725 807.223 273.598C818.941 295.082 824.801 319.822 824.801 347.816C824.801 375.486 818.128 399.9 804.781 421.059C791.76 442.217 780.042 457.029 769.625 465.492C759.534 473.63 749.117 480.954 738.375 487.465C727.958 493.65 722.75 497.719 722.75 499.672C722.75 501.625 735.771 509.275 761.812 522.621C788.18 535.642 809.013 551.104 824.312 569.008C851.656 601.56 865.328 635.089 865.328 669.594V682.289C865.328 739.581 841.891 785.154 795.016 819.008C778.089 831.378 754.326 842.283 723.727 851.723C693.453 860.837 657.32 865.395 615.328 865.395H563.57L550.875 864.906C542.411 864.581 533.785 864.418 524.996 864.418L512.301 863.93C503.837 863.604 495.374 863.441 486.91 863.441L474.215 862.953C465.751 862.628 457.288 862.465 448.824 862.465H411.227C354.586 862.465 326.266 857.094 326.266 846.352C326.266 835.284 334.892 825.03 352.145 815.59C369.723 805.824 381.116 789.385 386.324 766.273C391.858 742.836 394.625 688.474 394.625 603.188V442.543L393.648 391.762C393.323 383.298 393.16 363.116 393.16 331.215C393.16 299.314 390.068 277.016 383.883 264.32C378.023 251.299 366.142 240.557 348.238 232.094C330.335 223.63 321.383 216.143 321.383 209.633C321.383 200.193 325.94 193.845 335.055 190.59C344.169 187.009 372.164 185.219 419.039 185.219L532.32 182.289H584.078ZM1218.84 634.926H1210.54C1167.9 634.926 1132.26 644.529 1103.61 663.734C1075.29 682.615 1061.13 706.215 1061.13 734.535V744.301C1061.13 760.902 1066.17 775.876 1076.27 789.223C1086.68 802.243 1100.03 808.754 1116.3 808.754L1122.16 809.73H1136.81C1170.67 809.73 1198.34 795.896 1219.82 768.227C1229.26 756.182 1233.98 731.443 1233.98 694.008C1233.98 691.078 1233.98 688.148 1233.98 685.219L1234.47 673.5V661.781C1234.47 643.878 1229.26 634.926 1218.84 634.926ZM981.539 477.211C981.539 453.122 1000.58 431.638 1038.67 412.758C1077.08 393.552 1116.79 383.949 1157.81 383.949C1159.11 383.949 1160.41 383.949 1161.71 383.949C1200.78 383.949 1232.03 388.669 1255.46 398.109C1302.99 416.99 1330.17 457.029 1337.01 518.227C1337.66 524.411 1337.98 565.427 1337.98 641.273C1337.98 716.794 1339.94 761.065 1343.84 774.086C1348.08 787.107 1359.14 796.71 1377.05 802.895C1395.28 809.079 1404.39 814.939 1404.39 820.473C1404.39 832.191 1398.53 841.143 1386.81 847.328C1363.38 859.698 1340.26 865.883 1317.48 865.883C1295.02 865.883 1278.25 860.674 1267.18 850.258C1247.33 831.703 1236.75 822.426 1235.45 822.426C1234.14 822.426 1215.75 830.727 1180.27 847.328C1144.79 863.604 1113.7 871.742 1087.01 871.742C1046.97 871.742 1015.56 860.674 992.77 838.539C969.983 816.404 958.59 789.548 958.59 757.973V745.766C958.59 711.911 973.238 682.126 1002.54 656.41C1031.83 630.694 1084.57 610.674 1160.74 596.352C1188.41 591.143 1205.82 586.26 1212.98 581.703C1227.31 572.589 1234.47 554.034 1234.47 526.039C1234.47 498.044 1226.98 476.56 1212.01 461.586C1197.03 446.612 1177.01 439.125 1151.95 439.125C1126.88 439.125 1102.63 453.773 1079.2 483.07C1056.08 512.042 1034.92 526.527 1015.72 526.527C992.932 526.527 981.539 510.089 981.539 477.211ZM1480.07 843.91C1480.07 837.074 1487.4 828.285 1502.05 817.543C1517.02 806.801 1527.11 790.036 1532.32 767.25C1537.53 744.138 1540.13 656.898 1540.13 505.531C1540.13 354.164 1538.34 268.389 1534.76 248.207C1531.51 228.025 1523.21 213.539 1509.86 204.75C1488.38 190.753 1477.63 182.126 1477.63 178.871V173.012C1477.63 167.478 1482.35 162.595 1491.79 158.363C1521.09 145.668 1560.15 139.32 1608.98 139.32H1618.75C1635.35 139.32 1644.95 150.551 1647.55 173.012C1647.88 175.941 1648.04 200.518 1648.04 246.742V351.723L1647.55 371.742V402.504L1647.07 422.523C1647.07 422.523 1647.07 474.118 1647.07 577.309C1647.07 673.663 1648.53 733.396 1651.46 756.508C1654.72 779.294 1662.04 795.896 1673.43 806.312C1674.74 807.289 1681.57 811.521 1693.94 819.008C1706.31 826.495 1712.5 834.145 1712.5 841.957C1712.5 853.35 1692.31 859.047 1651.95 859.047L1631.93 860.023H1611.91L1531.83 861.488H1521.58C1493.91 861.488 1480.07 855.629 1480.07 843.91ZM2045.99 634.926H2037.69C1995.05 634.926 1959.4 644.529 1930.76 663.734C1902.44 682.615 1888.28 706.215 1888.28 734.535V744.301C1888.28 760.902 1893.32 775.876 1903.41 789.223C1913.83 802.243 1927.18 808.754 1943.45 808.754L1949.31 809.73H1963.96C1997.82 809.73 2025.48 795.896 2046.97 768.227C2056.41 756.182 2061.13 731.443 2061.13 694.008C2061.13 691.078 2061.13 688.148 2061.13 685.219L2061.62 673.5V661.781C2061.62 643.878 2056.41 634.926 2045.99 634.926ZM1808.69 477.211C1808.69 453.122 1827.73 431.638 1865.82 412.758C1904.23 393.552 1943.94 383.949 1984.96 383.949C1986.26 383.949 1987.56 383.949 1988.86 383.949C2027.93 383.949 2059.18 388.669 2082.61 398.109C2130.14 416.99 2157.32 457.029 2164.16 518.227C2164.81 524.411 2165.13 565.427 2165.13 641.273C2165.13 716.794 2167.09 761.065 2170.99 774.086C2175.22 787.107 2186.29 796.71 2204.2 802.895C2222.42 809.079 2231.54 814.939 2231.54 820.473C2231.54 832.191 2225.68 841.143 2213.96 847.328C2190.52 859.698 2167.41 865.883 2144.62 865.883C2122.16 865.883 2105.4 860.674 2094.33 850.258C2074.48 831.703 2063.9 822.426 2062.59 822.426C2061.29 822.426 2042.9 830.727 2007.42 847.328C1971.94 863.604 1940.85 871.742 1914.16 871.742C1874.12 871.742 1842.7 860.674 1819.92 838.539C1797.13 816.404 1785.74 789.548 1785.74 757.973V745.766C1785.74 711.911 1800.39 682.126 1829.68 656.41C1858.98 630.694 1911.71 610.674 1987.89 596.352C2015.56 591.143 2032.97 586.26 2040.13 581.703C2054.46 572.589 2061.62 554.034 2061.62 526.039C2061.62 498.044 2054.13 476.56 2039.16 461.586C2024.18 446.612 2004.16 439.125 1979.1 439.125C1954.03 439.125 1929.78 453.773 1906.34 483.07C1883.23 512.042 1862.07 526.527 1842.87 526.527C1820.08 526.527 1808.69 510.089 1808.69 477.211ZM2377.54 857.094C2331.64 857.094 2308.69 850.583 2308.69 837.562C2308.69 826.82 2314.71 818.031 2326.75 811.195C2348.56 798.826 2361.26 787.758 2364.84 777.992C2368.42 767.901 2370.21 720.863 2370.21 636.879C2370.21 552.569 2367.61 503.253 2362.4 488.93C2357.52 474.281 2348.4 462.237 2335.05 452.797C2321.71 443.357 2315.04 435.707 2315.04 429.848C2315.04 423.988 2319.43 418.454 2328.22 413.246C2348.73 401.202 2381.28 395.18 2425.88 395.18C2439.22 395.18 2449.64 399.737 2457.12 408.852C2459.73 412.107 2463.31 419.268 2467.87 430.336C2472.75 441.078 2476.01 446.449 2477.63 446.449C2483.82 446.124 2493.42 441.729 2506.44 433.266C2551.36 402.992 2592.05 387.855 2628.51 387.855H2629.49H2645.11C2671.48 387.855 2695.24 394.366 2716.4 407.387C2737.56 420.408 2753.84 439.939 2765.23 465.98C2776.95 492.022 2782.81 548.826 2782.81 636.391C2782.81 723.63 2784.6 772.458 2788.18 782.875C2792.09 792.966 2802.67 802.406 2819.92 811.195C2837.5 819.984 2846.29 828.611 2846.29 837.074C2846.29 851.723 2800.06 859.047 2707.61 859.047H2692.96C2663.67 859.047 2649.02 852.048 2649.02 838.051C2649.02 835.121 2652.6 828.122 2659.76 817.055C2666.92 805.661 2671.81 793.129 2674.41 779.457C2677.01 765.785 2678.32 720.863 2678.32 644.691C2678.32 568.194 2673.6 519.04 2664.16 497.23C2651.14 467.283 2629.49 452.309 2599.21 452.309C2577.08 452.309 2555.6 457.517 2534.76 467.934C2514.25 478.025 2499.28 492.51 2489.84 511.391C2480.73 529.945 2476.17 574.704 2476.17 645.668C2476.17 716.306 2478.12 759.112 2482.03 774.086C2485.93 788.734 2490.65 800.616 2496.19 809.73L2514.25 839.027C2514.25 851.723 2488.7 858.07 2437.59 858.07L2407.81 857.094H2377.54ZM3275 526.039C3261.32 526.039 3242.28 511.879 3217.87 483.559C3193.78 455.238 3165.78 441.078 3133.88 441.078C3102.31 441.078 3075.78 456.866 3054.29 488.441C3032.81 519.691 3022.07 564.125 3022.07 621.742C3022.07 679.359 3035.25 724.444 3061.62 756.996C3088.31 789.223 3122.98 805.336 3165.62 805.336C3189.06 805.336 3208.59 802.406 3224.21 796.547C3240.17 790.688 3254.81 784.503 3268.16 777.992C3281.83 771.156 3291.43 767.738 3296.97 767.738C3306.41 767.738 3311.13 773.923 3311.13 786.293C3311.13 805.173 3292.09 823.891 3254 842.445C3215.91 861 3178.97 870.277 3143.16 870.277C3073.5 870.277 3017.51 848.467 2975.19 804.848C2957.94 786.944 2943.45 763.995 2931.73 736C2920.02 707.68 2914.16 677.406 2914.16 645.18V621.254C2914.16 620.603 2914.16 619.789 2914.16 618.812C2914.16 618.161 2914.16 617.51 2914.16 616.859C2914.16 588.539 2920.5 559.242 2933.2 528.969C2958.26 469.724 2998.63 428.708 3054.29 405.922C3086.52 392.901 3118.58 386.391 3150.48 386.391H3161.71C3205.66 386.391 3242.93 394.04 3273.53 409.34C3298.27 421.71 3310.64 442.38 3310.64 471.352C3310.64 490.557 3306.73 504.555 3298.92 513.344C3291.43 521.807 3283.46 526.039 3275 526.039ZM3702.24 543.617V528.48C3702.24 504.392 3693.62 482.745 3676.36 463.539C3659.11 444.008 3637.95 434.242 3612.89 434.242H3603.61C3599.05 434.893 3595.96 435.219 3594.33 435.219C3571.55 435.219 3549.9 448.24 3529.39 474.281C3509.21 500.323 3499.12 528.155 3499.12 557.777V564.125C3499.12 574.542 3505.3 579.75 3517.67 579.75C3522.55 580.727 3525.16 581.215 3525.48 581.215L3536.71 581.703H3539.64L3543.06 581.215L3637.3 575.844L3654.88 573.891C3686.45 573.891 3702.24 563.799 3702.24 543.617ZM3499.12 673.012C3499.12 710.121 3513.11 741.208 3541.11 766.273C3569.1 791.339 3604.59 803.871 3647.55 803.871C3664.81 803.871 3680.43 801.43 3694.43 796.547C3708.75 791.339 3724.21 785.154 3740.82 777.992C3757.74 770.831 3768.32 767.25 3772.55 767.25C3785.58 767.25 3792.09 774.249 3792.09 788.246C3792.09 807.126 3768 827.309 3719.82 848.793C3688.57 862.79 3655.04 869.789 3619.23 869.789H3608.49C3547.29 869.789 3496.51 851.234 3456.15 814.125C3434.34 793.943 3417.41 768.227 3405.37 736.977C3393.32 705.401 3387.3 671.547 3387.3 635.414L3387.79 624.184V612.953C3387.79 581.703 3394.95 550.941 3409.27 520.668C3423.92 490.395 3441.34 465.492 3461.52 445.961C3504.16 404.945 3554.78 384.275 3613.38 383.949C3701.92 383.949 3760.84 418.454 3790.13 487.465C3799.25 509.275 3803.8 529.294 3803.8 547.523V557.289C3803.8 579.75 3794.53 594.887 3775.97 602.699C3757.42 610.186 3713.64 616.371 3644.62 621.254C3575.61 626.137 3538.18 629.392 3532.32 631.02C3510.18 636.553 3499.12 650.551 3499.12 673.012ZM4341.89 302.406V487.465C4341.89 510.251 4344.98 525.062 4351.17 531.898C4357.35 538.409 4372.49 541.664 4396.58 541.664H4419.53C4462.5 541.664 4497.16 528.48 4523.53 502.113C4550.22 475.421 4563.57 438.962 4563.57 392.738V376.625C4563.57 329.424 4549.41 292.803 4521.09 266.762C4492.77 240.72 4454.03 227.699 4404.88 227.699H4400.48C4372.49 227.699 4355.73 231.443 4350.19 238.93C4344.66 246.417 4341.89 267.576 4341.89 302.406ZM4390.72 175.941H4442.96C4558.2 175.941 4632.74 210.609 4666.6 279.945C4679.29 305.987 4685.64 334.796 4685.64 366.371V380.043C4685.64 380.043 4685.64 380.368 4685.64 381.02C4685.64 442.868 4658.46 492.836 4604.1 530.922C4565.36 557.94 4505.46 574.542 4424.41 580.727C4389.9 583.331 4369.07 588.702 4361.91 596.84C4350.52 609.535 4344.82 640.134 4344.82 688.637C4344.82 736.814 4349.87 768.064 4359.96 782.387C4364.84 789.223 4375.74 797.849 4392.67 808.266C4409.92 818.357 4418.55 826.169 4418.55 831.703C4418.55 848.956 4397.55 857.582 4355.56 857.582H4232.03C4184.83 857.582 4161.23 849.77 4161.23 834.145C4161.23 824.379 4169.85 814.288 4187.11 803.871C4204.36 793.454 4215.43 782.549 4220.31 771.156C4225.19 759.438 4227.63 729.49 4227.63 681.312L4228.12 669.105C4228.45 660.642 4228.61 652.178 4228.61 643.715C4228.61 635.251 4228.61 626.788 4228.61 618.324L4229.1 592.934V529.457L4228.61 504.066C4228.61 380.043 4226.01 305.824 4220.8 281.41C4215.91 256.671 4205.17 239.581 4188.57 230.141C4172.29 220.701 4164.16 211.911 4164.16 203.773C4164.16 195.31 4168.71 189.125 4177.83 185.219C4186.94 181.312 4214.61 179.359 4260.84 179.359L4312.59 178.383L4351.17 176.918C4368.42 176.267 4381.6 175.941 4390.72 175.941ZM5011.32 841.957C5011.32 854.652 4981.86 861 4922.95 861H4871.19L4850.68 860.023L4819.92 859.535C4785.41 859.535 4768.16 853.35 4768.16 840.98C4768.16 832.191 4775.81 822.914 4791.11 813.148C4806.73 803.057 4817.15 790.199 4822.36 774.574C4827.89 758.624 4830.66 711.911 4830.66 634.438C4830.66 556.964 4828.06 509.926 4822.85 493.324C4817.96 476.723 4810.15 464.841 4799.41 457.68C4780.2 444.984 4770.6 435.707 4770.6 429.848C4770.6 423.988 4774.02 418.78 4780.86 414.223C4801.04 400.551 4835.22 393.715 4883.39 393.715H4892.67C4911.23 393.715 4924.41 403.155 4932.22 422.035C4940.04 440.59 4946.38 449.867 4951.27 449.867C4956.15 449.867 4964.45 445.31 4976.17 436.195C4988.21 427.081 5002.54 417.966 5019.14 408.852C5036.06 399.737 5054.78 395.18 5075.29 395.18C5095.8 395.18 5111.42 400.551 5122.16 411.293C5133.23 421.71 5138.77 435.219 5138.77 451.82C5138.44 468.747 5134.05 481.443 5125.58 489.906C5117.12 498.37 5108 502.602 5098.24 502.602C5088.47 502.602 5075.61 498.695 5059.66 490.883C5043.71 482.745 5030.37 478.676 5019.62 478.676C5008.88 478.676 4997.16 483.233 4984.47 492.348C4971.77 501.137 4960.87 517.087 4951.75 540.199C4942.96 562.986 4938.57 602.211 4938.57 657.875C4938.57 713.214 4942.48 749.021 4950.29 765.297C4958.1 781.247 4970.15 795.896 4986.42 809.242C5003.02 822.589 5011.32 833.493 5011.32 841.957ZM5505.95 543.617V528.48C5505.95 504.392 5497.33 482.745 5480.07 463.539C5462.82 444.008 5441.66 434.242 5416.6 434.242H5407.32C5402.76 434.893 5399.67 435.219 5398.04 435.219C5375.26 435.219 5353.61 448.24 5333.1 474.281C5312.92 500.323 5302.83 528.155 5302.83 557.777V564.125C5302.83 574.542 5309.01 579.75 5321.38 579.75C5326.27 580.727 5328.87 581.215 5329.2 581.215L5340.43 581.703H5343.36L5346.77 581.215L5441.01 575.844L5458.59 573.891C5490.17 573.891 5505.95 563.799 5505.95 543.617ZM5302.83 673.012C5302.83 710.121 5316.83 741.208 5344.82 766.273C5372.82 791.339 5408.3 803.871 5451.27 803.871C5468.52 803.871 5484.14 801.43 5498.14 796.547C5512.46 791.339 5527.93 785.154 5544.53 777.992C5561.45 770.831 5572.03 767.25 5576.27 767.25C5589.29 767.25 5595.8 774.249 5595.8 788.246C5595.8 807.126 5571.71 827.309 5523.53 848.793C5492.28 862.79 5458.75 869.789 5422.95 869.789H5412.2C5351.01 869.789 5300.22 851.234 5259.86 814.125C5238.05 793.943 5221.12 768.227 5209.08 736.977C5197.03 705.401 5191.01 671.547 5191.01 635.414L5191.5 624.184V612.953C5191.5 581.703 5198.66 550.941 5212.98 520.668C5227.63 490.395 5245.05 465.492 5265.23 445.961C5307.87 404.945 5358.49 384.275 5417.09 383.949C5505.63 383.949 5564.55 418.454 5593.84 487.465C5602.96 509.275 5607.52 529.294 5607.52 547.523V557.289C5607.52 579.75 5598.24 594.887 5579.68 602.699C5561.13 610.186 5517.35 616.371 5448.34 621.254C5379.33 626.137 5341.89 629.392 5336.03 631.02C5313.9 636.553 5302.83 650.551 5302.83 673.012ZM6054.29 526.039C6040.62 526.039 6021.58 511.879 5997.16 483.559C5973.08 455.238 5945.08 441.078 5913.18 441.078C5881.6 441.078 5855.07 456.866 5833.59 488.441C5812.11 519.691 5801.36 564.125 5801.36 621.742C5801.36 679.359 5814.55 724.444 5840.91 756.996C5867.61 789.223 5902.27 805.336 5944.92 805.336C5968.36 805.336 5987.89 802.406 6003.51 796.547C6019.46 790.688 6034.11 784.503 6047.46 777.992C6061.13 771.156 6070.73 767.738 6076.27 767.738C6085.71 767.738 6090.43 773.923 6090.43 786.293C6090.43 805.173 6071.38 823.891 6033.3 842.445C5995.21 861 5958.26 870.277 5922.46 870.277C5852.8 870.277 5796.81 848.467 5754.49 804.848C5737.24 786.944 5722.75 763.995 5711.03 736C5699.31 707.68 5693.45 677.406 5693.45 645.18V621.254C5693.45 620.603 5693.45 619.789 5693.45 618.812C5693.45 618.161 5693.45 617.51 5693.45 616.859C5693.45 588.539 5699.8 559.242 5712.5 528.969C5737.56 469.724 5777.93 428.708 5833.59 405.922C5865.82 392.901 5897.88 386.391 5929.78 386.391H5941.01C5984.96 386.391 6022.23 394.04 6052.83 409.34C6077.57 421.71 6089.94 442.38 6089.94 471.352C6089.94 490.557 6086.03 504.555 6078.22 513.344C6070.73 521.807 6062.76 526.039 6054.29 526.039ZM6355.56 234.047C6355.56 248.37 6349.38 261.716 6337.01 274.086C6324.96 286.13 6312.92 292.152 6300.88 292.152C6298.27 292.803 6296.15 293.129 6294.53 293.129L6283.79 294.105C6267.51 294.105 6252.86 288.734 6239.84 277.992C6227.14 267.25 6220.8 253.415 6220.8 236.488V227.699C6220.8 210.772 6227.47 196.612 6240.82 185.219C6254.49 173.5 6270.11 167.641 6287.69 167.641H6290.13L6306.73 169.594C6316.83 169.594 6327.24 175.128 6337.98 186.195C6349.05 196.938 6354.59 207.842 6354.59 218.91L6355.56 223.305V234.047ZM6200.29 451.82C6183.36 443.682 6174.9 436.033 6174.9 428.871C6174.9 421.71 6178.32 416.013 6185.15 411.781C6208.92 397.458 6246.51 390.297 6297.95 390.297H6312.11C6329.68 390.297 6339.61 398.435 6341.89 414.711C6343.19 423.5 6343.84 482.745 6343.84 592.445C6343.84 701.82 6346.12 764.646 6350.68 780.922C6355.24 796.872 6366.14 809.242 6383.39 818.031C6400.65 826.495 6409.27 835.121 6409.27 843.91C6409.27 856.28 6368.91 862.465 6288.18 862.465L6273.53 862.953H6213.96C6190.2 862.953 6178.32 857.094 6178.32 845.375C6178.32 835.609 6185.48 826.169 6199.8 817.055C6214.45 807.94 6224.54 797.849 6230.07 786.781C6236.26 774.737 6239.35 746.579 6239.35 702.309L6239.84 686.684V671.547L6240.33 648.598V633.461L6240.82 618.324C6240.82 541.176 6238.21 496.254 6233 483.559C6228.12 470.538 6217.22 459.958 6200.29 451.82ZM6806.73 641.762C6832.45 666.176 6845.31 697.1 6845.31 734.535C6845.31 771.645 6830.01 803.546 6799.41 830.238C6768.81 856.605 6726.49 869.789 6672.46 869.789H6659.27C6597.75 869.789 6550.88 862.139 6518.65 846.84C6500.74 838.376 6491.79 819.496 6491.79 790.199V777.992C6491.79 740.557 6498.79 721.84 6512.79 721.84C6524.51 721.84 6538.34 732.908 6554.29 755.043C6570.24 776.853 6583.59 791.501 6594.33 798.988C6615.17 813.311 6639.58 820.473 6667.57 820.473C6695.89 820.473 6716.73 814.613 6730.07 802.895C6743.42 790.85 6750.09 775.062 6750.09 755.531C6750.09 736 6738.7 717.934 6715.91 701.332C6703.87 692.543 6675.71 678.708 6631.44 659.828C6587.5 640.948 6554.62 621.254 6532.81 600.746C6511 579.913 6500.09 550.616 6500.09 512.855C6500.09 475.095 6515.88 444.496 6547.46 421.059C6579.03 397.296 6617.93 385.414 6664.16 385.414H6677.34C6737.89 385.414 6780.37 392.576 6804.78 406.898C6817.48 414.385 6823.82 435.219 6823.82 469.398C6823.82 503.578 6815.69 520.668 6799.41 520.668C6790.3 520.668 6777.76 510.577 6761.81 490.395C6746.19 469.887 6731.86 455.401 6718.84 446.938C6705.82 438.148 6687.76 433.754 6664.64 433.754C6641.86 433.754 6623.79 438.962 6610.45 449.379C6597.1 459.796 6590.43 474.932 6590.43 494.789C6590.43 514.32 6602.63 531.898 6627.05 547.523C6633.23 551.755 6660.25 564.288 6708.1 585.121C6755.95 605.954 6788.83 624.835 6806.73 641.762ZM7108.49 234.047C7108.49 248.37 7102.31 261.716 7089.94 274.086C7077.89 286.13 7065.85 292.152 7053.8 292.152C7051.2 292.803 7049.08 293.129 7047.46 293.129L7036.71 294.105C7020.44 294.105 7005.79 288.734 6992.77 277.992C6980.07 267.25 6973.73 253.415 6973.73 236.488V227.699C6973.73 210.772 6980.4 196.612 6993.75 185.219C7007.42 173.5 7023.04 167.641 7040.62 167.641H7043.06L7059.66 169.594C7069.76 169.594 7080.17 175.128 7090.91 186.195C7101.98 196.938 7107.52 207.842 7107.52 218.91L7108.49 223.305V234.047ZM6953.22 451.82C6936.29 443.682 6927.83 436.033 6927.83 428.871C6927.83 421.71 6931.25 416.013 6938.08 411.781C6961.85 397.458 6999.44 390.297 7050.88 390.297H7065.04C7082.61 390.297 7092.54 398.435 7094.82 414.711C7096.12 423.5 7096.77 482.745 7096.77 592.445C7096.77 701.82 7099.05 764.646 7103.61 780.922C7108.17 796.872 7119.07 809.242 7136.32 818.031C7153.58 826.495 7162.2 835.121 7162.2 843.91C7162.2 856.28 7121.84 862.465 7041.11 862.465L7026.46 862.953H6966.89C6943.13 862.953 6931.25 857.094 6931.25 845.375C6931.25 835.609 6938.41 826.169 6952.73 817.055C6967.38 807.94 6977.47 797.849 6983 786.781C6989.19 774.737 6992.28 746.579 6992.28 702.309L6992.77 686.684V671.547L6993.26 648.598V633.461L6993.75 618.324C6993.75 541.176 6991.14 496.254 6985.93 483.559C6981.05 470.538 6970.15 459.958 6953.22 451.82ZM7347.75 609.535V627.602C7347.75 682.94 7358.49 728.839 7379.98 765.297C7390.07 782.549 7402.93 796.221 7418.55 806.312C7434.18 816.404 7449.96 821.449 7465.91 821.449H7475.68C7505.3 821.449 7530.86 807.126 7552.34 778.48C7574.15 749.509 7585.05 708.493 7585.05 655.434V620.766C7585.05 568.357 7574.15 523.923 7552.34 487.465C7530.86 450.681 7503.51 432.289 7470.31 432.289H7455.17C7425.22 432.289 7399.83 448.402 7379 480.629C7358.17 512.855 7347.75 555.824 7347.75 609.535ZM7702.73 611.488V635.902C7702.73 661.618 7697.52 689.776 7687.11 720.375C7665.3 784.177 7621.84 828.773 7556.73 854.164C7528.41 865.232 7501.07 870.766 7474.7 870.766H7458.59C7396.42 870.766 7344.49 849.932 7302.83 808.266C7283.95 789.385 7268.65 764.483 7256.93 733.559C7245.21 702.634 7239.35 669.757 7239.35 634.926V626.625C7239.35 595.049 7244.89 563.148 7255.95 530.922C7277.44 468.096 7319.59 424.477 7382.42 400.062C7410.74 388.995 7437.92 383.461 7463.96 383.461H7488.38C7517.35 383.461 7545.83 389.971 7573.82 402.992C7626.88 427.732 7663.83 467.12 7684.66 521.156C7696.71 553.057 7702.73 583.168 7702.73 611.488ZM7858 857.094C7812.11 857.094 7789.16 850.583 7789.16 837.562C7789.16 826.82 7795.18 818.031 7807.22 811.195C7829.03 798.826 7841.73 787.758 7845.31 777.992C7848.89 767.901 7850.68 720.863 7850.68 636.879C7850.68 552.569 7848.08 503.253 7842.87 488.93C7837.98 474.281 7828.87 462.237 7815.52 452.797C7802.18 443.357 7795.5 435.707 7795.5 429.848C7795.5 423.988 7799.9 418.454 7808.69 413.246C7829.2 401.202 7861.75 395.18 7906.34 395.18C7919.69 395.18 7930.11 399.737 7937.59 408.852C7940.2 412.107 7943.78 419.268 7948.34 430.336C7953.22 441.078 7956.47 446.449 7958.1 446.449C7964.29 446.124 7973.89 441.729 7986.91 433.266C8031.83 402.992 8072.52 387.855 8108.98 387.855H8109.96H8125.58C8151.95 387.855 8175.71 394.366 8196.87 407.387C8218.03 420.408 8234.31 439.939 8245.7 465.98C8257.42 492.022 8263.28 548.826 8263.28 636.391C8263.28 723.63 8265.07 772.458 8268.65 782.875C8272.55 792.966 8283.13 802.406 8300.39 811.195C8317.96 819.984 8326.75 828.611 8326.75 837.074C8326.75 851.723 8280.53 859.047 8188.08 859.047H8173.43C8144.14 859.047 8129.49 852.048 8129.49 838.051C8129.49 835.121 8133.07 828.122 8140.23 817.055C8147.39 805.661 8152.27 793.129 8154.88 779.457C8157.48 765.785 8158.79 720.863 8158.79 644.691C8158.79 568.194 8154.07 519.04 8144.62 497.23C8131.6 467.283 8109.96 452.309 8079.68 452.309C8057.55 452.309 8036.06 457.517 8015.23 467.934C7994.72 478.025 7979.75 492.51 7970.31 511.391C7961.19 529.945 7956.64 574.704 7956.64 645.668C7956.64 716.306 7958.59 759.112 7962.5 774.086C7966.4 788.734 7971.12 800.616 7976.66 809.73L7994.72 839.027C7994.72 851.723 7969.17 858.07 7918.06 858.07L7888.28 857.094H7858ZM8871.68 235.512C8857.03 235.512 8848.08 241.046 8844.82 252.113C8842.87 258.949 8841.89 289.711 8841.89 344.398V439.125C8841.89 459.307 8843.68 471.84 8847.26 476.723C8850.84 481.28 8861.91 483.559 8880.46 483.559H8900.97L8905.37 483.07L8934.66 481.605C8937.59 481.28 8940.36 481.117 8942.96 481.117C8974.21 481.117 9000.42 469.561 9021.58 446.449C9042.74 423.337 9053.32 395.342 9053.32 362.465V349.281C9053.32 315.753 9041.76 288.572 9018.65 267.738C8995.86 246.579 8967.87 236 8934.66 236L8925.88 235.023L8913.18 234.535H8883.88C8878.67 235.186 8874.61 235.512 8871.68 235.512ZM8930.27 533.852H8888.28C8863.21 533.852 8849.05 537.27 8845.8 544.105C8842.87 550.941 8841.4 571.612 8841.4 606.117V746.254C8841.4 776.527 8844.98 795.082 8852.14 801.918C8859.63 808.428 8880.14 811.684 8913.67 811.684H8942.48C8985.45 811.684 9020.28 800.453 9046.97 777.992C9073.66 755.206 9087.01 725.258 9087.01 688.148V662.758C9087.01 622.719 9072.36 591.306 9043.06 568.52C9013.77 545.408 8976.17 533.852 8930.27 533.852ZM8919.04 182.289C9034.92 182.289 9109.31 212.725 9142.18 273.598C9153.9 295.082 9159.76 319.822 9159.76 347.816C9159.76 375.486 9153.09 399.9 9139.74 421.059C9126.72 442.217 9115 457.029 9104.59 465.492C9094.49 473.63 9084.08 480.954 9073.34 487.465C9062.92 493.65 9057.71 497.719 9057.71 499.672C9057.71 501.625 9070.73 509.275 9096.77 522.621C9123.14 535.642 9143.97 551.104 9159.27 569.008C9186.62 601.56 9200.29 635.089 9200.29 669.594V682.289C9200.29 739.581 9176.85 785.154 9129.98 819.008C9113.05 831.378 9089.29 842.283 9058.69 851.723C9028.41 860.837 8992.28 865.395 8950.29 865.395H8898.53L8885.84 864.906C8877.37 864.581 8868.75 864.418 8859.96 864.418L8847.26 863.93C8838.8 863.604 8830.33 863.441 8821.87 863.441L8809.18 862.953C8800.71 862.628 8792.25 862.465 8783.79 862.465H8746.19C8689.55 862.465 8661.23 857.094 8661.23 846.352C8661.23 835.284 8669.85 825.03 8687.11 815.59C8704.68 805.824 8716.08 789.385 8721.29 766.273C8726.82 742.836 8729.59 688.474 8729.59 603.188V442.543L8728.61 391.762C8728.28 383.298 8728.12 363.116 8728.12 331.215C8728.12 299.314 8725.03 277.016 8718.84 264.32C8712.98 251.299 8701.1 240.557 8683.2 232.094C8665.3 223.63 8656.34 216.143 8656.34 209.633C8656.34 200.193 8660.9 193.845 8670.02 190.59C8679.13 187.009 8707.12 185.219 8754 185.219L8867.28 182.289H8919.04ZM9403.41 609.535V627.602C9403.41 682.94 9414.16 728.839 9435.64 765.297C9445.73 782.549 9458.59 796.221 9474.21 806.312C9489.84 816.404 9505.63 821.449 9521.58 821.449H9531.34C9560.97 821.449 9586.52 807.126 9608 778.48C9629.81 749.509 9640.72 708.493 9640.72 655.434V620.766C9640.72 568.357 9629.81 523.923 9608 487.465C9586.52 450.681 9559.18 432.289 9525.97 432.289H9510.84C9480.89 432.289 9455.5 448.402 9434.66 480.629C9413.83 512.855 9403.41 555.824 9403.41 609.535ZM9758.39 611.488V635.902C9758.39 661.618 9753.19 689.776 9742.77 720.375C9720.96 784.177 9677.5 828.773 9612.4 854.164C9584.08 865.232 9556.73 870.766 9530.37 870.766H9514.25C9452.08 870.766 9400.16 849.932 9358.49 808.266C9339.61 789.385 9324.31 764.483 9312.59 733.559C9300.88 702.634 9295.02 669.757 9295.02 634.926V626.625C9295.02 595.049 9300.55 563.148 9311.62 530.922C9333.1 468.096 9375.26 424.477 9438.08 400.062C9466.4 388.995 9493.58 383.461 9519.62 383.461H9544.04C9573.01 383.461 9601.49 389.971 9629.49 402.992C9682.55 427.732 9719.49 467.12 9740.33 521.156C9752.37 553.057 9758.39 583.168 9758.39 611.488ZM9951.27 609.535V627.602C9951.27 682.94 9962.01 728.839 9983.49 765.297C9993.58 782.549 10006.4 796.221 10022.1 806.312C10037.7 816.404 10053.5 821.449 10069.4 821.449H10079.2C10108.8 821.449 10134.4 807.126 10155.9 778.48C10177.7 749.509 10188.6 708.493 10188.6 655.434V620.766C10188.6 568.357 10177.7 523.923 10155.9 487.465C10134.4 450.681 10107 432.289 10073.8 432.289H10058.7C10028.7 432.289 10003.3 448.402 9982.52 480.629C9961.68 512.855 9951.27 555.824 9951.27 609.535ZM10306.2 611.488V635.902C10306.2 661.618 10301 689.776 10290.6 720.375C10268.8 784.177 10225.4 828.773 10160.2 854.164C10131.9 865.232 10104.6 870.766 10078.2 870.766H10062.1C9999.93 870.766 9948.01 849.932 9906.34 808.266C9887.46 789.385 9872.16 764.483 9860.45 733.559C9848.73 702.634 9842.87 669.757 9842.87 634.926V626.625C9842.87 595.049 9848.4 563.148 9859.47 530.922C9880.95 468.096 9923.11 424.477 9985.93 400.062C10014.3 388.995 10041.4 383.461 10067.5 383.461H10091.9C10120.9 383.461 10149.3 389.971 10177.3 402.992C10230.4 427.732 10267.3 467.12 10288.2 521.156C10300.2 553.057 10306.2 583.168 10306.2 611.488ZM10590.4 653.969C10570.6 653.969 10560.6 682.615 10560.6 739.906C10560.6 760.089 10565.4 779.783 10574.8 798.988L10588 821.449C10592.5 829.587 10594.8 835.447 10594.8 839.027C10594.8 850.746 10562.1 856.605 10496.7 856.605C10431.2 856.605 10398.5 851.072 10398.5 840.004C10398.5 837.074 10403.9 828.285 10414.6 813.637C10425.7 798.663 10433.7 781.247 10438.6 761.391C10443.8 741.208 10446.4 694.496 10446.4 621.254L10446.9 602.699C10447.5 586.098 10447.8 573.728 10447.8 565.59L10448.8 528.48L10449.3 490.883V415.199C10449.3 321.124 10447.5 265.622 10443.9 248.695C10440.7 231.443 10434.7 218.422 10425.9 209.633L10415.1 201.332L10403.4 194.008C10394 187.172 10389.3 180.824 10389.3 174.965C10389.3 168.78 10393.2 163.409 10401 158.852C10423.1 146.156 10457.3 139.809 10503.5 139.809H10520.1C10538.7 139.809 10550.2 152.992 10554.8 179.359C10556.4 189.125 10557.2 262.042 10557.2 398.109L10556.7 454.262C10556.7 498.858 10556.9 522.621 10557.2 525.551C10560.8 556.475 10569.3 571.938 10582.6 571.938C10596 571.938 10618.9 554.359 10651.5 519.203C10684 483.721 10700.3 458.493 10700.3 443.52L10698.8 425.941C10698.8 414.874 10703.1 407.061 10711.5 402.504C10720.3 397.947 10738.4 395.668 10765.7 395.668C10827.9 395.668 10859 402.341 10859 415.688C10859 416.013 10830.2 439.288 10772.6 485.512C10714.9 531.736 10686.1 564.776 10686.1 584.633C10686.1 604.49 10725.7 660.642 10804.8 753.09C10822 773.272 10840.9 790.688 10861.4 805.336C10882.3 819.984 10892.7 829.75 10892.7 834.633C10892.7 850.583 10868.6 858.559 10820.4 858.559H10784.8C10753.5 858.559 10731.1 849.607 10717.4 831.703L10697.8 784.34C10689.7 764.809 10676.2 741.697 10657.3 715.004C10628.3 674.314 10606.1 653.969 10590.4 653.969ZM11161.7 653.969C11141.9 653.969 11131.9 682.615 11131.9 739.906C11131.9 760.089 11136.6 779.783 11146.1 798.988L11159.3 821.449C11163.8 829.587 11166.1 835.447 11166.1 839.027C11166.1 850.746 11133.4 856.605 11068 856.605C11002.5 856.605 10969.8 851.072 10969.8 840.004C10969.8 837.074 10975.2 828.285 10985.9 813.637C10997 798.663 11005 781.247 11009.9 761.391C11015.1 741.208 11017.7 694.496 11017.7 621.254L11018.2 602.699C11018.8 586.098 11019.1 573.728 11019.1 565.59L11020.1 528.48L11020.6 490.883V415.199C11020.6 321.124 11018.8 265.622 11015.2 248.695C11012 231.443 11006 218.422 10997.2 209.633L10986.4 201.332L10974.7 194.008C10965.3 187.172 10960.5 180.824 10960.5 174.965C10960.5 168.78 10964.4 163.409 10972.3 158.852C10994.4 146.156 11028.6 139.809 11074.8 139.809H11091.4C11110 139.809 11121.5 152.992 11126.1 179.359C11127.7 189.125 11128.5 262.042 11128.5 398.109L11128 454.262C11128 498.858 11128.2 522.621 11128.5 525.551C11132.1 556.475 11140.6 571.938 11153.9 571.938C11167.2 571.938 11190.2 554.359 11222.8 519.203C11255.3 483.721 11271.6 458.493 11271.6 443.52L11270.1 425.941C11270.1 414.874 11274.3 407.061 11282.8 402.504C11291.6 397.947 11309.7 395.668 11337 395.668C11399.2 395.668 11430.3 402.341 11430.3 415.688C11430.3 416.013 11401.5 439.288 11343.8 485.512C11286.2 531.736 11257.4 564.776 11257.4 584.633C11257.4 604.49 11297 660.642 11376.1 753.09C11393.3 773.272 11412.2 790.688 11432.7 805.336C11453.5 819.984 11464 829.75 11464 834.633C11464 850.583 11439.9 858.559 11391.7 858.559H11356.1C11324.8 858.559 11302.3 849.607 11288.7 831.703L11269.1 784.34C11261 764.809 11247.5 741.697 11228.6 715.004C11199.6 674.314 11177.3 653.969 11161.7 653.969ZM11832.1 543.617V528.48C11832.1 504.392 11823.5 482.745 11806.2 463.539C11789 444.008 11767.8 434.242 11742.8 434.242H11733.5C11728.9 434.893 11725.8 435.219 11724.2 435.219C11701.4 435.219 11679.8 448.24 11659.3 474.281C11639.1 500.323 11629 528.155 11629 557.777V564.125C11629 574.542 11635.2 579.75 11647.6 579.75C11652.4 580.727 11655 581.215 11655.4 581.215L11666.6 581.703H11669.5L11672.9 581.215L11767.2 575.844L11784.8 573.891C11816.3 573.891 11832.1 563.799 11832.1 543.617ZM11629 673.012C11629 710.121 11643 741.208 11671 766.273C11699 791.339 11734.5 803.871 11777.4 803.871C11794.7 803.871 11810.3 801.43 11824.3 796.547C11838.6 791.339 11854.1 785.154 11870.7 777.992C11887.6 770.831 11898.2 767.25 11902.4 767.25C11915.5 767.25 11922 774.249 11922 788.246C11922 807.126 11897.9 827.309 11849.7 848.793C11818.5 862.79 11784.9 869.789 11749.1 869.789H11738.4C11677.2 869.789 11626.4 851.234 11586 814.125C11564.2 793.943 11547.3 768.227 11535.2 736.977C11523.2 705.401 11517.2 671.547 11517.2 635.414L11517.7 624.184V612.953C11517.7 581.703 11524.8 550.941 11539.2 520.668C11553.8 490.395 11571.2 465.492 11591.4 445.961C11634 404.945 11684.7 384.275 11743.3 383.949C11831.8 383.949 11890.7 418.454 11920 487.465C11929.1 509.275 11933.7 529.294 11933.7 547.523V557.289C11933.7 579.75 11924.4 594.887 11905.9 602.699C11887.3 610.186 11843.5 616.371 11774.5 621.254C11705.5 626.137 11668.1 629.392 11662.2 631.02C11640.1 636.553 11629 650.551 11629 673.012ZM12331.1 543.617V528.48C12331.1 504.392 12322.5 482.745 12305.3 463.539C12288 444.008 12266.9 434.242 12241.8 434.242H12232.5C12228 434.893 12224.9 435.219 12223.2 435.219C12200.5 435.219 12178.8 448.24 12158.3 474.281C12138.1 500.323 12128 528.155 12128 557.777V564.125C12128 574.542 12134.2 579.75 12146.6 579.75C12151.5 580.727 12154.1 581.215 12154.4 581.215L12165.6 581.703H12168.6L12172 581.215L12266.2 575.844L12283.8 573.891C12315.4 573.891 12331.1 563.799 12331.1 543.617ZM12128 673.012C12128 710.121 12142 741.208 12170 766.273C12198 791.339 12233.5 803.871 12276.5 803.871C12293.7 803.871 12309.3 801.43 12323.3 796.547C12337.7 791.339 12353.1 785.154 12369.7 777.992C12386.6 770.831 12397.2 767.25 12401.5 767.25C12414.5 767.25 12421 774.249 12421 788.246C12421 807.126 12396.9 827.309 12348.7 848.793C12317.5 862.79 12283.9 869.789 12248.1 869.789H12237.4C12176.2 869.789 12125.4 851.234 12085.1 814.125C12063.2 793.943 12046.3 768.227 12034.3 736.977C12022.2 705.401 12016.2 671.547 12016.2 635.414L12016.7 624.184V612.953C12016.7 581.703 12023.9 550.941 12038.2 520.668C12052.8 490.395 12070.2 465.492 12090.4 445.961C12133.1 404.945 12183.7 384.275 12242.3 383.949C12330.8 383.949 12389.7 418.454 12419 487.465C12428.2 509.275 12432.7 529.294 12432.7 547.523V557.289C12432.7 579.75 12423.4 594.887 12404.9 602.699C12386.3 610.186 12342.5 616.371 12273.5 621.254C12204.5 626.137 12167.1 629.392 12161.2 631.02C12139.1 636.553 12128 650.551 12128 673.012ZM12901 643.227V614.418C12901 562.009 12890.2 520.18 12868.7 488.93C12847.3 457.68 12820.2 442.055 12787.7 442.055H12782.8C12764.9 442.055 12747.5 447.1 12730.6 457.191C12713.6 466.957 12700.6 479.49 12691.5 494.789C12682.7 510.089 12678.3 555.173 12678.3 630.043V671.547L12678.8 676.918V697.426L12679.3 702.309V712.562C12679.9 719.724 12680.3 724.932 12680.3 728.188C12680.3 755.857 12689.1 777.504 12706.6 793.129C12724.5 808.428 12748.5 816.078 12778.4 816.078H12783.3C12819.1 816.078 12847.6 799.639 12868.7 766.762C12890.2 733.884 12901 692.706 12901 643.227ZM12705.7 853.188C12688.7 853.188 12680.3 874.997 12680.3 918.617C12680.3 962.562 12683.4 990.395 12689.5 1002.11C12696.1 1014.16 12706.3 1025.06 12720.3 1034.83C12734.6 1044.59 12741.8 1052.89 12741.8 1059.73C12741.8 1074.38 12720.6 1081.7 12678.3 1081.7H12629.5C12555.3 1081.7 12518.2 1074.22 12518.2 1059.24C12518.2 1054.68 12527.6 1043.29 12546.5 1025.06C12556.6 1015.3 12564.5 995.44 12570.4 965.492C12576.3 935.87 12579.2 879.555 12579.2 796.547V593.91L12578.2 541.664C12578.2 509.763 12574 486.488 12565.5 471.84C12562.3 466.306 12553.8 458.819 12540.1 449.379C12526.5 439.613 12519.6 431.312 12519.6 424.477C12519.6 417.641 12523.5 412.27 12531.3 408.363C12556.7 395.993 12590.3 389.809 12631.9 389.809C12642.7 389.809 12653.6 396.319 12664.6 409.34C12676 422.361 12682.4 428.871 12683.7 428.871C12688.9 428.871 12699.3 424.477 12714.9 415.688C12730.9 406.573 12739.4 401.69 12740.3 401.039C12768.3 388.018 12792.6 381.508 12813.1 381.508H12838.5C12856.7 381.508 12877.4 386.553 12900.5 396.645C12944.8 415.85 12976.5 451.82 12995.7 504.555C13007.1 535.479 13012.8 565.59 13012.8 594.887V622.23C13012.8 652.504 13006.6 683.591 12994.2 715.492C12969.8 778.643 12928.5 821.612 12870.2 844.398C12845.5 854.164 12816.7 859.047 12783.8 859.047L12705.7 853.188ZM13286.2 234.047C13286.2 248.37 13280 261.716 13267.7 274.086C13255.6 286.13 13243.6 292.152 13231.5 292.152C13228.9 292.803 13226.8 293.129 13225.2 293.129L13214.4 294.105C13198.2 294.105 13183.5 288.734 13170.5 277.992C13157.8 267.25 13151.5 253.415 13151.5 236.488V227.699C13151.5 210.772 13158.1 196.612 13171.5 185.219C13185.2 173.5 13200.8 167.641 13218.4 167.641H13220.8L13237.4 169.594C13247.5 169.594 13257.9 175.128 13268.6 186.195C13279.7 196.938 13285.2 207.842 13285.2 218.91L13286.2 223.305V234.047ZM13131 451.82C13114 443.682 13105.6 436.033 13105.6 428.871C13105.6 421.71 13109 416.013 13115.8 411.781C13139.6 397.458 13177.2 390.297 13228.6 390.297H13242.8C13260.3 390.297 13270.3 398.435 13272.6 414.711C13273.9 423.5 13274.5 482.745 13274.5 592.445C13274.5 701.82 13276.8 764.646 13281.3 780.922C13285.9 796.872 13296.8 809.242 13314.1 818.031C13331.3 826.495 13339.9 835.121 13339.9 843.91C13339.9 856.28 13299.6 862.465 13218.8 862.465L13204.2 862.953H13144.6C13120.9 862.953 13109 857.094 13109 845.375C13109 835.609 13116.1 826.169 13130.5 817.055C13145.1 807.94 13155.2 797.849 13160.7 786.781C13166.9 774.737 13170 746.579 13170 702.309L13170.5 686.684V671.547L13171 648.598V633.461L13171.5 618.324C13171.5 541.176 13168.9 496.254 13163.7 483.559C13158.8 470.538 13147.9 459.958 13131 451.82ZM13487.9 857.094C13442 857.094 13419 850.583 13419 837.562C13419 826.82 13425.1 818.031 13437.1 811.195C13458.9 798.826 13471.6 787.758 13475.2 777.992C13478.8 767.901 13480.6 720.863 13480.6 636.879C13480.6 552.569 13478 503.253 13472.8 488.93C13467.9 474.281 13458.8 462.237 13445.4 452.797C13432.1 443.357 13425.4 435.707 13425.4 429.848C13425.4 423.988 13429.8 418.454 13438.6 413.246C13459.1 401.202 13491.6 395.18 13536.2 395.18C13549.6 395.18 13560 399.737 13567.5 408.852C13570.1 412.107 13573.7 419.268 13578.2 430.336C13583.1 441.078 13586.4 446.449 13588 446.449C13594.2 446.124 13603.8 441.729 13616.8 433.266C13661.7 402.992 13702.4 387.855 13738.9 387.855H13739.8H13755.5C13781.8 387.855 13805.6 394.366 13826.8 407.387C13847.9 420.408 13864.2 439.939 13875.6 465.98C13887.3 492.022 13893.2 548.826 13893.2 636.391C13893.2 723.63 13895 772.458 13898.5 782.875C13902.4 792.966 13913 802.406 13930.3 811.195C13947.8 819.984 13956.6 828.611 13956.6 837.074C13956.6 851.723 13910.4 859.047 13818 859.047H13803.3C13774 859.047 13759.4 852.048 13759.4 838.051C13759.4 835.121 13763 828.122 13770.1 817.055C13777.3 805.661 13782.2 793.129 13784.8 779.457C13787.4 765.785 13788.7 720.863 13788.7 644.691C13788.7 568.194 13783.9 519.04 13774.5 497.23C13761.5 467.283 13739.8 452.309 13709.6 452.309C13687.4 452.309 13665.9 457.517 13645.1 467.934C13624.6 478.025 13609.6 492.51 13600.2 511.391C13591.1 529.945 13586.5 574.704 13586.5 645.668C13586.5 716.306 13588.5 759.112 13592.4 774.086C13596.3 788.734 13601 800.616 13606.5 809.73L13624.6 839.027C13624.6 851.723 13599.1 858.07 13547.9 858.07L13518.2 857.094H13487.9ZM14231.5 415.199H14218.8C14201.6 415.199 14184.8 425.128 14168.6 444.984C14152.3 464.841 14144.1 487.953 14144.1 514.32L14143.2 522.133L14142.7 534.34V547.035L14143.2 550.941C14143.2 584.796 14150.5 612.139 14165.1 632.973C14179.8 653.806 14201.6 664.223 14230.6 664.223H14234C14256.4 664.223 14275.6 655.434 14291.6 637.855C14307.5 620.277 14315.5 597.003 14315.5 568.031V548.988C14314.5 541.176 14314.1 534.828 14314.1 529.945C14314.1 499.021 14305.4 472.165 14288.2 449.379C14271.3 426.592 14252.4 415.199 14231.5 415.199ZM14188.1 849.281C14165.3 849.281 14145.9 857.257 14130 873.207C14114 889.158 14106.1 909.177 14106.1 933.266V937.172C14106.1 964.841 14117 986.651 14138.8 1002.6C14160.6 1018.55 14190.4 1026.53 14228.1 1026.53H14240.8C14286.4 1026.53 14323 1016.11 14350.7 995.277C14378.3 974.444 14392.2 950.03 14392.2 922.035L14391.7 918.129C14391.7 899.574 14384 884.6 14368.7 873.207C14353.4 862.139 14335.4 856.605 14314.5 856.605C14301.5 854.978 14292.1 854.164 14286.2 854.164L14269.6 852.699H14261.3L14232 850.746L14212 849.281H14188.1ZM14488.4 409.828C14488.4 428.383 14476.7 440.264 14453.2 445.473C14429.8 450.355 14418.1 459.958 14418.1 474.281L14419.5 484.535L14421.5 496.254L14423.9 508.949C14425.5 519.691 14426.4 534.828 14426.4 554.359C14426.4 573.891 14420.8 594.073 14409.8 614.906C14378.8 672.523 14319.3 704.099 14231.1 709.633C14202.7 711.586 14184.7 714.027 14176.9 716.957C14159.9 723.467 14151.5 734.372 14151.5 749.672C14151.5 764.971 14164 775.714 14189.1 781.898C14192.6 782.875 14225 785.967 14286.2 791.176C14347.4 796.059 14388.3 803.708 14408.8 814.125C14452.1 835.609 14473.7 866.697 14473.7 907.387C14473.7 960.772 14449.8 1004.23 14401.9 1037.76C14354.4 1071.29 14292.1 1088.05 14214.9 1088.05C14160.6 1088.05 14115.3 1077.63 14079.2 1056.8C14062.6 1047.36 14049.1 1034.99 14038.7 1019.69C14028.6 1004.72 14023.5 989.092 14023.5 972.816C14023.5 943.845 14032.2 919.757 14049.4 900.551C14077.1 869.952 14090.9 853.676 14090.9 851.723C14090.9 849.77 14084.9 841.143 14072.8 825.844C14060.8 810.544 14054.8 794.594 14054.8 777.992C14054.8 761.391 14062.6 743.487 14078.2 724.281C14094.2 704.75 14102.1 693.845 14102.1 691.566C14102.1 689.288 14092.4 672.686 14072.8 641.762C14053.3 610.512 14043.6 580.889 14043.6 552.895C14043.6 524.9 14049.6 499.997 14061.6 478.188C14095.8 416.013 14159.4 384.926 14252.5 384.926H14266.7L14334.6 389.32L14359.5 390.297C14367.9 390.622 14376.6 390.785 14385.3 390.785L14437.1 387.367C14471.3 387.367 14488.4 394.854 14488.4 409.828ZM15092.9 201.332C15092.9 207.517 15083.4 216.632 15064.5 228.676C15046 240.72 15034.4 257.159 15029.9 277.992C15025.6 298.5 15023.5 380.368 15023.5 523.598C15023.5 666.501 15026.1 748.37 15031.3 769.203C15036.9 789.711 15048.8 805.173 15067 815.59C15085.5 825.681 15094.8 835.121 15094.8 843.91C15094.8 855.954 15080 861.977 15050.4 861.977L15039.6 861.488L15017.2 861C15009.7 860.674 15002.2 860.512 14994.7 860.512L14973.2 859.535H14907.3C14854.3 859.535 14827.7 854.815 14827.7 845.375V838.539C14827.7 832.354 14838.1 823.24 14859 811.195C14880.1 798.826 14893.3 781.573 14898.5 759.438C14903.7 736.977 14906.3 657.387 14906.3 520.668C14906.3 383.624 14903.3 303.708 14897.1 280.922C14890.9 257.81 14881.1 242.673 14867.8 235.512C14841.1 220.863 14827.7 209.796 14827.7 202.309C14827.7 189.613 14878 183.266 14978.6 183.266L15032.3 182.289H15064.1C15083.3 182.289 15092.9 188.637 15092.9 201.332ZM15258.4 857.094C15212.5 857.094 15189.5 850.583 15189.5 837.562C15189.5 826.82 15195.6 818.031 15207.6 811.195C15229.4 798.826 15242.1 787.758 15245.7 777.992C15249.3 767.901 15251.1 720.863 15251.1 636.879C15251.1 552.569 15248.5 503.253 15243.3 488.93C15238.4 474.281 15229.3 462.237 15215.9 452.797C15202.6 443.357 15195.9 435.707 15195.9 429.848C15195.9 423.988 15200.3 418.454 15209.1 413.246C15229.6 401.202 15262.1 395.18 15306.7 395.18C15320.1 395.18 15330.5 399.737 15338 408.852C15340.6 412.107 15344.2 419.268 15348.7 430.336C15353.6 441.078 15356.9 446.449 15358.5 446.449C15364.7 446.124 15374.3 441.729 15387.3 433.266C15432.2 402.992 15472.9 387.855 15509.4 387.855H15510.3H15526C15552.3 387.855 15576.1 394.366 15597.3 407.387C15618.4 420.408 15634.7 439.939 15646.1 465.98C15657.8 492.022 15663.7 548.826 15663.7 636.391C15663.7 723.63 15665.5 772.458 15669 782.875C15672.9 792.966 15683.5 802.406 15700.8 811.195C15718.4 819.984 15727.1 828.611 15727.1 837.074C15727.1 851.723 15680.9 859.047 15588.5 859.047H15573.8C15544.5 859.047 15529.9 852.048 15529.9 838.051C15529.9 835.121 15533.5 828.122 15540.6 817.055C15547.8 805.661 15552.7 793.129 15555.3 779.457C15557.9 765.785 15559.2 720.863 15559.2 644.691C15559.2 568.194 15554.5 519.04 15545 497.23C15532 467.283 15510.3 452.309 15480.1 452.309C15457.9 452.309 15436.5 457.517 15415.6 467.934C15395.1 478.025 15380.1 492.51 15370.7 511.391C15361.6 529.945 15357 574.704 15357 645.668C15357 716.306 15359 759.112 15362.9 774.086C15366.8 788.734 15371.5 800.616 15377 809.73L15395.1 839.027C15395.1 851.723 15369.6 858.07 15318.5 858.07L15288.7 857.094H15258.4ZM16155.9 526.039C16142.2 526.039 16123.1 511.879 16098.7 483.559C16074.6 455.238 16046.6 441.078 16014.7 441.078C15983.2 441.078 15956.6 456.866 15935.2 488.441C15913.7 519.691 15902.9 564.125 15902.9 621.742C15902.9 679.359 15916.1 724.444 15942.5 756.996C15969.2 789.223 16003.8 805.336 16046.5 805.336C16069.9 805.336 16089.4 802.406 16105.1 796.547C16121 790.688 16135.7 784.503 16149 777.992C16162.7 771.156 16172.3 767.738 16177.8 767.738C16187.3 767.738 16192 773.923 16192 786.293C16192 805.173 16172.9 823.891 16134.9 842.445C16096.8 861 16059.8 870.277 16024 870.277C15954.4 870.277 15898.4 848.467 15856.1 804.848C15838.8 786.944 15824.3 763.995 15812.6 736C15800.9 707.68 15795 677.406 15795 645.18V621.254C15795 620.603 15795 619.789 15795 618.812C15795 618.161 15795 617.51 15795 616.859C15795 588.539 15801.4 559.242 15814.1 528.969C15839.1 469.724 15879.5 428.708 15935.2 405.922C15967.4 392.901 15999.4 386.391 16031.3 386.391H16042.6C16086.5 386.391 16123.8 394.04 16154.4 409.34C16179.1 421.71 16191.5 442.38 16191.5 471.352C16191.5 490.557 16187.6 504.555 16179.8 513.344C16172.3 521.807 16164.3 526.039 16155.9 526.039Z" fill="black"/>
</svg>
