<svg width="9338" height="8471" viewBox="0 0 9338 8471" fill="none" xmlns="http://www.w3.org/2000/svg">
<path d="M4669 0L8712.47 6353.25H625.527L4669 0Z" fill="white"/>
<rect x="3312" y="2138" width="2714" height="610.38" fill="white"/>
<path d="M3938.3 2296.8C3930.97 2296.8 3926.5 2299.57 3924.87 2305.11C3923.89 2308.52 3923.41 2323.91 3923.41 2351.25L3923.41 2398.61C3923.41 2408.7 3924.31 2414.97 3926.1 2417.41C3927.89 2419.69 3933.42 2420.83 3942.7 2420.82L3952.96 2420.82L3955.15 2420.57L3969.8 2419.84C3971.27 2419.67 3972.65 2419.59 3973.95 2419.59C3989.58 2419.59 4002.68 2413.8 4013.26 2402.25C4023.84 2390.69 4029.12 2376.69 4029.12 2360.25L4029.12 2353.66C4029.12 2336.89 4023.34 2323.3 4011.78 2312.89C4000.39 2302.31 3986.39 2297.03 3969.79 2297.03L3965.4 2296.55L3959.05 2296.31L3944.4 2296.31C3941.8 2296.64 3939.76 2296.8 3938.3 2296.8ZM3967.61 2445.96L3946.61 2445.97C3934.08 2445.97 3927 2447.68 3925.37 2451.1C3923.9 2454.52 3923.17 2464.86 3923.17 2482.11L3923.18 2552.18C3923.18 2567.31 3924.97 2576.59 3928.55 2580.01C3932.3 2583.26 3942.55 2584.89 3959.31 2584.88L3973.72 2584.88C3995.2 2584.87 4012.62 2579.25 4025.96 2568.01C4039.31 2556.61 4045.98 2541.64 4045.98 2523.08L4045.98 2510.39C4045.98 2490.37 4038.65 2474.67 4024 2463.28C4009.35 2451.73 3990.55 2445.95 3967.61 2445.96ZM3961.98 2270.18C4019.92 2270.16 4057.11 2285.37 4073.55 2315.8C4079.41 2326.54 4082.34 2338.91 4082.34 2352.91C4082.35 2366.74 4079.01 2378.95 4072.34 2389.53C4065.83 2400.11 4059.97 2407.52 4054.76 2411.75C4049.72 2415.82 4044.51 2419.49 4039.14 2422.74C4033.93 2425.84 4031.32 2427.87 4031.32 2428.85C4031.32 2429.83 4037.84 2433.65 4050.86 2440.32C4064.04 2446.82 4074.46 2454.55 4082.11 2463.5C4095.78 2479.77 4102.62 2496.54 4102.62 2513.79L4102.62 2520.14C4102.62 2548.78 4090.91 2571.57 4067.47 2588.51C4059.01 2594.69 4047.13 2600.15 4031.83 2604.88C4016.69 2609.44 3998.62 2611.72 3977.63 2611.73L3951.75 2611.74L3945.4 2611.5C3941.17 2611.33 3936.86 2611.25 3932.46 2611.26L3926.11 2611.01C3921.88 2610.85 3917.65 2610.77 3913.42 2610.77L3907.07 2610.53C3902.84 2610.37 3898.61 2610.29 3894.38 2610.29L3875.58 2610.3C3847.26 2610.31 3833.1 2607.63 3833.1 2602.25C3833.1 2596.72 3837.41 2591.59 3846.03 2586.87C3854.82 2581.98 3860.52 2573.76 3863.12 2562.21C3865.89 2550.49 3867.27 2523.31 3867.27 2480.66L3867.26 2400.34L3866.77 2374.95C3866.61 2370.72 3866.52 2360.63 3866.52 2344.68C3866.52 2328.73 3864.98 2317.58 3861.88 2311.23C3858.95 2304.72 3853.01 2299.35 3844.06 2295.12C3835.11 2290.89 3830.63 2287.15 3830.63 2283.9C3830.63 2279.18 3832.91 2276 3837.47 2274.37C3842.02 2272.58 3856.02 2271.68 3879.46 2271.67L3936.1 2270.19L3961.98 2270.18ZM4279.38 2496.4L4275.23 2496.4C4253.9 2496.4 4236.08 2501.21 4221.76 2510.82C4207.6 2520.26 4200.52 2532.07 4200.52 2546.23L4200.52 2551.11C4200.52 2559.41 4203.05 2566.9 4208.09 2573.57C4213.3 2580.08 4219.98 2583.33 4228.11 2583.33L4231.04 2583.81L4238.37 2583.81C4255.29 2583.81 4269.13 2576.89 4279.87 2563.05C4284.59 2557.02 4286.95 2544.65 4286.95 2525.94C4286.95 2524.47 4286.95 2523.01 4286.95 2521.54L4287.19 2515.68L4287.19 2509.82C4287.19 2500.87 4284.59 2496.39 4279.38 2496.4ZM4160.72 2417.58C4160.72 2405.53 4170.24 2394.79 4189.28 2385.34C4208.49 2375.73 4228.34 2370.92 4248.85 2370.92C4249.5 2370.92 4250.15 2370.92 4250.8 2370.92C4270.33 2370.91 4285.96 2373.27 4297.68 2377.98C4321.44 2387.41 4335.03 2407.43 4338.45 2438.03C4338.78 2441.12 4338.94 2461.63 4338.95 2499.55C4338.95 2537.31 4339.93 2559.45 4341.88 2565.96C4344 2572.47 4349.53 2577.27 4358.48 2580.36C4367.6 2583.44 4372.16 2586.37 4372.16 2589.14C4372.16 2595 4369.23 2599.48 4363.37 2602.57C4351.65 2608.76 4340.09 2611.86 4328.7 2611.86C4317.47 2611.86 4309.09 2609.26 4303.55 2604.05C4293.63 2594.78 4288.34 2590.14 4287.68 2590.14C4287.03 2590.14 4277.84 2594.3 4260.1 2602.6C4242.36 2610.75 4226.81 2614.82 4213.47 2614.83C4193.45 2614.83 4177.74 2609.3 4166.35 2598.24C4154.95 2587.18 4149.26 2573.75 4149.25 2557.96L4149.25 2551.86C4149.25 2534.93 4156.58 2520.04 4171.22 2507.17C4185.87 2494.31 4212.24 2484.29 4250.32 2477.12C4264.16 2474.51 4272.86 2472.07 4276.45 2469.79C4283.61 2465.23 4287.19 2455.95 4287.19 2441.95C4287.18 2427.95 4283.44 2417.21 4275.95 2409.73C4268.46 2402.24 4258.45 2398.5 4245.92 2398.51C4233.39 2398.51 4221.26 2405.84 4209.55 2420.49C4197.99 2434.98 4187.41 2442.23 4177.81 2442.23C4166.42 2442.23 4160.72 2434.02 4160.72 2417.58ZM4410 2600.85C4410 2597.43 4413.66 2593.03 4420.99 2587.66C4428.47 2582.29 4433.52 2573.9 4436.12 2562.51C4438.72 2550.95 4440.02 2507.33 4440.02 2431.65C4440.01 2355.96 4439.11 2313.08 4437.32 2302.99C4435.69 2292.9 4431.54 2285.65 4424.87 2281.26C4414.13 2274.27 4408.75 2269.95 4408.75 2268.33L4408.75 2265.4C4408.75 2262.63 4411.11 2260.19 4415.83 2258.07C4430.48 2251.72 4450.01 2248.54 4474.43 2248.53L4479.31 2248.53C4487.61 2248.53 4492.41 2254.14 4493.72 2265.37C4493.88 2266.83 4493.96 2279.12 4493.96 2302.23L4493.97 2354.73L4493.72 2364.73L4493.72 2380.12L4493.48 2390.13C4493.48 2390.13 4493.48 2415.92 4493.49 2467.52C4493.49 2515.7 4494.22 2545.56 4495.69 2557.12C4497.32 2568.51 4500.98 2576.81 4506.68 2582.02C4507.33 2582.5 4510.75 2584.62 4516.93 2588.36C4523.12 2592.1 4526.21 2595.93 4526.21 2599.83C4526.21 2605.53 4516.12 2608.38 4495.94 2608.39L4485.93 2608.88L4475.92 2608.88L4435.88 2609.63L4430.75 2609.63C4416.92 2609.63 4410 2606.71 4410 2600.85ZM4692.95 2496.26L4688.8 2496.26C4667.48 2496.27 4649.66 2501.08 4635.33 2510.68C4621.18 2520.13 4614.1 2531.93 4614.1 2546.09L4614.1 2550.98C4614.1 2559.28 4616.62 2566.76 4621.67 2573.43C4626.88 2579.94 4633.55 2583.2 4641.69 2583.19L4644.62 2583.68L4651.94 2583.68C4668.87 2583.67 4682.7 2576.75 4693.44 2562.91C4698.16 2556.89 4700.52 2544.52 4700.52 2525.8C4700.52 2524.34 4700.52 2522.87 4700.52 2521.41L4700.76 2515.55L4700.76 2509.69C4700.76 2500.74 4698.16 2496.26 4692.95 2496.26ZM4574.29 2417.44C4574.29 2405.4 4583.81 2394.65 4602.85 2385.21C4622.06 2375.6 4641.92 2370.79 4662.42 2370.78C4663.08 2370.78 4663.73 2370.78 4664.38 2370.78C4683.91 2370.78 4699.53 2373.13 4711.25 2377.85C4735.02 2387.28 4748.61 2407.3 4752.03 2437.89C4752.35 2440.99 4752.52 2461.49 4752.52 2499.42C4752.52 2537.18 4753.5 2559.31 4755.46 2565.82C4757.57 2572.33 4763.11 2577.13 4772.06 2580.22C4781.17 2583.31 4785.73 2586.24 4785.73 2589.01C4785.73 2594.86 4782.8 2599.34 4776.94 2602.44C4765.22 2608.62 4753.67 2611.72 4742.28 2611.72C4731.05 2611.73 4722.66 2609.13 4717.13 2603.92C4707.2 2594.65 4701.91 2590.01 4701.26 2590.01C4700.61 2590.01 4691.41 2594.16 4673.67 2602.47C4655.93 2610.61 4640.39 2614.69 4627.04 2614.69C4607.02 2614.7 4591.32 2609.17 4579.92 2598.11C4568.53 2587.04 4562.83 2573.62 4562.83 2557.83L4562.83 2551.72C4562.83 2534.8 4570.15 2519.9 4584.8 2507.04C4599.44 2494.18 4625.81 2484.16 4663.9 2476.98C4677.73 2474.38 4686.44 2471.93 4690.02 2469.65C4697.18 2465.09 4700.76 2455.81 4700.76 2441.82C4700.76 2427.82 4697.01 2417.08 4689.53 2409.59C4682.04 2402.11 4672.03 2398.37 4659.5 2398.37C4646.96 2398.38 4634.84 2405.7 4623.12 2420.36C4611.57 2434.85 4600.99 2442.09 4591.38 2442.1C4579.99 2442.1 4574.29 2433.88 4574.29 2417.44ZM4858.73 2607.29C4835.78 2607.3 4824.31 2604.05 4824.31 2597.54C4824.31 2592.17 4827.32 2587.77 4833.34 2584.35C4844.24 2578.16 4850.59 2572.63 4852.38 2567.74C4854.17 2562.7 4855.06 2539.18 4855.06 2497.19C4855.06 2455.03 4853.75 2430.37 4851.15 2423.21C4848.71 2415.89 4844.15 2409.87 4837.48 2405.15C4830.8 2400.43 4827.47 2396.61 4827.46 2393.68C4827.46 2390.75 4829.66 2387.98 4834.06 2385.38C4844.31 2379.35 4860.59 2376.33 4882.88 2376.33C4889.56 2376.32 4894.77 2378.6 4898.51 2383.16C4899.81 2384.78 4901.6 2388.37 4903.88 2393.9C4906.32 2399.27 4907.95 2401.95 4908.76 2401.95C4911.86 2401.79 4916.66 2399.59 4923.17 2395.36C4945.63 2380.21 4965.97 2372.64 4984.2 2372.63L4984.69 2372.63L4992.5 2372.63C5005.69 2372.62 5017.57 2375.88 5028.15 2382.38C5038.73 2388.89 5046.87 2398.65 5052.56 2411.67C5058.42 2424.69 5061.36 2453.09 5061.36 2496.87C5061.36 2540.49 5062.26 2564.91 5064.05 2570.12C5066 2575.16 5071.29 2579.88 5079.92 2584.27C5088.71 2588.66 5093.1 2592.97 5093.1 2597.21C5093.11 2604.53 5069.99 2608.2 5023.77 2608.21L5016.45 2608.22C5001.8 2608.22 4994.47 2604.72 4994.47 2597.73C4994.47 2596.26 4996.26 2592.76 4999.84 2587.23C5003.42 2581.53 5005.86 2575.26 5007.17 2568.43C5008.47 2561.59 5009.12 2539.13 5009.11 2501.04C5009.11 2462.79 5006.75 2438.22 5002.03 2427.31C4995.52 2412.34 4984.69 2404.86 4969.56 2404.86C4958.49 2404.87 4947.75 2407.47 4937.33 2412.69C4927.08 2417.73 4919.59 2424.98 4914.87 2434.42C4910.31 2443.7 4908.04 2466.08 4908.04 2501.56C4908.04 2536.88 4909.02 2558.28 4910.97 2565.77C4912.93 2573.09 4915.29 2579.03 4918.06 2583.59L4927.09 2598.24C4927.09 2604.58 4914.31 2607.76 4888.76 2607.77L4873.87 2607.29L4858.73 2607.29ZM5307.45 2441.62C5300.61 2441.62 5291.09 2434.54 5278.88 2420.39C5266.84 2406.23 5252.84 2399.16 5236.89 2399.16C5221.1 2399.17 5207.84 2407.06 5197.1 2422.86C5186.35 2438.48 5180.99 2460.7 5180.99 2489.51C5180.99 2518.32 5187.58 2540.86 5200.77 2557.13C5214.12 2573.24 5231.45 2581.29 5252.77 2581.28C5264.49 2581.28 5274.26 2579.81 5282.07 2576.88C5290.04 2573.95 5297.37 2570.85 5304.04 2567.6C5310.88 2564.18 5315.68 2562.47 5318.44 2562.46C5323.16 2562.46 5325.52 2565.55 5325.52 2571.74C5325.53 2581.18 5316 2590.54 5296.96 2599.82C5277.92 2609.11 5259.45 2613.75 5241.54 2613.76C5206.71 2613.77 5178.72 2602.87 5157.56 2581.07C5148.93 2572.12 5141.69 2560.65 5135.83 2546.65C5129.97 2532.5 5127.03 2517.36 5127.03 2501.25L5127.03 2489.28C5127.03 2488.96 5127.03 2488.55 5127.03 2488.06C5127.03 2487.74 5127.03 2487.41 5127.03 2487.09C5127.03 2472.93 5130.2 2458.28 5136.55 2443.14C5149.08 2413.51 5169.26 2393 5197.09 2381.6C5213.21 2375.08 5229.24 2371.82 5245.19 2371.81L5250.8 2371.81C5272.78 2371.81 5291.41 2375.62 5306.71 2383.27C5319.08 2389.45 5325.27 2399.78 5325.27 2414.27C5325.27 2423.87 5323.32 2430.87 5319.41 2435.27C5315.67 2439.5 5311.68 2441.62 5307.45 2441.62ZM5521.07 2450.34L5521.07 2442.77C5521.07 2430.72 5516.76 2419.9 5508.13 2410.3C5499.5 2400.54 5488.92 2395.66 5476.39 2395.66L5471.75 2395.67C5469.47 2395.99 5467.93 2396.16 5467.11 2396.16C5455.72 2396.16 5444.9 2402.67 5434.64 2415.7C5424.55 2428.72 5419.51 2442.64 5419.51 2457.45L5419.51 2460.62C5419.51 2465.83 5422.6 2468.44 5428.79 2468.43C5431.23 2468.92 5432.53 2469.17 5432.7 2469.17L5438.31 2469.41L5439.78 2469.41L5441.48 2469.16L5488.6 2466.46L5497.39 2465.48C5513.18 2465.48 5521.07 2460.43 5521.07 2450.34ZM5419.51 2515.07C5419.52 2533.62 5426.52 2549.16 5440.51 2561.69C5454.51 2574.22 5472.25 2580.48 5493.74 2580.47C5502.36 2580.47 5510.18 2579.25 5517.18 2576.8C5524.34 2574.2 5532.07 2571.1 5540.37 2567.52C5548.83 2563.94 5554.12 2562.14 5556.24 2562.14C5562.75 2562.14 5566 2565.64 5566 2572.64C5566 2582.08 5553.96 2592.17 5529.87 2602.92C5514.25 2609.93 5497.48 2613.43 5479.58 2613.44L5474.21 2613.44C5443.61 2613.45 5418.22 2604.18 5398.04 2585.63C5387.13 2575.54 5378.67 2562.69 5372.64 2547.07C5366.62 2531.28 5363.61 2514.35 5363.61 2496.29L5363.85 2490.67L5363.85 2485.06C5363.85 2469.43 5367.43 2454.05 5374.59 2438.91C5381.91 2423.77 5390.62 2411.32 5400.71 2401.55C5422.03 2381.03 5447.34 2370.69 5476.63 2370.52C5520.9 2370.5 5550.36 2387.75 5565.02 2422.25C5569.57 2433.15 5571.85 2443.16 5571.85 2452.27L5571.85 2457.16C5571.86 2468.39 5567.22 2475.96 5557.94 2479.87C5548.66 2483.61 5526.77 2486.71 5492.27 2489.17C5457.76 2491.62 5439.04 2493.25 5436.11 2494.07C5425.05 2496.84 5419.51 2503.84 5419.51 2515.07Z" fill="black"/>
<rect x="2849" y="3463" width="3812" height="610.38" fill="white"/>
<path d="M3622.38 3633.09V3744.12C3622.38 3757.8 3624.24 3766.68 3627.95 3770.78C3631.66 3774.69 3640.74 3776.64 3655.2 3776.64H3668.97C3694.75 3776.64 3715.55 3768.73 3731.37 3752.91C3747.38 3736.9 3755.39 3715.02 3755.39 3687.29V3677.62C3755.39 3649.3 3746.9 3627.33 3729.9 3611.7C3712.91 3596.08 3689.67 3588.26 3660.18 3588.26H3657.54C3640.74 3588.26 3630.68 3590.51 3627.36 3595C3624.04 3599.49 3622.38 3612.19 3622.38 3633.09ZM3651.68 3557.21H3683.03C3752.17 3557.21 3796.9 3578.01 3817.21 3619.61C3824.83 3635.24 3828.63 3652.52 3828.63 3671.47V3679.67C3828.63 3679.67 3828.63 3679.87 3828.63 3680.26C3828.63 3717.37 3812.33 3747.35 3779.71 3770.2C3756.47 3786.41 3720.53 3796.37 3671.9 3800.08C3651.19 3801.64 3638.69 3804.87 3634.4 3809.75C3627.56 3817.37 3624.14 3835.73 3624.14 3864.83C3624.14 3893.73 3627.17 3912.48 3633.22 3921.08C3636.15 3925.18 3642.7 3930.35 3652.85 3936.6C3663.2 3942.66 3668.38 3947.35 3668.38 3950.67C3668.38 3961.02 3655.78 3966.19 3630.59 3966.19H3556.47C3528.15 3966.19 3513.99 3961.51 3513.99 3952.13C3513.99 3946.27 3519.16 3940.22 3529.51 3933.97C3539.86 3927.72 3546.51 3921.17 3549.43 3914.34C3552.36 3907.31 3553.83 3889.34 3553.83 3860.43L3554.12 3853.11C3554.32 3848.03 3554.42 3842.95 3554.42 3837.87C3554.42 3832.8 3554.42 3827.72 3554.42 3822.64L3554.71 3807.41V3769.32L3554.42 3754.08C3554.42 3679.67 3552.85 3635.14 3549.73 3620.49C3546.8 3605.65 3540.35 3595.39 3530.39 3589.73C3520.63 3584.07 3515.74 3578.79 3515.74 3573.91C3515.74 3568.83 3518.48 3565.12 3523.95 3562.78C3529.42 3560.43 3546.02 3559.26 3573.75 3559.26L3604.81 3558.67L3627.95 3557.8C3638.3 3557.41 3646.21 3557.21 3651.68 3557.21ZM4024.04 3956.82C4024.04 3964.44 4006.37 3968.24 3971.02 3968.24H3939.96L3927.66 3967.66L3909.2 3967.37C3888.5 3967.37 3878.15 3963.66 3878.15 3956.23C3878.15 3950.96 3882.74 3945.39 3891.92 3939.53C3901.29 3933.48 3907.54 3925.76 3910.67 3916.39C3913.99 3906.82 3915.65 3878.79 3915.65 3832.31C3915.65 3785.82 3914.08 3757.6 3910.96 3747.64C3908.03 3737.68 3903.34 3730.55 3896.9 3726.25C3885.37 3718.64 3879.61 3713.07 3879.61 3709.55C3879.61 3706.04 3881.66 3702.91 3885.76 3700.18C3897.87 3691.98 3918.38 3687.87 3947.29 3687.87H3952.85C3963.99 3687.87 3971.9 3693.54 3976.58 3704.87C3981.27 3716 3985.08 3721.57 3988.01 3721.57C3990.94 3721.57 3995.92 3718.83 4002.95 3713.36C4010.18 3707.89 4018.77 3702.42 4028.73 3696.96C4038.89 3691.49 4050.12 3688.75 4062.42 3688.75C4074.73 3688.75 4084.1 3691.98 4090.55 3698.42C4097.19 3704.67 4100.51 3712.78 4100.51 3722.74C4100.31 3732.89 4097.68 3740.51 4092.6 3745.59C4087.52 3750.67 4082.05 3753.21 4076.19 3753.21C4070.33 3753.21 4062.62 3750.86 4053.05 3746.17C4043.48 3741.29 4035.47 3738.85 4029.02 3738.85C4022.58 3738.85 4015.55 3741.58 4007.93 3747.05C4000.31 3752.33 3993.77 3761.9 3988.3 3775.76C3983.03 3789.44 3980.39 3812.97 3980.39 3846.37C3980.39 3879.57 3982.74 3901.06 3987.42 3910.82C3992.11 3920.39 3999.34 3929.18 4009.1 3937.19C4019.06 3945.2 4024.04 3951.74 4024.04 3956.82ZM4320.82 3777.82V3768.73C4320.82 3754.28 4315.65 3741.29 4305.29 3729.77C4294.94 3718.05 4282.25 3712.19 4267.21 3712.19H4261.64C4258.91 3712.58 4257.05 3712.78 4256.08 3712.78C4242.4 3712.78 4229.42 3720.59 4217.11 3736.21C4205 3751.84 4198.95 3768.54 4198.95 3786.31V3790.12C4198.95 3796.37 4202.66 3799.49 4210.08 3799.49C4213.01 3800.08 4214.57 3800.37 4214.77 3800.37L4221.51 3800.67H4223.26L4225.31 3800.37L4281.86 3797.15L4292.4 3795.98C4311.35 3795.98 4320.82 3789.92 4320.82 3777.82ZM4198.95 3855.45C4198.95 3877.72 4207.34 3896.37 4224.14 3911.41C4240.94 3926.45 4262.23 3933.97 4288.01 3933.97C4298.36 3933.97 4307.74 3932.5 4316.13 3929.57C4324.73 3926.45 4334.01 3922.74 4343.97 3918.44C4354.12 3914.14 4360.47 3911.99 4363.01 3911.99C4370.82 3911.99 4374.73 3916.19 4374.73 3924.59C4374.73 3935.92 4360.27 3948.03 4331.37 3960.92C4312.62 3969.32 4292.5 3973.52 4271.02 3973.52H4264.57C4227.85 3973.52 4197.38 3962.39 4173.17 3940.12C4160.08 3928.01 4149.92 3912.58 4142.7 3893.83C4135.47 3874.89 4131.86 3854.57 4131.86 3832.89L4132.15 3826.16V3819.42C4132.15 3800.67 4136.45 3782.21 4145.04 3764.05C4153.83 3745.88 4164.28 3730.94 4176.39 3719.22C4201.97 3694.61 4232.34 3682.21 4267.5 3682.01C4320.63 3682.01 4355.98 3702.72 4373.56 3744.12C4379.02 3757.21 4381.76 3769.22 4381.76 3780.16V3786.02C4381.76 3799.49 4376.19 3808.58 4365.06 3813.26C4353.93 3817.76 4327.66 3821.47 4286.25 3824.4C4244.84 3827.33 4222.38 3829.28 4218.87 3830.26C4205.59 3833.58 4198.95 3841.98 4198.95 3855.45ZM4649.83 3767.27C4641.62 3767.27 4630.2 3758.77 4615.55 3741.78C4601.09 3724.79 4584.3 3716.29 4565.16 3716.29C4546.21 3716.29 4530.29 3725.76 4517.4 3744.71C4504.51 3763.46 4498.07 3790.12 4498.07 3824.69C4498.07 3859.26 4505.98 3886.31 4521.8 3905.84C4537.81 3925.18 4558.61 3934.85 4584.2 3934.85C4598.26 3934.85 4609.98 3933.09 4619.36 3929.57C4628.93 3926.06 4637.72 3922.35 4645.72 3918.44C4653.93 3914.34 4659.69 3912.29 4663.01 3912.29C4668.67 3912.29 4671.51 3916 4671.51 3923.42C4671.51 3934.75 4660.08 3945.98 4637.23 3957.11C4614.38 3968.24 4592.21 3973.81 4570.72 3973.81C4528.93 3973.81 4495.33 3960.73 4469.94 3934.55C4459.59 3923.81 4450.9 3910.04 4443.87 3893.24C4436.84 3876.25 4433.32 3858.09 4433.32 3838.75V3824.4C4433.32 3824.01 4433.32 3823.52 4433.32 3822.93C4433.32 3822.54 4433.32 3822.15 4433.32 3821.76C4433.32 3804.77 4437.13 3787.19 4444.75 3769.03C4459.79 3733.48 4484.01 3708.87 4517.4 3695.2C4536.74 3687.39 4555.98 3683.48 4575.12 3683.48H4581.86C4608.22 3683.48 4630.59 3688.07 4648.95 3697.25C4663.79 3704.67 4671.21 3717.07 4671.21 3734.46C4671.21 3745.98 4668.87 3754.38 4664.18 3759.65C4659.69 3764.73 4654.9 3767.27 4649.83 3767.27ZM4830.59 3592.07C4830.59 3600.67 4826.88 3608.67 4819.45 3616.1C4812.23 3623.32 4805 3626.94 4797.77 3626.94C4796.21 3627.33 4794.94 3627.52 4793.97 3627.52L4787.52 3628.11C4777.76 3628.11 4768.97 3624.89 4761.15 3618.44C4753.54 3611.99 4749.73 3603.69 4749.73 3593.54V3588.26C4749.73 3578.11 4753.73 3569.61 4761.74 3562.78C4769.94 3555.74 4779.32 3552.23 4789.86 3552.23H4791.33L4801.29 3553.4C4807.34 3553.4 4813.59 3556.72 4820.04 3563.36C4826.68 3569.81 4830 3576.35 4830 3582.99L4830.59 3585.63V3592.07ZM4737.42 3722.74C4727.27 3717.85 4722.19 3713.26 4722.19 3708.97C4722.19 3704.67 4724.24 3701.25 4728.34 3698.71C4742.6 3690.12 4765.16 3685.82 4796.02 3685.82H4804.51C4815.06 3685.82 4821.02 3690.71 4822.38 3700.47C4823.17 3705.74 4823.56 3741.29 4823.56 3807.11C4823.56 3872.74 4824.92 3910.43 4827.66 3920.2C4830.39 3929.77 4836.93 3937.19 4847.29 3942.46C4857.64 3947.54 4862.81 3952.72 4862.81 3957.99C4862.81 3965.41 4838.59 3969.12 4790.16 3969.12L4781.37 3969.42H4745.63C4731.37 3969.42 4724.24 3965.9 4724.24 3958.87C4724.24 3953.01 4728.54 3947.35 4737.13 3941.88C4745.92 3936.41 4751.97 3930.35 4755.29 3923.71C4759.01 3916.49 4760.86 3899.59 4760.86 3873.03L4761.15 3863.66V3854.57L4761.45 3840.8V3831.72L4761.74 3822.64C4761.74 3776.35 4760.18 3749.4 4757.05 3741.78C4754.12 3733.97 4747.58 3727.62 4737.42 3722.74ZM5101.29 3836.7C5116.72 3851.35 5124.43 3869.91 5124.43 3892.37C5124.43 3914.63 5115.26 3933.77 5096.9 3949.79C5078.54 3965.61 5053.15 3973.52 5020.72 3973.52H5012.81C4975.9 3973.52 4947.77 3968.93 4928.44 3959.75C4917.7 3954.67 4912.33 3943.34 4912.33 3925.76V3918.44C4912.33 3895.98 4916.52 3884.75 4924.92 3884.75C4931.95 3884.75 4940.26 3891.39 4949.83 3904.67C4959.4 3917.76 4967.4 3926.55 4973.85 3931.04C4986.35 3939.63 5001 3943.93 5017.79 3943.93C5034.79 3943.93 5047.29 3940.41 5055.29 3933.38C5063.3 3926.16 5067.31 3916.68 5067.31 3904.96C5067.31 3893.24 5060.47 3882.41 5046.8 3872.44C5039.57 3867.17 5022.68 3858.87 4996.11 3847.54C4969.75 3836.21 4950.02 3824.4 4936.93 3812.09C4923.85 3799.59 4917.31 3782.01 4917.31 3759.36C4917.31 3736.7 4926.78 3718.34 4945.72 3704.28C4964.67 3690.02 4988.01 3682.89 5015.74 3682.89H5023.65C5059.98 3682.89 5085.47 3687.19 5100.12 3695.78C5107.74 3700.28 5111.54 3712.78 5111.54 3733.28C5111.54 3753.79 5106.66 3764.05 5096.9 3764.05C5091.43 3764.05 5083.91 3757.99 5074.34 3745.88C5064.96 3733.58 5056.37 3724.89 5048.56 3719.81C5040.74 3714.53 5029.9 3711.9 5016.04 3711.9C5002.36 3711.9 4991.52 3715.02 4983.52 3721.27C4975.51 3727.52 4971.51 3736.6 4971.51 3748.52C4971.51 3760.24 4978.83 3770.78 4993.48 3780.16C4997.19 3782.7 5013.4 3790.22 5042.11 3802.72C5070.82 3815.22 5090.55 3826.55 5101.29 3836.7ZM5282.34 3592.07C5282.34 3600.67 5278.63 3608.67 5271.21 3616.1C5263.99 3623.32 5256.76 3626.94 5249.53 3626.94C5247.97 3627.33 5246.7 3627.52 5245.72 3627.52L5239.28 3628.11C5229.51 3628.11 5220.72 3624.89 5212.91 3618.44C5205.29 3611.99 5201.49 3603.69 5201.49 3593.54V3588.26C5201.49 3578.11 5205.49 3569.61 5213.5 3562.78C5221.7 3555.74 5231.08 3552.23 5241.62 3552.23H5243.09L5253.05 3553.4C5259.1 3553.4 5265.35 3556.72 5271.8 3563.36C5278.44 3569.81 5281.76 3576.35 5281.76 3582.99L5282.34 3585.63V3592.07ZM5189.18 3722.74C5179.02 3717.85 5173.95 3713.26 5173.95 3708.97C5173.95 3704.67 5176 3701.25 5180.1 3698.71C5194.36 3690.12 5216.92 3685.82 5247.77 3685.82H5256.27C5266.82 3685.82 5272.77 3690.71 5274.14 3700.47C5274.92 3705.74 5275.31 3741.29 5275.31 3807.11C5275.31 3872.74 5276.68 3910.43 5279.42 3920.2C5282.15 3929.77 5288.69 3937.19 5299.04 3942.46C5309.4 3947.54 5314.57 3952.72 5314.57 3957.99C5314.57 3965.41 5290.35 3969.12 5241.92 3969.12L5233.13 3969.42H5197.38C5183.13 3969.42 5176 3965.9 5176 3958.87C5176 3953.01 5180.29 3947.35 5188.89 3941.88C5197.68 3936.41 5203.73 3930.35 5207.05 3923.71C5210.76 3916.49 5212.62 3899.59 5212.62 3873.03L5212.91 3863.66V3854.57L5213.2 3840.8V3831.72L5213.5 3822.64C5213.5 3776.35 5211.93 3749.4 5208.81 3741.78C5205.88 3733.97 5199.34 3727.62 5189.18 3722.74ZM5425.9 3817.37V3828.21C5425.9 3861.41 5432.34 3888.95 5445.24 3910.82C5451.29 3921.17 5459 3929.38 5468.38 3935.43C5477.75 3941.49 5487.23 3944.51 5496.8 3944.51H5502.66C5520.43 3944.51 5535.76 3935.92 5548.65 3918.73C5561.74 3901.35 5568.28 3876.74 5568.28 3844.91V3824.1C5568.28 3792.66 5561.74 3766 5548.65 3744.12C5535.76 3722.05 5519.36 3711.02 5499.43 3711.02H5490.35C5472.38 3711.02 5457.15 3720.69 5444.65 3740.02C5432.15 3759.36 5425.9 3785.14 5425.9 3817.37ZM5638.89 3818.54V3833.19C5638.89 3848.62 5635.76 3865.51 5629.51 3883.87C5616.43 3922.15 5590.35 3948.91 5551.29 3964.14C5534.3 3970.78 5517.89 3974.1 5502.07 3974.1H5492.4C5455.1 3974.1 5423.95 3961.6 5398.95 3936.6C5387.62 3925.28 5378.44 3910.33 5371.41 3891.78C5364.38 3873.23 5360.86 3853.5 5360.86 3832.6V3827.62C5360.86 3808.67 5364.18 3789.53 5370.82 3770.2C5383.71 3732.5 5409 3706.33 5446.7 3691.68C5463.69 3685.04 5480 3681.72 5495.63 3681.72H5510.27C5527.66 3681.72 5544.75 3685.63 5561.54 3693.44C5593.38 3708.28 5615.55 3731.92 5628.05 3764.34C5635.27 3783.48 5638.89 3801.55 5638.89 3818.54ZM5732.05 3965.9C5704.51 3965.9 5690.74 3961.99 5690.74 3954.18C5690.74 3947.74 5694.36 3942.46 5701.58 3938.36C5714.67 3930.94 5722.29 3924.3 5724.43 3918.44C5726.58 3912.39 5727.66 3884.16 5727.66 3833.77C5727.66 3783.19 5726.09 3753.6 5722.97 3745C5720.04 3736.21 5714.57 3728.99 5706.56 3723.32C5698.56 3717.66 5694.55 3713.07 5694.55 3709.55C5694.55 3706.04 5697.19 3702.72 5702.46 3699.59C5714.77 3692.37 5734.3 3688.75 5761.06 3688.75C5769.06 3688.75 5775.31 3691.49 5779.81 3696.96C5781.37 3698.91 5783.52 3703.21 5786.25 3709.85C5789.18 3716.29 5791.13 3719.51 5792.11 3719.51C5795.82 3719.32 5801.58 3716.68 5809.4 3711.6C5836.35 3693.44 5860.76 3684.36 5882.64 3684.36H5883.22H5892.6C5908.42 3684.36 5922.68 3688.26 5935.37 3696.08C5948.07 3703.89 5957.83 3715.61 5964.67 3731.23C5971.7 3746.86 5975.22 3780.94 5975.22 3833.48C5975.22 3885.82 5976.29 3915.12 5978.44 3921.37C5980.78 3927.42 5987.13 3933.09 5997.48 3938.36C6008.03 3943.64 6013.3 3948.81 6013.3 3953.89C6013.3 3962.68 5985.57 3967.07 5930.1 3967.07H5921.31C5903.73 3967.07 5894.94 3962.87 5894.94 3954.48C5894.94 3952.72 5897.09 3948.52 5901.39 3941.88C5905.68 3935.04 5908.61 3927.52 5910.18 3919.32C5911.74 3911.12 5912.52 3884.16 5912.52 3838.46C5912.52 3792.56 5909.69 3763.07 5904.02 3749.98C5896.21 3732.01 5883.22 3723.03 5865.06 3723.03C5851.78 3723.03 5838.89 3726.16 5826.39 3732.41C5814.08 3738.46 5805.1 3747.15 5799.43 3758.48C5793.97 3769.61 5791.23 3796.47 5791.23 3839.05C5791.23 3881.43 5792.4 3907.11 5794.75 3916.1C5797.09 3924.89 5799.92 3932.01 5803.24 3937.48L5814.08 3955.06C5814.08 3962.68 5798.75 3966.49 5768.09 3966.49L5750.22 3965.9H5732.05Z" fill="black"/>
<rect x="3066.71" y="4601.97" width="3053.07" height="610.49" fill="white"/>
<path d="M2783.65 4702.16C2773.39 4702.16 2767.13 4706.03 2764.85 4713.78C2763.48 4718.56 2762.8 4740.1 2762.8 4778.38V4844.69C2762.8 4858.82 2764.05 4867.59 2766.56 4871.01C2769.07 4874.2 2776.81 4875.79 2789.8 4875.79H2804.16L2807.23 4875.45L2827.74 4874.42C2829.79 4874.2 2831.73 4874.08 2833.55 4874.08C2855.43 4874.08 2873.77 4865.99 2888.58 4849.81C2903.39 4833.64 2910.8 4814.04 2910.8 4791.03V4781.8C2910.8 4758.33 2902.71 4739.3 2886.53 4724.72C2870.58 4709.91 2850.98 4702.5 2827.74 4702.5L2821.59 4701.82L2812.7 4701.47H2792.19C2788.55 4701.93 2785.7 4702.16 2783.65 4702.16ZM2824.66 4911H2795.27C2777.72 4911 2767.81 4913.39 2765.53 4918.17C2763.48 4922.96 2762.46 4937.43 2762.46 4961.58V5059.68C2762.46 5080.87 2764.96 5093.86 2769.98 5098.64C2775.22 5103.2 2789.57 5105.48 2813.04 5105.48H2833.21C2863.29 5105.48 2887.67 5097.62 2906.35 5081.89C2925.04 5065.94 2934.38 5044.98 2934.38 5019V5001.23C2934.38 4973.2 2924.13 4951.21 2903.62 4935.26C2883.11 4919.09 2856.79 4911 2824.66 4911ZM2816.8 4664.9C2897.92 4664.9 2949.99 4686.21 2973 4728.82C2981.21 4743.86 2985.31 4761.18 2985.31 4780.77C2985.31 4800.14 2980.64 4817.23 2971.29 4832.04C2962.18 4846.85 2953.98 4857.22 2946.69 4863.14C2939.62 4868.84 2932.33 4873.97 2924.81 4878.53C2917.52 4882.85 2913.87 4885.7 2913.87 4887.07C2913.87 4888.44 2922.99 4893.79 2941.22 4903.13C2959.67 4912.25 2974.26 4923.07 2984.97 4935.61C3004.11 4958.39 3013.68 4981.86 3013.68 5006.02V5014.9C3013.68 5055.01 2997.27 5086.91 2964.46 5110.61C2952.61 5119.26 2935.98 5126.9 2914.56 5133.51C2893.37 5139.89 2868.07 5143.08 2838.68 5143.08H2802.45L2793.56 5142.73C2787.64 5142.51 2781.6 5142.39 2775.45 5142.39L2766.56 5142.05C2760.63 5141.82 2754.71 5141.71 2748.79 5141.71L2739.9 5141.37C2733.97 5141.14 2728.05 5141.03 2722.12 5141.03H2695.81C2656.16 5141.03 2636.33 5137.27 2636.33 5129.75C2636.33 5122 2642.37 5114.82 2654.45 5108.21C2666.75 5101.38 2674.73 5089.87 2678.38 5073.69C2682.25 5057.29 2684.19 5019.23 2684.19 4959.53V4847.08L2683.5 4811.53C2683.27 4805.61 2683.16 4791.48 2683.16 4769.15C2683.16 4746.82 2681 4731.21 2676.67 4722.32C2672.56 4713.21 2664.25 4705.69 2651.71 4699.77C2639.18 4693.84 2632.92 4688.6 2632.92 4684.04C2632.92 4677.43 2636.11 4672.99 2642.49 4670.71C2648.87 4668.21 2668.46 4666.95 2701.28 4666.95L2780.57 4664.9H2816.8ZM3155.87 4963.97V4976.62C3155.87 5015.36 3163.38 5047.49 3178.42 5073.01C3185.49 5085.08 3194.49 5094.65 3205.43 5101.72C3216.36 5108.78 3227.41 5112.31 3238.58 5112.31H3245.42C3266.15 5112.31 3284.04 5102.29 3299.08 5082.24C3314.35 5061.96 3321.98 5033.25 3321.98 4996.1V4971.84C3321.98 4935.15 3314.35 4904.05 3299.08 4878.53C3284.04 4852.78 3264.9 4839.9 3241.66 4839.9H3231.06C3210.1 4839.9 3192.32 4851.18 3177.74 4873.74C3163.16 4896.3 3155.87 4926.38 3155.87 4963.97ZM3404.35 4965.34V4982.43C3404.35 5000.43 3400.71 5020.14 3393.41 5041.56C3378.15 5086.22 3347.73 5117.44 3302.15 5135.21C3282.33 5142.96 3263.19 5146.84 3244.73 5146.84H3233.45C3189.93 5146.84 3153.59 5132.25 3124.42 5103.09C3111.2 5089.87 3100.49 5072.44 3092.29 5050.79C3084.09 5029.14 3079.99 5006.13 3079.99 4981.75V4975.94C3079.99 4953.83 3083.86 4931.5 3091.61 4908.95C3106.65 4864.97 3136.15 4834.43 3180.13 4817.34C3199.96 4809.6 3218.98 4805.72 3237.21 4805.72H3254.3C3274.58 4805.72 3294.52 4810.28 3314.12 4819.39C3351.26 4836.71 3377.12 4864.28 3391.71 4902.11C3400.14 4924.44 3404.35 4945.52 3404.35 4965.34ZM3539.36 4963.97V4976.62C3539.36 5015.36 3546.88 5047.49 3561.92 5073.01C3568.98 5085.08 3577.98 5094.65 3588.92 5101.72C3599.86 5108.78 3610.91 5112.31 3622.08 5112.31H3628.91C3649.65 5112.31 3667.54 5102.29 3682.57 5082.24C3697.84 5061.96 3705.47 5033.25 3705.47 4996.1V4971.84C3705.47 4935.15 3697.84 4904.05 3682.57 4878.53C3667.54 4852.78 3648.39 4839.9 3625.15 4839.9H3614.56C3593.59 4839.9 3575.82 4851.18 3561.24 4873.74C3546.65 4896.3 3539.36 4926.38 3539.36 4963.97ZM3787.85 4965.34V4982.43C3787.85 5000.43 3784.2 5020.14 3776.91 5041.56C3761.64 5086.22 3731.22 5117.44 3685.65 5135.21C3665.83 5142.96 3646.69 5146.84 3628.23 5146.84H3616.95C3573.43 5146.84 3537.08 5132.25 3507.92 5103.09C3494.7 5089.87 3483.99 5072.44 3475.79 5050.79C3467.58 5029.14 3463.48 5006.13 3463.48 4981.75V4975.94C3463.48 4953.83 3467.36 4931.5 3475.1 4908.95C3490.14 4864.97 3519.65 4834.43 3563.63 4817.34C3583.45 4809.6 3602.48 4805.72 3620.71 4805.72H3637.8C3658.08 4805.72 3678.02 4810.28 3697.61 4819.39C3734.76 4836.71 3760.62 4864.28 3775.2 4902.11C3783.63 4924.44 3787.85 4945.52 3787.85 4965.34ZM3986.77 4995.08C3972.87 4995.08 3965.92 5015.13 3965.92 5055.23C3965.92 5069.36 3969.23 5083.15 3975.84 5096.59L3985.06 5112.31C3988.25 5118.01 3989.85 5122.11 3989.85 5124.62C3989.85 5132.82 3966.95 5136.92 3921.15 5136.92C3875.35 5136.92 3852.45 5133.05 3852.45 5125.3C3852.45 5123.25 3856.21 5117.1 3863.73 5106.85C3871.47 5096.36 3877.06 5084.17 3880.47 5070.27C3884.12 5056.15 3885.94 5023.45 3885.94 4972.18L3886.29 4959.19C3886.74 4947.57 3886.97 4938.91 3886.97 4933.21L3887.65 4907.24L3887.99 4880.92V4827.94C3887.99 4762.09 3886.74 4723.24 3884.23 4711.39C3881.96 4699.31 3877.74 4690.2 3871.59 4684.04L3864.07 4678.23L3855.87 4673.11C3849.26 4668.32 3845.95 4663.88 3845.95 4659.78C3845.95 4655.45 3848.69 4651.69 3854.16 4648.5C3869.65 4639.61 3893.58 4635.17 3925.93 4635.17H3937.55C3950.54 4635.17 3958.63 4644.39 3961.82 4662.85C3962.96 4669.69 3963.53 4720.73 3963.53 4815.98L3963.19 4855.28C3963.19 4886.5 3963.3 4903.13 3963.53 4905.19C3966.04 4926.83 3971.96 4937.66 3981.3 4937.66C3990.65 4937.66 4006.71 4925.35 4029.5 4900.74C4052.28 4875.9 4063.68 4858.25 4063.68 4847.76L4062.65 4835.46C4062.65 4827.71 4065.61 4822.24 4071.54 4819.05C4077.69 4815.86 4090.34 4814.27 4109.48 4814.27C4153 4814.27 4174.76 4818.94 4174.76 4828.28C4174.76 4828.51 4154.6 4844.8 4114.26 4877.16C4073.93 4909.51 4053.77 4932.64 4053.77 4946.54C4053.77 4960.44 4081.45 4999.75 4136.82 5064.46C4148.9 5078.59 4162.12 5090.78 4176.47 5101.04C4191.05 5111.29 4198.35 5118.12 4198.35 5121.54C4198.35 5132.71 4181.48 5138.29 4147.76 5138.29H4122.81C4100.93 5138.29 4085.21 5132.02 4075.64 5119.49L4061.97 5086.34C4056.27 5072.67 4046.82 5056.49 4033.6 5037.8C4013.32 5009.32 3997.71 4995.08 3986.77 4995.08ZM4386.68 4995.08C4372.78 4995.08 4365.83 5015.13 4365.83 5055.23C4365.83 5069.36 4369.13 5083.15 4375.74 5096.59L4384.97 5112.31C4388.16 5118.01 4389.75 5122.11 4389.75 5124.62C4389.75 5132.82 4366.85 5136.92 4321.05 5136.92C4275.25 5136.92 4252.35 5133.05 4252.35 5125.3C4252.35 5123.25 4256.11 5117.1 4263.63 5106.85C4271.38 5096.36 4276.96 5084.17 4280.38 5070.27C4284.02 5056.15 4285.85 5023.45 4285.85 4972.18L4286.19 4959.19C4286.64 4947.57 4286.87 4938.91 4286.87 4933.21L4287.55 4907.24L4287.9 4880.92V4827.94C4287.9 4762.09 4286.64 4723.24 4284.14 4711.39C4281.86 4699.31 4277.64 4690.2 4271.49 4684.04L4263.97 4678.23L4255.77 4673.11C4249.16 4668.32 4245.86 4663.88 4245.86 4659.78C4245.86 4655.45 4248.59 4651.69 4254.06 4648.5C4269.55 4639.61 4293.48 4635.17 4325.84 4635.17H4337.46C4350.45 4635.17 4358.53 4644.39 4361.72 4662.85C4362.86 4669.69 4363.43 4720.73 4363.43 4815.98L4363.09 4855.28C4363.09 4886.5 4363.21 4903.13 4363.43 4905.19C4365.94 4926.83 4371.86 4937.66 4381.21 4937.66C4390.55 4937.66 4406.61 4925.35 4429.4 4900.74C4452.19 4875.9 4463.58 4858.25 4463.58 4847.76L4462.55 4835.46C4462.55 4827.71 4465.52 4822.24 4471.44 4819.05C4477.59 4815.86 4490.24 4814.27 4509.38 4814.27C4552.9 4814.27 4574.66 4818.94 4574.66 4828.28C4574.66 4828.51 4554.5 4844.8 4514.17 4877.16C4473.83 4909.51 4453.67 4932.64 4453.67 4946.54C4453.67 4960.44 4481.35 4999.75 4536.72 5064.46C4548.8 5078.59 4562.02 5090.78 4576.37 5101.04C4590.96 5111.29 4598.25 5118.12 4598.25 5121.54C4598.25 5132.71 4581.39 5138.29 4547.66 5138.29H4522.71C4500.84 5138.29 4485.11 5132.02 4475.54 5119.49L4461.87 5086.34C4456.17 5072.67 4446.72 5056.49 4433.5 5037.8C4413.22 5009.32 4397.61 4995.08 4386.68 4995.08ZM4855.96 4917.83V4907.24C4855.96 4890.37 4849.92 4875.22 4837.85 4861.78C4825.77 4848.11 4810.96 4841.27 4793.41 4841.27H4786.92C4783.73 4841.73 4781.57 4841.95 4780.43 4841.95C4764.48 4841.95 4749.32 4851.07 4734.97 4869.3C4720.84 4887.53 4713.78 4907.01 4713.78 4927.74V4932.19C4713.78 4939.48 4718.1 4943.12 4726.76 4943.12C4730.18 4943.81 4732 4944.15 4732.23 4944.15L4740.09 4944.49H4742.14L4744.54 4944.15L4810.5 4940.39L4822.81 4939.02C4844.91 4939.02 4855.96 4931.96 4855.96 4917.83ZM4713.78 5008.41C4713.78 5034.38 4723.57 5056.15 4743.17 5073.69C4762.77 5091.24 4787.6 5100.01 4817.68 5100.01C4829.76 5100.01 4840.7 5098.3 4850.49 5094.88C4860.52 5091.24 4871.34 5086.91 4882.96 5081.89C4894.81 5076.88 4902.22 5074.38 4905.18 5074.38C4914.3 5074.38 4918.85 5079.27 4918.85 5089.07C4918.85 5102.29 4901.99 5116.42 4868.27 5131.46C4846.39 5141.25 4822.92 5146.15 4797.86 5146.15H4790.34C4747.5 5146.15 4711.95 5133.16 4683.7 5107.19C4668.43 5093.06 4656.58 5075.06 4648.15 5053.18C4639.72 5031.08 4635.5 5007.38 4635.5 4982.09L4635.85 4974.23V4966.37C4635.85 4944.49 4640.86 4922.96 4650.88 4901.77C4661.14 4880.58 4673.33 4863.14 4687.46 4849.47C4717.31 4820.76 4752.74 4806.29 4793.76 4806.06C4855.74 4806.06 4896.98 4830.22 4917.49 4878.53C4923.87 4893.79 4927.06 4907.81 4927.06 4920.57V4927.4C4927.06 4943.12 4920.56 4953.72 4907.57 4959.19C4894.59 4964.43 4863.94 4968.76 4815.63 4972.18C4767.32 4975.6 4741.12 4977.87 4737.02 4979.01C4721.52 4982.89 4713.78 4992.69 4713.78 5008.41ZM5205.28 4917.83V4907.24C5205.28 4890.37 5199.24 4875.22 5187.16 4861.78C5175.09 4848.11 5160.28 4841.27 5142.73 4841.27H5136.24C5133.05 4841.73 5130.88 4841.95 5129.74 4841.95C5113.79 4841.95 5098.64 4851.07 5084.28 4869.3C5070.16 4887.53 5063.09 4907.01 5063.09 4927.74V4932.19C5063.09 4939.48 5067.42 4943.12 5076.08 4943.12C5079.5 4943.81 5081.32 4944.15 5081.55 4944.15L5089.41 4944.49H5091.46L5093.85 4944.15L5159.82 4940.39L5172.12 4939.02C5194.23 4939.02 5205.28 4931.96 5205.28 4917.83ZM5063.09 5008.41C5063.09 5034.38 5072.89 5056.15 5092.49 5073.69C5112.08 5091.24 5136.92 5100.01 5167 5100.01C5179.07 5100.01 5190.01 5098.3 5199.81 5094.88C5209.84 5091.24 5220.66 5086.91 5232.28 5081.89C5244.13 5076.88 5251.54 5074.38 5254.5 5074.38C5263.61 5074.38 5268.17 5079.27 5268.17 5089.07C5268.17 5102.29 5251.31 5116.42 5217.58 5131.46C5195.71 5141.25 5172.24 5146.15 5147.17 5146.15H5139.65C5096.82 5146.15 5061.27 5133.16 5033.01 5107.19C5017.75 5093.06 5005.9 5075.06 4997.47 5053.18C4989.04 5031.08 4984.82 5007.38 4984.82 4982.09L4985.16 4974.23V4966.37C4985.16 4944.49 4990.18 4922.96 5000.2 4901.77C5010.46 4880.58 5022.65 4863.14 5036.77 4849.47C5066.62 4820.76 5102.06 4806.29 5143.07 4806.06C5205.05 4806.06 5246.29 4830.22 5266.8 4878.53C5273.18 4893.79 5276.37 4907.81 5276.37 4920.57V4927.4C5276.37 4943.12 5269.88 4953.72 5256.89 4959.19C5243.9 4964.43 5213.25 4968.76 5164.95 4972.18C5116.64 4975.6 5090.44 4977.87 5086.33 4979.01C5070.84 4982.89 5063.09 4992.69 5063.09 5008.41ZM5604.16 4987.56V4967.39C5604.16 4930.71 5596.64 4901.43 5581.6 4879.55C5566.56 4857.68 5547.65 4846.74 5524.86 4846.74H5521.44C5508.91 4846.74 5496.72 4850.27 5484.87 4857.33C5473.02 4864.17 5463.91 4872.94 5457.53 4883.65C5451.37 4894.36 5448.3 4925.92 5448.3 4978.33V5007.38L5448.64 5011.14V5025.5L5448.98 5028.92V5036.09C5449.44 5041.11 5449.66 5044.75 5449.66 5047.03C5449.66 5066.4 5455.82 5081.55 5468.12 5092.49C5480.65 5103.2 5497.4 5108.55 5518.37 5108.55H5521.78C5546.85 5108.55 5566.79 5097.05 5581.6 5074.03C5596.64 5051.02 5604.16 5022.19 5604.16 4987.56ZM5467.44 5134.53C5455.59 5134.53 5449.66 5149.8 5449.66 5180.33C5449.66 5211.09 5451.83 5230.58 5456.16 5238.78C5460.72 5247.21 5467.89 5254.84 5477.69 5261.68C5487.72 5268.52 5492.73 5274.33 5492.73 5279.11C5492.73 5289.37 5477.92 5294.49 5448.3 5294.49H5414.12C5362.16 5294.49 5336.19 5289.25 5336.19 5278.77C5336.19 5275.58 5342.8 5267.6 5356.01 5254.84C5363.08 5248.01 5368.66 5234.11 5372.76 5213.14C5376.86 5192.41 5378.91 5152.99 5378.91 5094.88V4953.04L5378.23 4916.46C5378.23 4894.13 5375.27 4877.84 5369.34 4867.59C5367.06 4863.71 5361.14 4858.47 5351.57 4851.87C5342 4845.03 5337.21 4839.22 5337.21 4834.43C5337.21 4829.65 5339.95 4825.89 5345.42 4823.15C5363.19 4814.5 5386.66 4810.17 5415.83 4810.17C5423.35 4810.17 5430.98 4814.72 5438.73 4823.84C5446.7 4832.95 5451.15 4837.51 5452.06 4837.51C5455.7 4837.51 5462.99 4834.43 5473.93 4828.28C5485.1 4821.9 5491.02 4818.48 5491.71 4818.03C5511.3 4808.91 5528.28 4804.36 5542.63 4804.36H5560.41C5573.17 4804.36 5587.64 4807.89 5603.81 4814.95C5634.8 4828.4 5657.02 4853.57 5670.46 4890.49C5678.44 4912.14 5682.43 4933.21 5682.43 4953.72V4972.86C5682.43 4994.05 5678.1 5015.81 5669.44 5038.14C5652.35 5082.35 5623.41 5112.43 5582.62 5128.38C5565.31 5135.21 5545.14 5138.63 5522.12 5138.63L5467.44 5134.53ZM5873.83 4701.13C5873.83 4711.16 5869.5 4720.5 5860.85 4729.16C5852.41 4737.59 5843.98 4741.81 5835.55 4741.81C5833.73 4742.26 5832.25 4742.49 5831.11 4742.49L5823.59 4743.17C5812.2 4743.17 5801.94 4739.41 5792.83 4731.89C5783.94 4724.38 5779.5 4714.69 5779.5 4702.84V4696.69C5779.5 4684.84 5784.17 4674.93 5793.51 4666.95C5803.08 4658.75 5814.02 4654.65 5826.32 4654.65H5828.03L5839.65 4656.02C5846.72 4656.02 5854.01 4659.89 5861.53 4667.64C5869.28 4675.16 5873.15 4682.79 5873.15 4690.54L5873.83 4693.61V4701.13ZM5765.14 4853.57C5753.29 4847.88 5747.37 4842.52 5747.37 4837.51C5747.37 4832.5 5749.76 4828.51 5754.55 4825.55C5771.18 4815.52 5797.5 4810.51 5833.5 4810.51H5843.41C5855.72 4810.51 5862.67 4816.2 5864.26 4827.6C5865.18 4833.75 5865.63 4875.22 5865.63 4952.01C5865.63 5028.57 5867.23 5072.55 5870.42 5083.95C5873.61 5095.11 5881.24 5103.77 5893.32 5109.92C5905.39 5115.85 5911.43 5121.88 5911.43 5128.04C5911.43 5136.7 5883.18 5141.03 5826.67 5141.03L5816.41 5141.37H5774.71C5758.08 5141.37 5749.76 5137.27 5749.76 5129.06C5749.76 5122.23 5754.77 5115.62 5764.8 5109.24C5775.05 5102.86 5782.12 5095.79 5785.99 5088.05C5790.32 5079.62 5792.49 5059.91 5792.49 5028.92L5792.83 5017.98V5007.38L5793.17 4991.32V4980.72L5793.51 4970.13C5793.51 4916.12 5791.69 4884.68 5788.04 4875.79C5784.62 4866.68 5776.99 4859.27 5765.14 4853.57ZM6015 5137.27C5982.87 5137.27 5966.8 5132.71 5966.8 5123.59C5966.8 5116.07 5971.02 5109.92 5979.45 5105.14C5994.72 5096.48 6003.6 5088.73 6006.11 5081.89C6008.62 5074.83 6009.87 5041.9 6009.87 4983.12C6009.87 4924.1 6008.05 4889.58 6004.4 4879.55C6000.98 4869.3 5994.6 4860.87 5985.26 4854.26C5975.92 4847.65 5971.25 4842.29 5971.25 4838.19C5971.25 4834.09 5974.32 4830.22 5980.47 4826.57C5994.83 4818.14 6017.62 4813.93 6048.83 4813.93C6058.18 4813.93 6065.47 4817.12 6070.71 4823.5C6072.53 4825.77 6075.04 4830.79 6078.23 4838.54C6081.65 4846.05 6083.93 4849.81 6085.06 4849.81C6089.39 4849.59 6096.12 4846.51 6105.23 4840.59C6136.68 4819.39 6165.16 4808.8 6190.68 4808.8H6191.36H6202.3C6220.76 4808.8 6237.39 4813.36 6252.2 4822.47C6267.01 4831.59 6278.41 4845.26 6286.38 4863.49C6294.59 4881.72 6298.69 4921.48 6298.69 4982.77C6298.69 5043.84 6299.94 5078.02 6302.45 5085.31C6305.18 5092.38 6312.59 5098.98 6324.66 5105.14C6336.97 5111.29 6343.12 5117.33 6343.12 5123.25C6343.12 5133.51 6310.76 5138.63 6246.05 5138.63H6235.8C6215.29 5138.63 6205.04 5133.73 6205.04 5123.94C6205.04 5121.88 6207.54 5116.99 6212.55 5109.24C6217.57 5101.26 6220.99 5092.49 6222.81 5082.92C6224.63 5073.35 6225.54 5041.9 6225.54 4988.58C6225.54 4935.04 6222.24 4900.63 6215.63 4885.36C6206.52 4864.4 6191.36 4853.92 6170.17 4853.92C6154.68 4853.92 6139.64 4857.56 6125.05 4864.85C6110.7 4871.92 6100.22 4882.06 6093.61 4895.27C6087.23 4908.26 6084.04 4939.59 6084.04 4989.27C6084.04 5038.71 6085.41 5068.68 6088.14 5079.16C6090.88 5089.41 6094.18 5097.73 6098.05 5104.11L6110.7 5124.62C6110.7 5133.51 6092.81 5137.95 6057.04 5137.95L6036.19 5137.27H6015ZM6535.55 4827.94H6526.67C6514.59 4827.94 6502.85 4834.89 6491.46 4848.79C6480.07 4862.69 6474.37 4878.87 6474.37 4897.32L6473.69 4902.79L6473.35 4911.34V4920.22L6473.69 4922.96C6473.69 4946.66 6478.81 4965.8 6489.07 4980.38C6499.32 4994.96 6514.59 5002.26 6534.87 5002.26H6537.26C6552.98 5002.26 6566.43 4996.1 6577.59 4983.8C6588.76 4971.49 6594.34 4955.2 6594.34 4934.92V4921.59C6593.66 4916.12 6593.32 4911.68 6593.32 4908.26C6593.32 4886.61 6587.28 4867.82 6575.2 4851.87C6563.35 4835.91 6550.14 4827.94 6535.55 4827.94ZM6505.13 5131.8C6489.18 5131.8 6475.62 5137.38 6464.46 5148.54C6453.29 5159.71 6447.71 5173.72 6447.71 5190.59V5193.32C6447.71 5212.69 6455.34 5227.96 6470.61 5239.12C6485.88 5250.29 6506.73 5255.87 6533.16 5255.87H6542.05C6573.95 5255.87 6599.58 5248.58 6618.95 5233.99C6638.32 5219.41 6648 5202.32 6648 5182.72L6647.66 5179.99C6647.66 5167 6642.31 5156.52 6631.6 5148.54C6620.89 5140.8 6608.24 5136.92 6593.66 5136.92C6584.54 5135.78 6577.94 5135.21 6573.83 5135.21L6562.21 5134.19H6556.4L6535.89 5132.82L6521.88 5131.8H6505.13ZM6715.34 4824.18C6715.34 4837.17 6707.13 4845.49 6690.73 4849.13C6674.32 4852.55 6666.12 4859.27 6666.12 4869.3L6667.14 4876.47L6668.51 4884.68L6670.22 4893.56C6671.36 4901.08 6671.93 4911.68 6671.93 4925.35C6671.93 4939.02 6668.06 4953.15 6660.31 4967.73C6638.66 5008.07 6596.96 5030.17 6535.21 5034.04C6515.39 5035.41 6502.74 5037.12 6497.27 5039.17C6485.42 5043.73 6479.5 5051.36 6479.5 5062.07C6479.5 5072.78 6488.27 5080.3 6505.82 5084.63C6508.32 5085.31 6531 5087.48 6573.83 5091.12C6616.67 5094.54 6645.27 5099.9 6659.62 5107.19C6689.93 5122.23 6705.08 5143.99 6705.08 5172.47C6705.08 5209.84 6688.34 5240.26 6654.84 5263.73C6621.57 5287.2 6577.94 5298.94 6523.93 5298.94C6485.88 5298.94 6454.21 5291.64 6428.91 5277.06C6417.29 5270.45 6407.83 5261.79 6400.54 5251.08C6393.48 5240.6 6389.95 5229.66 6389.95 5218.27C6389.95 5197.99 6395.99 5181.13 6408.06 5167.69C6427.43 5146.27 6437.12 5134.87 6437.12 5133.51C6437.12 5132.14 6432.9 5126.1 6424.47 5115.39C6416.04 5104.68 6411.82 5093.52 6411.82 5081.89C6411.82 5070.27 6417.29 5057.74 6428.23 5044.3C6439.39 5030.62 6444.98 5022.99 6444.98 5021.4C6444.98 5019.8 6438.14 5008.18 6424.47 4986.53C6410.8 4964.66 6403.96 4943.92 6403.96 4924.33C6403.96 4904.73 6408.18 4887.3 6416.61 4872.03C6440.53 4828.51 6485.08 4806.75 6550.25 4806.75H6560.16L6607.67 4809.82L6625.1 4810.51C6631.03 4810.74 6637.07 4810.85 6643.22 4810.85L6679.45 4808.46C6703.38 4808.46 6715.34 4813.7 6715.34 4824.18Z" fill="black"/>
<rect x="3286" y="5741" width="2829.33" height="610.38" fill="white"/>
<path d="M4357.4 5784.15C4357.4 5789.1 4349.84 5796.39 4334.74 5806.02C4319.9 5815.66 4310.65 5828.81 4307.01 5845.48C4303.62 5861.88 4301.93 5927.38 4301.93 6041.96C4301.93 6156.28 4304.01 6221.78 4308.18 6238.45C4312.6 6254.85 4322.11 6267.22 4336.69 6275.56C4351.54 6283.63 4358.96 6291.18 4358.96 6298.21C4358.96 6307.85 4347.11 6312.66 4323.41 6312.66L4314.82 6312.27L4296.85 6311.88C4290.86 6311.62 4284.87 6311.49 4278.88 6311.49L4261.69 6310.71H4208.96C4166.51 6310.71 4145.29 6306.94 4145.29 6299.38V6293.91C4145.29 6288.97 4153.62 6281.67 4170.29 6272.04C4187.21 6262.14 4197.76 6248.34 4201.93 6230.63C4206.09 6212.66 4208.18 6148.99 4208.18 6039.62C4208.18 5929.98 4205.7 5866.05 4200.76 5847.82C4195.81 5829.33 4188 5817.22 4177.32 5811.49C4155.96 5799.77 4145.29 5790.92 4145.29 5784.93C4145.29 5774.77 4185.52 5769.7 4265.99 5769.7L4308.96 5768.91H4334.35C4349.71 5768.91 4357.4 5773.99 4357.4 5784.15ZM4489.82 6308.76C4453.1 6308.76 4434.74 6303.55 4434.74 6293.13C4434.74 6284.54 4439.56 6277.51 4449.19 6272.04C4466.64 6262.14 4476.8 6253.29 4479.66 6245.48C4482.53 6237.4 4483.96 6199.77 4483.96 6132.59C4483.96 6065.14 4481.88 6025.69 4477.71 6014.23C4473.8 6002.51 4466.51 5992.87 4455.83 5985.32C4445.16 5977.77 4439.82 5971.65 4439.82 5966.96C4439.82 5962.27 4443.33 5957.85 4450.37 5953.68C4466.77 5944.04 4492.81 5939.23 4528.49 5939.23C4539.17 5939.23 4547.5 5942.87 4553.49 5950.16C4555.57 5952.77 4558.44 5958.5 4562.08 5967.35C4565.99 5975.95 4568.59 5980.24 4569.9 5980.24C4574.84 5979.98 4582.53 5976.47 4592.94 5969.7C4628.88 5945.48 4661.43 5933.37 4690.6 5933.37H4691.38H4703.88C4724.97 5933.37 4743.99 5938.58 4760.91 5948.99C4777.84 5959.41 4790.86 5975.03 4799.97 5995.87C4809.35 6016.7 4814.04 6062.14 4814.04 6132.2C4814.04 6201.99 4815.47 6241.05 4818.33 6249.38C4821.46 6257.46 4829.92 6265.01 4843.72 6272.04C4857.79 6279.07 4864.82 6285.97 4864.82 6292.74C4864.82 6304.46 4827.84 6310.32 4753.88 6310.32H4742.16C4718.72 6310.32 4707.01 6304.72 4707.01 6293.52C4707.01 6291.18 4709.87 6285.58 4715.6 6276.73C4721.33 6267.61 4725.24 6257.59 4727.32 6246.65C4729.4 6235.71 4730.44 6199.77 4730.44 6138.84C4730.44 6077.64 4726.67 6038.32 4719.12 6020.87C4708.7 5996.91 4691.38 5984.93 4667.16 5984.93C4649.45 5984.93 4632.27 5989.1 4615.6 5997.43C4599.19 6005.5 4587.21 6017.09 4579.66 6032.2C4572.37 6047.04 4568.72 6082.85 4568.72 6139.62C4568.72 6196.13 4570.29 6230.37 4573.41 6242.35C4576.54 6254.07 4580.31 6263.58 4584.74 6270.87L4599.19 6294.31C4599.19 6304.46 4578.75 6309.54 4537.87 6309.54L4514.04 6308.76H4489.82ZM5207.79 6043.91C5196.85 6043.91 5181.62 6032.59 5162.08 6009.93C5142.81 5987.27 5120.42 5975.95 5094.9 5975.95C5069.64 5975.95 5048.41 5988.58 5031.22 6013.84C5014.04 6038.84 5005.44 6074.38 5005.44 6120.48C5005.44 6166.57 5015.99 6202.64 5037.08 6228.68C5058.44 6254.46 5086.17 6267.35 5120.29 6267.35C5139.04 6267.35 5154.66 6265.01 5167.16 6260.32C5179.92 6255.63 5191.64 6250.69 5202.32 6245.48C5213.26 6240.01 5220.94 6237.27 5225.37 6237.27C5232.92 6237.27 5236.69 6242.22 5236.69 6252.12C5236.69 6267.22 5221.46 6282.2 5190.99 6297.04C5160.52 6311.88 5130.96 6319.31 5102.32 6319.31C5046.59 6319.31 5001.8 6301.86 4967.94 6266.96C4954.14 6252.64 4942.55 6234.28 4933.18 6211.88C4923.8 6189.23 4919.12 6165.01 4919.12 6139.23V6120.09C4919.12 6119.57 4919.12 6118.91 4919.12 6118.13C4919.12 6117.61 4919.12 6117.09 4919.12 6116.57C4919.12 6093.91 4924.19 6070.48 4934.35 6046.26C4954.4 5998.86 4986.69 5966.05 5031.22 5947.82C5057.01 5937.4 5082.66 5932.2 5108.18 5932.2H5117.16C5152.32 5932.2 5182.14 5938.32 5206.62 5950.56C5226.41 5960.45 5236.3 5976.99 5236.3 6000.16C5236.3 6015.53 5233.18 6026.73 5226.93 6033.76C5220.94 6040.53 5214.56 6043.91 5207.79 6043.91ZM5369.51 6321.26C5355.96 6321.26 5343.59 6316.44 5332.4 6306.81C5321.2 6297.17 5315.6 6284.54 5315.6 6268.91V6265.4C5315.6 6250.29 5321.33 6237.79 5332.79 6227.9C5344.51 6218 5356.35 6213.06 5368.33 6213.06H5375.37C5379.27 6213.84 5382.14 6214.23 5383.96 6214.23C5393.07 6214.23 5402.58 6219.17 5412.47 6229.07C5422.37 6238.97 5427.32 6250.42 5427.32 6263.45V6268.91C5427.32 6280.89 5422.5 6292.48 5412.87 6303.68C5403.49 6314.62 5392.68 6320.09 5380.44 6320.09L5371.46 6321.26H5369.51Z" fill="black"/>
<ellipse cx="4701" cy="3106.33" rx="1500" ry="129.326" fill="black"/>
<ellipse cx="4701" cy="5477.33" rx="1500" ry="129.326" fill="black"/>
<ellipse cx="4701" cy="4364.33" rx="1500" ry="129.326" fill="black"/>
</svg>
