<svg width="18489" height="14181" viewBox="0 0 18489 14181" fill="none" xmlns="http://www.w3.org/2000/svg">
<path d="M9244.5 0L17250.5 10635.8H1238.53L9244.5 0Z" fill="white"/>
<rect x="6271" y="3890" width="5602" height="1021.81" fill="white"/>
<path d="M7569.26 4109.13C7554.61 4109.13 7545.66 4114.67 7542.41 4125.73C7540.45 4132.57 7539.48 4163.33 7539.48 4218.02V4312.74C7539.48 4332.93 7541.27 4345.46 7544.85 4350.34C7548.43 4354.9 7559.5 4357.18 7578.05 4357.18H7598.56L7602.95 4356.69L7632.25 4355.23C7635.18 4354.9 7637.95 4354.74 7640.55 4354.74C7671.8 4354.74 7698 4343.18 7719.16 4320.07C7740.32 4296.96 7750.9 4268.96 7750.9 4236.08V4222.9C7750.9 4189.37 7739.35 4162.19 7716.23 4141.36C7693.45 4120.2 7665.45 4109.62 7632.25 4109.62L7623.46 4108.64L7610.76 4108.16H7581.47C7576.26 4108.81 7572.19 4109.13 7569.26 4109.13ZM7627.85 4407.47H7585.86C7560.8 4407.47 7546.64 4410.89 7543.38 4417.73C7540.45 4424.56 7538.99 4445.23 7538.99 4479.74V4619.87C7538.99 4650.15 7542.57 4668.7 7549.73 4675.54C7557.22 4682.05 7577.72 4685.3 7611.25 4685.3H7640.06C7683.03 4685.3 7717.86 4674.07 7744.55 4651.61C7771.25 4628.83 7784.59 4598.88 7784.59 4561.77V4536.38C7784.59 4496.34 7769.94 4464.93 7740.65 4442.14C7711.35 4419.03 7673.75 4407.47 7627.85 4407.47ZM7616.62 4055.91C7732.51 4055.91 7806.89 4086.35 7839.77 4147.22C7851.49 4168.7 7857.35 4193.44 7857.35 4221.44C7857.35 4249.11 7850.67 4273.52 7837.33 4294.68C7824.31 4315.84 7812.59 4330.65 7802.17 4339.11C7792.08 4347.25 7781.66 4354.57 7770.92 4361.08C7760.5 4367.27 7755.3 4371.34 7755.3 4373.29C7755.3 4375.24 7768.32 4382.89 7794.36 4396.24C7820.73 4409.26 7841.56 4424.72 7856.86 4442.63C7884.2 4475.18 7897.87 4508.71 7897.87 4543.21V4555.91C7897.87 4613.2 7874.44 4658.77 7827.56 4692.63C7810.63 4705 7786.87 4715.9 7756.27 4725.34C7726 4734.46 7689.87 4739.01 7647.87 4739.01H7596.12L7583.42 4738.53C7574.96 4738.2 7566.33 4738.04 7557.54 4738.04L7544.85 4737.55C7536.38 4737.22 7527.92 4737.06 7519.46 4737.06L7506.76 4736.57C7498.3 4736.25 7489.83 4736.08 7481.37 4736.08H7443.77C7387.13 4736.08 7358.81 4730.71 7358.81 4719.97C7358.81 4708.9 7367.44 4698.65 7384.69 4689.21C7402.27 4679.44 7413.66 4663.01 7418.87 4639.89C7424.4 4616.46 7427.17 4562.09 7427.17 4476.81V4316.16L7426.19 4265.38C7425.87 4256.92 7425.71 4236.74 7425.71 4204.83C7425.71 4172.93 7422.61 4150.64 7416.43 4137.94C7410.57 4124.92 7398.69 4114.18 7380.78 4105.71C7362.88 4097.25 7353.93 4089.76 7353.93 4083.25C7353.93 4073.81 7358.49 4067.47 7367.6 4064.21C7376.72 4060.63 7404.71 4058.84 7451.59 4058.84L7564.87 4055.91H7616.62ZM8251.39 4508.55H8243.09C8200.45 4508.55 8164.8 4518.15 8136.16 4537.35C8107.84 4556.23 8093.68 4579.83 8093.68 4608.16V4617.92C8093.68 4634.52 8098.72 4649.5 8108.81 4662.84C8119.23 4675.86 8132.57 4682.37 8148.85 4682.37L8154.71 4683.35H8169.36C8203.21 4683.35 8230.88 4669.52 8252.37 4641.85C8261.81 4629.8 8266.53 4605.06 8266.53 4567.63C8266.53 4564.7 8266.53 4561.77 8266.53 4558.84L8267.01 4547.12V4535.4C8267.01 4517.5 8261.81 4508.55 8251.39 4508.55ZM8014.09 4350.83C8014.09 4326.74 8033.13 4305.26 8071.21 4286.38C8109.63 4267.17 8149.34 4257.57 8190.35 4257.57C8191.66 4257.57 8192.96 4257.57 8194.26 4257.57C8233.32 4257.57 8264.57 4262.29 8288.01 4271.73C8335.54 4290.61 8362.72 4330.65 8369.55 4391.85C8370.2 4398.03 8370.53 4439.05 8370.53 4514.89C8370.53 4590.41 8372.48 4634.69 8376.39 4647.71C8380.62 4660.73 8391.69 4670.33 8409.59 4676.51C8427.82 4682.7 8436.94 4688.56 8436.94 4694.09C8436.94 4705.81 8431.08 4714.76 8419.36 4720.95C8395.92 4733.32 8372.81 4739.5 8350.02 4739.5C8327.56 4739.5 8310.8 4734.29 8299.73 4723.88C8279.87 4705.32 8269.29 4696.05 8267.99 4696.05C8266.69 4696.05 8248.3 4704.35 8212.82 4720.95C8177.33 4737.22 8146.25 4745.36 8119.55 4745.36C8079.51 4745.36 8048.1 4734.29 8025.32 4712.16C8002.53 4690.02 7991.14 4663.17 7991.14 4631.59V4619.39C7991.14 4585.53 8005.78 4555.75 8035.08 4530.03C8064.38 4504.31 8117.11 4484.29 8193.28 4469.97C8220.95 4464.76 8238.37 4459.88 8245.53 4455.32C8259.85 4446.21 8267.01 4427.65 8267.01 4399.66C8267.01 4371.66 8259.53 4350.18 8244.55 4335.21C8229.58 4320.23 8209.56 4312.74 8184.5 4312.74C8159.43 4312.74 8135.18 4327.39 8111.74 4356.69C8088.63 4385.66 8067.47 4400.15 8048.26 4400.15C8025.48 4400.15 8014.09 4383.71 8014.09 4350.83ZM8512.62 4717.53C8512.62 4710.69 8519.94 4701.91 8534.59 4691.16C8549.57 4680.42 8559.66 4663.66 8564.87 4640.87C8570.07 4617.76 8572.68 4530.52 8572.68 4379.15C8572.68 4227.78 8570.89 4142.01 8567.31 4121.83C8564.05 4101.64 8555.75 4087.16 8542.41 4078.37C8520.92 4064.37 8510.18 4055.75 8510.18 4052.49V4046.63C8510.18 4041.1 8514.9 4036.22 8524.34 4031.98C8553.64 4019.29 8592.7 4012.94 8641.53 4012.94H8651.29C8667.89 4012.94 8677.5 4024.17 8680.1 4046.63C8680.43 4049.56 8680.59 4074.14 8680.59 4120.36V4225.34L8680.1 4245.36V4276.12L8679.61 4296.14C8679.61 4296.14 8679.61 4347.74 8679.61 4450.93C8679.61 4547.28 8681.08 4607.02 8684.01 4630.13C8687.26 4652.91 8694.59 4669.52 8705.98 4679.93C8707.28 4680.91 8714.12 4685.14 8726.49 4692.63C8738.86 4700.11 8745.04 4707.76 8745.04 4715.58C8745.04 4726.97 8724.86 4732.67 8684.5 4732.67L8664.48 4733.64H8644.46L8564.38 4735.11H8554.12C8526.45 4735.11 8512.62 4729.25 8512.62 4717.53ZM9078.54 4508.55H9070.24C9027.59 4508.55 8991.95 4518.15 8963.3 4537.35C8934.98 4556.23 8920.82 4579.83 8920.82 4608.16V4617.92C8920.82 4634.52 8925.87 4649.5 8935.96 4662.84C8946.38 4675.86 8959.72 4682.37 8976 4682.37L8981.86 4683.35H8996.51C9030.36 4683.35 9058.03 4669.52 9079.51 4641.85C9088.95 4629.8 9093.68 4605.06 9093.68 4567.63C9093.68 4564.7 9093.68 4561.77 9093.68 4558.84L9094.16 4547.12V4535.4C9094.16 4517.5 9088.95 4508.55 9078.54 4508.55ZM8841.23 4350.83C8841.23 4326.74 8860.28 4305.26 8898.36 4286.38C8936.77 4267.17 8976.49 4257.57 9017.5 4257.57C9018.81 4257.57 9020.11 4257.57 9021.41 4257.57C9060.47 4257.57 9091.72 4262.29 9115.16 4271.73C9162.69 4290.61 9189.87 4330.65 9196.7 4391.85C9197.35 4398.03 9197.68 4439.05 9197.68 4514.89C9197.68 4590.41 9199.63 4634.69 9203.54 4647.71C9207.77 4660.73 9218.84 4670.33 9236.74 4676.51C9254.97 4682.7 9264.09 4688.56 9264.09 4694.09C9264.09 4705.81 9258.23 4714.76 9246.51 4720.95C9223.07 4733.32 9199.96 4739.5 9177.17 4739.5C9154.71 4739.5 9137.95 4734.29 9126.88 4723.88C9107.02 4705.32 9096.44 4696.05 9095.14 4696.05C9093.84 4696.05 9075.45 4704.35 9039.96 4720.95C9004.48 4737.22 8973.4 4745.36 8946.7 4745.36C8906.66 4745.36 8875.25 4734.29 8852.46 4712.16C8829.68 4690.02 8818.28 4663.17 8818.28 4631.59V4619.39C8818.28 4585.53 8832.93 4555.75 8862.23 4530.03C8891.53 4504.31 8944.26 4484.29 9020.43 4469.97C9048.1 4464.76 9065.52 4459.88 9072.68 4455.32C9087 4446.21 9094.16 4427.65 9094.16 4399.66C9094.16 4371.66 9086.68 4350.18 9071.7 4335.21C9056.73 4320.23 9036.71 4312.74 9011.64 4312.74C8986.58 4312.74 8962.33 4327.39 8938.89 4356.69C8915.78 4385.66 8894.62 4400.15 8875.41 4400.15C8852.63 4400.15 8841.23 4383.71 8841.23 4350.83ZM9410.08 4730.71C9364.18 4730.71 9341.23 4724.2 9341.23 4711.18C9341.23 4700.44 9347.26 4691.65 9359.3 4684.82C9381.11 4672.45 9393.81 4661.38 9397.39 4651.61C9400.97 4641.52 9402.76 4594.48 9402.76 4510.5C9402.76 4426.19 9400.15 4376.87 9394.94 4362.55C9390.06 4347.9 9380.95 4335.86 9367.6 4326.42C9354.25 4316.98 9347.58 4309.33 9347.58 4303.47C9347.58 4297.61 9351.98 4292.07 9360.76 4286.87C9381.27 4274.82 9413.82 4268.8 9458.42 4268.8C9471.77 4268.8 9482.18 4273.36 9489.67 4282.47C9492.28 4285.73 9495.86 4292.89 9500.41 4303.96C9505.3 4314.7 9508.55 4320.07 9510.18 4320.07C9516.36 4319.74 9525.97 4315.35 9538.99 4306.89C9583.91 4276.61 9624.6 4261.48 9661.06 4261.48H9662.03H9677.66C9704.03 4261.48 9727.79 4267.99 9748.95 4281.01C9770.11 4294.03 9786.38 4313.56 9797.78 4339.6C9809.5 4365.64 9815.35 4422.45 9815.35 4510.01C9815.35 4597.25 9817.15 4646.08 9820.73 4656.49C9824.63 4666.59 9835.21 4676.03 9852.46 4684.82C9870.04 4693.6 9878.83 4702.23 9878.83 4710.69C9878.83 4725.34 9832.61 4732.67 9740.16 4732.67H9725.51C9696.21 4732.67 9681.57 4725.67 9681.57 4711.67C9681.57 4708.74 9685.15 4701.74 9692.31 4690.67C9699.47 4679.28 9704.35 4666.75 9706.96 4653.08C9709.56 4639.41 9710.86 4594.48 9710.86 4518.31C9710.86 4441.81 9706.14 4392.66 9696.7 4370.85C9683.68 4340.9 9662.03 4325.93 9631.76 4325.93C9609.63 4325.93 9588.14 4331.14 9567.31 4341.55C9546.8 4351.64 9531.83 4366.13 9522.39 4385.01C9513.27 4403.57 9508.71 4448.32 9508.71 4519.29C9508.71 4589.93 9510.67 4632.73 9514.57 4647.71C9518.48 4662.35 9523.2 4674.24 9528.73 4683.35L9546.8 4712.65C9546.8 4725.34 9521.25 4731.69 9470.14 4731.69L9440.35 4730.71H9410.08ZM10307.5 4399.66C10293.9 4399.66 10274.8 4385.5 10250.4 4357.18C10226.3 4328.86 10198.3 4314.7 10166.4 4314.7C10134.9 4314.7 10108.3 4330.49 10086.8 4362.06C10065.4 4393.31 10054.6 4437.74 10054.6 4495.36C10054.6 4552.98 10067.8 4598.06 10094.2 4630.62C10120.9 4662.84 10155.5 4678.96 10198.2 4678.96C10221.6 4678.96 10241.1 4676.03 10256.8 4670.17C10272.7 4664.31 10287.4 4658.12 10300.7 4651.61C10314.4 4644.78 10324 4641.36 10329.5 4641.36C10339 4641.36 10343.7 4647.54 10343.7 4659.91C10343.7 4678.79 10324.6 4697.51 10286.5 4716.07C10248.5 4734.62 10211.5 4743.9 10175.7 4743.9C10106 4743.9 10050.1 4722.09 10007.7 4678.47C9990.48 4660.56 9976 4637.61 9964.28 4609.62C9952.56 4581.3 9946.7 4551.03 9946.7 4518.8V4494.87C9946.7 4494.22 9946.7 4493.41 9946.7 4492.43C9946.7 4491.78 9946.7 4491.13 9946.7 4490.48C9946.7 4462.16 9953.05 4432.86 9965.75 4402.59C9990.81 4343.34 10031.2 4302.33 10086.8 4279.54C10119.1 4266.52 10151.1 4260.01 10183 4260.01H10194.3C10238.2 4260.01 10275.5 4267.66 10306.1 4282.96C10330.8 4295.33 10343.2 4316 10343.2 4344.97C10343.2 4364.18 10339.3 4378.17 10331.5 4386.96C10324 4395.43 10316 4399.66 10307.5 4399.66ZM10734.8 4417.24V4402.1C10734.8 4378.01 10726.2 4356.36 10708.9 4337.16C10691.7 4317.63 10670.5 4307.86 10645.4 4307.86H10636.2C10631.6 4308.51 10628.5 4308.84 10626.9 4308.84C10604.1 4308.84 10582.4 4321.86 10561.9 4347.9C10541.8 4373.94 10531.7 4401.77 10531.7 4431.4V4437.74C10531.7 4448.16 10537.8 4453.37 10550.2 4453.37C10555.1 4454.35 10557.7 4454.83 10558 4454.83L10569.3 4455.32H10572.2L10575.6 4454.83L10669.8 4449.46L10687.4 4447.51C10719 4447.51 10734.8 4437.42 10734.8 4417.24ZM10531.7 4546.63C10531.7 4583.74 10545.7 4614.83 10573.7 4639.89C10601.7 4664.96 10637.1 4677.49 10680.1 4677.49C10697.4 4677.49 10713 4675.05 10727 4670.17C10741.3 4664.96 10756.8 4658.77 10773.4 4651.61C10790.3 4644.45 10800.9 4640.87 10805.1 4640.87C10818.1 4640.87 10824.6 4647.87 10824.6 4661.87C10824.6 4680.75 10800.5 4700.93 10752.4 4722.41C10721.1 4736.41 10687.6 4743.41 10651.8 4743.41H10641C10579.8 4743.41 10529.1 4724.85 10488.7 4687.74C10466.9 4667.56 10450 4641.85 10437.9 4610.6C10425.9 4579.02 10419.8 4545.17 10419.8 4509.03L10420.3 4497.8V4486.57C10420.3 4455.32 10427.5 4424.56 10441.8 4394.29C10456.5 4364.01 10473.9 4339.11 10494.1 4319.58C10536.7 4278.57 10587.3 4257.89 10645.9 4257.57C10734.5 4257.57 10793.4 4292.07 10822.7 4361.08C10831.8 4382.89 10836.4 4402.91 10836.4 4421.14V4430.91C10836.4 4453.37 10827.1 4468.51 10808.5 4476.32C10790 4483.81 10746.2 4489.99 10677.2 4494.87C10608.2 4499.76 10570.7 4503.01 10564.9 4504.64C10542.7 4510.17 10531.7 4524.17 10531.7 4546.63Z" fill="black"/>
<rect x="6248" y="5797" width="5602" height="1021.81" fill="white"/>
<path d="M7161.3 6082.41V6267.46C7161.3 6290.25 7164.4 6305.06 7170.58 6311.9C7176.77 6318.41 7191.9 6321.66 7215.99 6321.66H7238.94C7281.91 6321.66 7316.58 6308.48 7342.95 6282.11C7369.64 6255.42 7382.98 6218.96 7382.98 6172.74V6156.62C7382.98 6109.42 7368.82 6072.8 7340.5 6046.76C7312.18 6020.72 7273.45 6007.7 7224.29 6007.7H7219.9C7191.9 6007.7 7175.14 6011.44 7169.61 6018.93C7164.07 6026.42 7161.3 6047.58 7161.3 6082.41ZM7210.13 5955.94H7262.38C7377.61 5955.94 7452.16 5990.61 7486.01 6059.95C7498.71 6085.99 7505.05 6114.8 7505.05 6146.37V6160.04C7505.05 6160.04 7505.05 6160.37 7505.05 6161.02C7505.05 6222.87 7477.87 6272.84 7423.51 6310.92C7384.77 6337.94 7324.88 6354.54 7243.82 6360.73C7209.32 6363.33 7188.49 6368.7 7181.32 6376.84C7169.93 6389.54 7164.23 6420.13 7164.23 6468.64C7164.23 6516.81 7169.28 6548.06 7179.37 6562.39C7184.25 6569.22 7195.16 6577.85 7212.09 6588.27C7229.34 6598.36 7237.96 6606.17 7237.96 6611.7C7237.96 6628.96 7216.97 6637.58 7174.98 6637.58H7051.44C7004.24 6637.58 6980.64 6629.77 6980.64 6614.14C6980.64 6604.38 6989.27 6594.29 7006.52 6583.87C7023.77 6573.45 7034.84 6562.55 7039.72 6551.16C7044.61 6539.44 7047.05 6509.49 7047.05 6461.31L7047.54 6449.11C7047.86 6440.64 7048.02 6432.18 7048.02 6423.71C7048.02 6415.25 7048.02 6406.79 7048.02 6398.32L7048.51 6372.93V6309.46L7048.02 6284.07C7048.02 6160.04 7045.42 6085.82 7040.21 6061.41C7035.33 6036.67 7024.59 6019.58 7007.98 6010.14C6991.71 6000.7 6983.57 5991.91 6983.57 5983.77C6983.57 5975.31 6988.13 5969.12 6997.24 5965.22C7006.36 5961.31 7034.03 5959.36 7080.25 5959.36L7132.01 5958.38L7170.58 5956.92C7187.83 5956.27 7201.02 5955.94 7210.13 5955.94ZM7830.74 6621.96C7830.74 6634.65 7801.28 6641 7742.36 6641H7690.6L7670.09 6640.02L7639.33 6639.54C7604.83 6639.54 7587.57 6633.35 7587.57 6620.98C7587.57 6612.19 7595.22 6602.91 7610.52 6593.15C7626.15 6583.06 7636.57 6570.2 7641.77 6554.57C7647.31 6538.62 7650.07 6491.91 7650.07 6414.44C7650.07 6336.96 7647.47 6289.93 7642.26 6273.32C7637.38 6256.72 7629.57 6244.84 7618.82 6237.68C7599.62 6224.98 7590.02 6215.71 7590.02 6209.85C7590.02 6203.99 7593.43 6198.78 7600.27 6194.22C7620.45 6180.55 7654.63 6173.71 7702.81 6173.71H7712.09C7730.64 6173.71 7743.82 6183.15 7751.64 6202.04C7759.45 6220.59 7765.8 6229.87 7770.68 6229.87C7775.56 6229.87 7783.86 6225.31 7795.58 6216.2C7807.63 6207.08 7821.95 6197.97 7838.55 6188.85C7855.48 6179.74 7874.2 6175.18 7894.7 6175.18C7915.21 6175.18 7930.84 6180.55 7941.58 6191.29C7952.65 6201.71 7958.18 6215.22 7958.18 6231.82C7957.85 6248.75 7953.46 6261.44 7945 6269.91C7936.53 6278.37 7927.42 6282.6 7917.65 6282.6C7907.89 6282.6 7895.03 6278.7 7879.08 6270.88C7863.13 6262.74 7849.78 6258.68 7839.04 6258.68C7828.3 6258.68 7816.58 6263.23 7803.88 6272.35C7791.19 6281.14 7780.28 6297.09 7771.17 6320.2C7762.38 6342.99 7757.98 6382.21 7757.98 6437.88C7757.98 6493.21 7761.89 6529.02 7769.7 6545.3C7777.52 6561.25 7789.56 6575.9 7805.84 6589.24C7822.44 6602.59 7830.74 6613.49 7830.74 6621.96ZM8325.37 6323.62V6308.48C8325.37 6284.39 8316.74 6262.74 8299.49 6243.54C8282.24 6224.01 8261.08 6214.24 8236.01 6214.24H8226.73C8222.18 6214.89 8219.08 6215.22 8217.46 6215.22C8194.67 6215.22 8173.02 6228.24 8152.52 6254.28C8132.33 6280.32 8122.24 6308.15 8122.24 6337.78V6344.12C8122.24 6354.54 8128.43 6359.75 8140.8 6359.75C8145.68 6360.73 8148.28 6361.21 8148.61 6361.21L8159.84 6361.7H8162.77L8166.19 6361.21L8260.43 6355.84L8278 6353.89C8309.58 6353.89 8325.37 6343.8 8325.37 6323.62ZM8122.24 6453.01C8122.24 6490.12 8136.24 6521.21 8164.23 6546.27C8192.23 6571.34 8227.71 6583.87 8270.68 6583.87C8287.93 6583.87 8303.56 6581.43 8317.55 6576.55C8331.88 6571.34 8347.34 6565.15 8363.94 6557.99C8380.87 6550.83 8391.45 6547.25 8395.68 6547.25C8408.7 6547.25 8415.21 6554.25 8415.21 6568.25C8415.21 6587.13 8391.12 6607.31 8342.95 6628.79C8311.7 6642.79 8278.17 6649.79 8242.36 6649.79H8231.62C8170.42 6649.79 8119.64 6631.23 8079.27 6594.12C8057.46 6573.94 8040.54 6548.23 8028.49 6516.98C8016.45 6485.4 8010.43 6451.55 8010.43 6415.41L8010.91 6404.18V6392.95C8010.91 6361.7 8018.08 6330.94 8032.4 6300.67C8047.05 6270.39 8064.46 6245.49 8084.64 6225.96C8127.29 6184.95 8177.91 6164.27 8236.5 6163.95C8325.04 6163.95 8383.96 6198.45 8413.26 6267.46C8422.37 6289.27 8426.93 6309.29 8426.93 6327.52V6337.29C8426.93 6359.75 8417.65 6374.89 8399.1 6382.7C8380.54 6390.19 8336.76 6396.37 8267.75 6401.25C8198.74 6406.14 8161.3 6409.39 8155.45 6411.02C8133.31 6416.55 8122.24 6430.55 8122.24 6453.01ZM8873.71 6306.04C8860.04 6306.04 8840.99 6291.88 8816.58 6263.56C8792.49 6235.24 8764.49 6221.08 8732.59 6221.08C8701.02 6221.08 8674.49 6236.87 8653 6268.44C8631.52 6299.69 8620.78 6344.12 8620.78 6401.74C8620.78 6459.36 8633.96 6504.44 8660.33 6537C8687.02 6569.22 8721.69 6585.34 8764.33 6585.34C8787.77 6585.34 8807.3 6582.41 8822.93 6576.55C8838.88 6570.69 8853.52 6564.5 8866.87 6557.99C8880.54 6551.16 8890.15 6547.74 8895.68 6547.74C8905.12 6547.74 8909.84 6553.92 8909.84 6566.29C8909.84 6585.17 8890.8 6603.89 8852.71 6622.45C8814.62 6641 8777.68 6650.28 8741.87 6650.28C8672.21 6650.28 8616.22 6628.47 8573.9 6584.85C8556.65 6566.94 8542.16 6543.99 8530.45 6516C8518.73 6487.68 8512.87 6457.41 8512.87 6425.18V6401.25C8512.87 6400.6 8512.87 6399.79 8512.87 6398.81C8512.87 6398.16 8512.87 6397.51 8512.87 6396.86C8512.87 6368.54 8519.21 6339.24 8531.91 6308.97C8556.98 6249.72 8597.34 6208.71 8653 6185.92C8685.23 6172.9 8717.29 6166.39 8749.2 6166.39H8760.43C8804.37 6166.39 8841.64 6174.04 8872.24 6189.34C8896.98 6201.71 8909.35 6222.38 8909.35 6251.35C8909.35 6270.56 8905.45 6284.55 8897.63 6293.34C8890.15 6301.81 8882.17 6306.04 8873.71 6306.04ZM9174.98 6014.05C9174.98 6028.37 9168.79 6041.72 9156.42 6054.09C9144.38 6066.13 9132.33 6072.15 9120.29 6072.15C9117.68 6072.8 9115.57 6073.13 9113.94 6073.13L9103.2 6074.11C9086.92 6074.11 9072.27 6068.73 9059.25 6057.99C9046.56 6047.25 9040.21 6033.42 9040.21 6016.49V6007.7C9040.21 5990.77 9046.88 5976.61 9060.23 5965.22C9073.9 5953.5 9089.53 5947.64 9107.11 5947.64H9109.55L9126.15 5949.59C9136.24 5949.59 9146.66 5955.13 9157.4 5966.2C9168.47 5976.94 9174 5987.84 9174 5998.91L9174.98 6003.3V6014.05ZM9019.7 6231.82C9002.78 6223.68 8994.31 6216.03 8994.31 6208.87C8994.31 6201.71 8997.73 6196.01 9004.57 6191.78C9028.33 6177.46 9065.93 6170.3 9117.36 6170.3H9131.52C9149.1 6170.3 9159.03 6178.43 9161.3 6194.71C9162.61 6203.5 9163.26 6262.74 9163.26 6372.45C9163.26 6481.82 9165.54 6544.65 9170.09 6560.92C9174.65 6576.87 9185.56 6589.24 9202.81 6598.03C9220.06 6606.49 9228.69 6615.12 9228.69 6623.91C9228.69 6636.28 9188.32 6642.46 9107.59 6642.46L9092.95 6642.95H9033.38C9009.61 6642.95 8997.73 6637.09 8997.73 6625.37C8997.73 6615.61 9004.89 6606.17 9019.21 6597.05C9033.86 6587.94 9043.95 6577.85 9049.49 6566.78C9055.67 6554.74 9058.77 6526.58 9058.77 6482.31L9059.25 6466.68V6451.55L9059.74 6428.6V6413.46L9060.23 6398.32C9060.23 6321.18 9057.63 6276.25 9052.42 6263.56C9047.54 6250.54 9036.63 6239.96 9019.7 6231.82ZM9626.15 6421.76C9651.86 6446.18 9664.72 6477.1 9664.72 6514.54C9664.72 6551.64 9649.42 6583.55 9618.82 6610.24C9588.23 6636.61 9545.91 6649.79 9491.87 6649.79H9478.69C9417.16 6649.79 9370.29 6642.14 9338.06 6626.84C9320.16 6618.38 9311.21 6599.5 9311.21 6570.2V6557.99C9311.21 6520.56 9318.21 6501.84 9332.2 6501.84C9343.92 6501.84 9357.76 6512.91 9373.71 6535.04C9389.66 6556.85 9403 6571.5 9413.75 6578.99C9434.58 6593.31 9458.99 6600.47 9486.99 6600.47C9515.31 6600.47 9536.14 6594.61 9549.49 6582.89C9562.83 6570.85 9569.51 6555.06 9569.51 6535.53C9569.51 6516 9558.11 6497.93 9535.33 6481.33C9523.28 6472.54 9495.13 6458.71 9450.86 6439.83C9406.91 6420.95 9374.03 6401.25 9352.22 6380.75C9330.41 6359.91 9319.51 6330.62 9319.51 6292.86C9319.51 6255.1 9335.3 6224.5 9366.87 6201.06C9398.45 6177.3 9437.35 6165.41 9483.57 6165.41H9496.75C9557.3 6165.41 9599.78 6172.58 9624.2 6186.9C9636.89 6194.39 9643.24 6215.22 9643.24 6249.4C9643.24 6283.58 9635.1 6300.67 9618.82 6300.67C9609.71 6300.67 9597.18 6290.58 9581.23 6270.39C9565.6 6249.89 9551.28 6235.4 9538.26 6226.94C9525.24 6218.15 9507.17 6213.75 9484.06 6213.75C9461.27 6213.75 9443.21 6218.96 9429.86 6229.38C9416.51 6239.8 9409.84 6254.93 9409.84 6274.79C9409.84 6294.32 9422.05 6311.9 9446.46 6327.52C9452.65 6331.76 9479.66 6344.29 9527.52 6365.12C9575.37 6385.95 9608.24 6404.83 9626.15 6421.76ZM9927.91 6014.05C9927.91 6028.37 9921.72 6041.72 9909.35 6054.09C9897.31 6066.13 9885.26 6072.15 9873.22 6072.15C9870.61 6072.8 9868.5 6073.13 9866.87 6073.13L9856.13 6074.11C9839.85 6074.11 9825.2 6068.73 9812.18 6057.99C9799.49 6047.25 9793.14 6033.42 9793.14 6016.49V6007.7C9793.14 5990.77 9799.81 5976.61 9813.16 5965.22C9826.83 5953.5 9842.46 5947.64 9860.04 5947.64H9862.48L9879.08 5949.59C9889.17 5949.59 9899.59 5955.13 9910.33 5966.2C9921.4 5976.94 9926.93 5987.84 9926.93 5998.91L9927.91 6003.3V6014.05ZM9772.63 6231.82C9755.71 6223.68 9747.24 6216.03 9747.24 6208.87C9747.24 6201.71 9750.66 6196.01 9757.5 6191.78C9781.26 6177.46 9818.86 6170.3 9870.29 6170.3H9884.45C9902.03 6170.3 9911.96 6178.43 9914.23 6194.71C9915.54 6203.5 9916.19 6262.74 9916.19 6372.45C9916.19 6481.82 9918.47 6544.65 9923.02 6560.92C9927.58 6576.87 9938.49 6589.24 9955.74 6598.03C9972.99 6606.49 9981.62 6615.12 9981.62 6623.91C9981.62 6636.28 9941.25 6642.46 9860.52 6642.46L9845.88 6642.95H9786.3C9762.54 6642.95 9750.66 6637.09 9750.66 6625.37C9750.66 6615.61 9757.82 6606.17 9772.14 6597.05C9786.79 6587.94 9796.88 6577.85 9802.42 6566.78C9808.6 6554.74 9811.7 6526.58 9811.7 6482.31L9812.18 6466.68V6451.55L9812.67 6428.6V6413.46L9813.16 6398.32C9813.16 6321.18 9810.56 6276.25 9805.35 6263.56C9800.46 6250.54 9789.56 6239.96 9772.63 6231.82ZM10167.2 6389.54V6407.6C10167.2 6462.94 10177.9 6508.84 10199.4 6545.3C10209.5 6562.55 10222.3 6576.22 10238 6586.31C10253.6 6596.4 10269.4 6601.45 10285.3 6601.45H10295.1C10324.7 6601.45 10350.3 6587.13 10371.8 6558.48C10393.6 6529.51 10404.5 6488.49 10404.5 6435.43V6400.77C10404.5 6348.36 10393.6 6303.92 10371.8 6267.46C10350.3 6230.68 10322.9 6212.29 10289.7 6212.29H10274.6C10244.6 6212.29 10219.2 6228.4 10198.4 6260.63C10177.6 6292.86 10167.2 6335.82 10167.2 6389.54ZM10522.1 6391.49V6415.9C10522.1 6441.62 10516.9 6469.78 10506.5 6500.37C10484.7 6564.18 10441.3 6608.77 10376.1 6634.16C10347.8 6645.23 10320.5 6650.77 10294.1 6650.77H10278C10215.8 6650.77 10163.9 6629.93 10122.2 6588.27C10103.4 6569.39 10088.1 6544.48 10076.3 6513.56C10064.6 6482.63 10058.8 6449.76 10058.8 6414.93V6406.62C10058.8 6375.05 10064.3 6343.15 10075.4 6310.92C10096.9 6248.1 10139 6204.48 10201.8 6180.06C10230.2 6168.99 10257.3 6163.46 10283.4 6163.46H10307.8C10336.8 6163.46 10365.2 6169.97 10393.2 6182.99C10446.3 6207.73 10483.2 6247.12 10504.1 6301.16C10516.1 6333.06 10522.1 6363.17 10522.1 6391.49ZM10677.4 6637.09C10631.5 6637.09 10608.6 6630.58 10608.6 6617.56C10608.6 6606.82 10614.6 6598.03 10626.6 6591.2C10648.4 6578.83 10661.1 6567.76 10664.7 6557.99C10668.3 6547.9 10670.1 6500.86 10670.1 6416.88C10670.1 6332.57 10667.5 6283.25 10662.3 6268.93C10657.4 6254.28 10648.3 6242.24 10634.9 6232.8C10621.6 6223.36 10614.9 6215.71 10614.9 6209.85C10614.9 6203.99 10619.3 6198.45 10628.1 6193.25C10648.6 6181.2 10681.2 6175.18 10725.8 6175.18C10739.1 6175.18 10749.5 6179.74 10757 6188.85C10759.6 6192.11 10763.2 6199.27 10767.8 6210.34C10772.6 6221.08 10775.9 6226.45 10777.5 6226.45C10783.7 6226.12 10793.3 6221.73 10806.3 6213.27C10851.2 6182.99 10891.9 6167.86 10928.4 6167.86H10929.4H10945C10971.4 6167.86 10995.1 6174.37 11016.3 6187.39C11037.4 6200.41 11053.7 6219.94 11065.1 6245.98C11076.8 6272.02 11082.7 6328.83 11082.7 6416.39C11082.7 6503.63 11084.5 6552.46 11088.1 6562.87C11092 6572.97 11102.5 6582.41 11119.8 6591.2C11137.4 6599.98 11146.2 6608.61 11146.2 6617.07C11146.2 6631.72 11099.9 6639.05 11007.5 6639.05H10992.8C10963.6 6639.05 10948.9 6632.05 10948.9 6618.05C10948.9 6615.12 10952.5 6608.12 10959.6 6597.05C10966.8 6585.66 10971.7 6573.13 10974.3 6559.46C10976.9 6545.79 10978.2 6500.86 10978.2 6424.69C10978.2 6348.19 10973.5 6299.04 10964 6277.23C10951 6247.28 10929.4 6232.31 10899.1 6232.31C10877 6232.31 10855.5 6237.52 10834.6 6247.93C10814.1 6258.02 10799.2 6272.51 10789.7 6291.39C10780.6 6309.95 10776.1 6354.7 10776.1 6425.67C10776.1 6496.31 10778 6539.11 10781.9 6554.09C10785.8 6568.73 10790.5 6580.62 10796.1 6589.73L10814.1 6619.03C10814.1 6631.72 10788.6 6638.07 10737.5 6638.07L10707.7 6637.09H10677.4Z" fill="black"/>
<rect x="6072" y="7704" width="6045" height="1022" fill="white"/>
<path d="M6378.64 7947.51C6363.99 7947.51 6355.04 7953.05 6351.79 7964.11C6349.83 7970.95 6348.86 8001.71 6348.86 8056.4V8151.12C6348.86 8171.31 6350.65 8183.84 6354.23 8188.72C6357.81 8193.28 6368.88 8195.56 6387.43 8195.56H6407.94L6412.33 8195.07L6441.63 8193.61C6444.56 8193.28 6447.33 8193.12 6449.93 8193.12C6481.18 8193.12 6507.38 8181.56 6528.54 8158.45C6549.7 8135.34 6560.28 8107.34 6560.28 8074.46V8061.28C6560.28 8027.75 6548.73 8000.57 6525.61 7979.74C6502.83 7958.58 6474.83 7948 6441.63 7948L6432.84 7947.02L6420.14 7946.54H6390.85C6385.64 7947.19 6381.57 7947.51 6378.64 7947.51ZM6437.23 8245.85H6395.24C6370.18 8245.85 6356.02 8249.27 6352.76 8256.11C6349.83 8262.94 6348.37 8283.61 6348.37 8318.12V8458.25C6348.37 8488.53 6351.95 8507.08 6359.11 8513.92C6366.6 8520.43 6387.1 8523.68 6420.63 8523.68H6449.44C6492.41 8523.68 6527.24 8512.45 6553.93 8489.99C6580.63 8467.21 6593.97 8437.26 6593.97 8400.15V8374.76C6593.97 8334.72 6579.32 8303.31 6550.03 8280.52C6520.73 8257.41 6483.13 8245.85 6437.23 8245.85ZM6426 7894.29C6541.89 7894.29 6616.27 7924.73 6649.15 7985.6C6660.87 8007.08 6666.73 8031.82 6666.73 8059.82C6666.73 8087.49 6660.05 8111.9 6646.71 8133.06C6633.69 8154.22 6621.97 8169.03 6611.55 8177.49C6601.46 8185.63 6591.04 8192.95 6580.3 8199.46C6569.88 8205.65 6564.68 8209.72 6564.68 8211.67C6564.68 8213.62 6577.7 8221.27 6603.74 8234.62C6630.11 8247.64 6650.94 8263.1 6666.24 8281.01C6693.58 8313.56 6707.25 8347.09 6707.25 8381.59V8394.29C6707.25 8451.58 6683.82 8497.15 6636.94 8531.01C6620.01 8543.38 6596.25 8554.28 6565.65 8563.72C6535.38 8572.84 6499.25 8577.39 6457.25 8577.39H6405.5L6392.8 8576.91C6384.34 8576.58 6375.71 8576.42 6366.92 8576.42L6354.23 8575.93C6345.76 8575.6 6337.3 8575.44 6328.84 8575.44L6316.14 8574.95C6307.68 8574.63 6299.21 8574.46 6290.75 8574.46H6253.15C6196.51 8574.46 6168.19 8569.09 6168.19 8558.35C6168.19 8547.28 6176.82 8537.03 6194.07 8527.59C6211.65 8517.82 6223.04 8501.39 6228.25 8478.27C6233.78 8454.84 6236.55 8400.47 6236.55 8315.19V8154.54L6235.57 8103.76C6235.25 8095.3 6235.09 8075.12 6235.09 8043.21C6235.09 8011.31 6231.99 7989.02 6225.81 7976.32C6219.95 7963.3 6208.07 7952.56 6190.16 7944.09C6172.26 7935.63 6163.31 7928.14 6163.31 7921.63C6163.31 7912.19 6167.87 7905.85 6176.98 7902.59C6186.1 7899.01 6214.09 7897.22 6260.96 7897.22L6374.25 7894.29H6426ZM6910.38 8321.54V8339.6C6910.38 8394.94 6921.12 8440.84 6942.61 8477.3C6952.7 8494.55 6965.55 8508.22 6981.18 8518.31C6996.8 8528.4 7012.59 8533.45 7028.54 8533.45H7038.31C7067.93 8533.45 7093.48 8519.13 7114.97 8490.48C7136.78 8461.51 7147.68 8420.49 7147.68 8367.43V8332.77C7147.68 8280.36 7136.78 8235.92 7114.97 8199.46C7093.48 8162.68 7066.14 8144.29 7032.94 8144.29H7017.8C6987.85 8144.29 6962.46 8160.4 6941.63 8192.63C6920.8 8224.86 6910.38 8267.82 6910.38 8321.54ZM7265.36 8323.49V8347.9C7265.36 8373.62 7260.15 8401.78 7249.73 8432.38C7227.92 8496.18 7184.47 8540.77 7119.36 8566.16C7091.04 8577.23 7063.7 8582.77 7037.33 8582.77H7021.22C6959.04 8582.77 6907.12 8561.93 6865.46 8520.27C6846.58 8501.39 6831.28 8476.48 6819.56 8445.56C6807.84 8414.63 6801.98 8381.76 6801.98 8346.93V8338.62C6801.98 8307.05 6807.51 8275.15 6818.58 8242.92C6840.07 8180.1 6882.22 8136.48 6945.05 8112.06C6973.37 8100.99 7000.55 8095.46 7026.59 8095.46H7051C7079.98 8095.46 7108.46 8101.97 7136.45 8114.99C7189.51 8139.73 7226.46 8179.12 7247.29 8233.16C7259.34 8265.06 7265.36 8295.17 7265.36 8323.49ZM7458.23 8321.54V8339.6C7458.23 8394.94 7468.97 8440.84 7490.46 8477.3C7500.55 8494.55 7513.41 8508.22 7529.03 8518.31C7544.66 8528.4 7560.44 8533.45 7576.39 8533.45H7586.16C7615.78 8533.45 7641.34 8519.13 7662.82 8490.48C7684.63 8461.51 7695.54 8420.49 7695.54 8367.43V8332.77C7695.54 8280.36 7684.63 8235.92 7662.82 8199.46C7641.34 8162.68 7613.99 8144.29 7580.79 8144.29H7565.65C7535.7 8144.29 7510.31 8160.4 7489.48 8192.63C7468.65 8224.86 7458.23 8267.82 7458.23 8321.54ZM7813.21 8323.49V8347.9C7813.21 8373.62 7808 8401.78 7797.59 8432.38C7775.78 8496.18 7732.32 8540.77 7667.21 8566.16C7638.89 8577.23 7611.55 8582.77 7585.18 8582.77H7569.07C7506.9 8582.77 7454.98 8561.93 7413.31 8520.27C7394.43 8501.39 7379.13 8476.48 7367.41 8445.56C7355.69 8414.63 7349.83 8381.76 7349.83 8346.93V8338.62C7349.83 8307.05 7355.37 8275.15 7366.43 8242.92C7387.92 8180.1 7430.07 8136.48 7492.9 8112.06C7521.22 8100.99 7548.4 8095.46 7574.44 8095.46H7598.86C7627.83 8095.46 7656.31 8101.97 7684.3 8114.99C7737.36 8139.73 7774.31 8179.12 7795.14 8233.16C7807.19 8265.06 7813.21 8295.17 7813.21 8323.49ZM8097.39 8365.97C8077.53 8365.97 8067.61 8394.61 8067.61 8451.91C8067.61 8472.09 8072.33 8491.78 8081.77 8510.99L8094.95 8533.45C8099.51 8541.59 8101.79 8547.45 8101.79 8551.03C8101.79 8562.75 8069.07 8568.61 8003.64 8568.61C7938.21 8568.61 7905.5 8563.07 7905.5 8552C7905.5 8549.07 7910.87 8540.29 7921.61 8525.64C7932.68 8510.66 7940.65 8493.25 7945.54 8473.39C7950.74 8453.21 7953.35 8406.5 7953.35 8333.25L7953.84 8314.7C7954.49 8298.1 7954.81 8285.73 7954.81 8277.59L7955.79 8240.48L7956.28 8202.88V8127.2C7956.28 8033.12 7954.49 7977.62 7950.91 7960.7C7947.65 7943.44 7941.63 7930.42 7932.84 7921.63L7922.1 7913.33L7910.38 7906.01C7900.94 7899.17 7896.22 7892.82 7896.22 7886.96C7896.22 7880.78 7900.12 7875.41 7907.94 7870.85C7930.07 7858.16 7964.25 7851.81 8010.48 7851.81H8027.08C8045.63 7851.81 8057.19 7864.99 8061.75 7891.36C8063.37 7901.12 8064.19 7974.04 8064.19 8110.11L8063.7 8166.26C8063.7 8210.86 8063.86 8234.62 8064.19 8237.55C8067.77 8268.48 8076.23 8283.94 8089.58 8283.94C8102.92 8283.94 8125.87 8266.36 8158.43 8231.2C8190.98 8195.72 8207.25 8170.49 8207.25 8155.52L8205.79 8137.94C8205.79 8126.87 8210.02 8119.06 8218.48 8114.5C8227.27 8109.95 8245.34 8107.67 8272.68 8107.67C8334.86 8107.67 8365.95 8114.34 8365.95 8127.69C8365.95 8128.01 8337.14 8151.29 8279.52 8197.51C8221.9 8243.74 8193.09 8276.78 8193.09 8296.63C8193.09 8316.49 8232.64 8372.64 8311.75 8465.09C8329 8485.27 8347.88 8502.69 8368.39 8517.34C8389.22 8531.98 8399.64 8541.75 8399.64 8546.63C8399.64 8562.58 8375.55 8570.56 8327.37 8570.56H8291.73C8260.48 8570.56 8238.02 8561.61 8224.34 8543.7L8204.81 8496.34C8196.67 8476.81 8183.17 8453.7 8164.29 8427C8135.31 8386.31 8113.02 8365.97 8097.39 8365.97ZM8668.68 8365.97C8648.82 8365.97 8638.89 8394.61 8638.89 8451.91C8638.89 8472.09 8643.61 8491.78 8653.05 8510.99L8666.24 8533.45C8670.8 8541.59 8673.07 8547.45 8673.07 8551.03C8673.07 8562.75 8640.36 8568.61 8574.93 8568.61C8509.5 8568.61 8476.79 8563.07 8476.79 8552C8476.79 8549.07 8482.16 8540.29 8492.9 8525.64C8503.97 8510.66 8511.94 8493.25 8516.82 8473.39C8522.03 8453.21 8524.64 8406.5 8524.64 8333.25L8525.12 8314.7C8525.78 8298.1 8526.1 8285.73 8526.1 8277.59L8527.08 8240.48L8527.57 8202.88V8127.2C8527.57 8033.12 8525.78 7977.62 8522.2 7960.7C8518.94 7943.44 8512.92 7930.42 8504.13 7921.63L8493.39 7913.33L8481.67 7906.01C8472.23 7899.17 8467.51 7892.82 8467.51 7886.96C8467.51 7880.78 8471.41 7875.41 8479.23 7870.85C8501.36 7858.16 8535.54 7851.81 8581.77 7851.81H8598.37C8616.92 7851.81 8628.48 7864.99 8633.04 7891.36C8634.66 7901.12 8635.48 7974.04 8635.48 8110.11L8634.99 8166.26C8634.99 8210.86 8635.15 8234.62 8635.48 8237.55C8639.06 8268.48 8647.52 8283.94 8660.87 8283.94C8674.21 8283.94 8697.16 8266.36 8729.71 8231.2C8762.27 8195.72 8778.54 8170.49 8778.54 8155.52L8777.08 8137.94C8777.08 8126.87 8781.31 8119.06 8789.77 8114.5C8798.56 8109.95 8816.63 8107.67 8843.97 8107.67C8906.15 8107.67 8937.23 8114.34 8937.23 8127.69C8937.23 8128.01 8908.43 8151.29 8850.81 8197.51C8793.19 8243.74 8764.38 8276.78 8764.38 8296.63C8764.38 8316.49 8803.93 8372.64 8883.04 8465.09C8900.29 8485.27 8919.17 8502.69 8939.68 8517.34C8960.51 8531.98 8970.93 8541.75 8970.93 8546.63C8970.93 8562.58 8946.84 8570.56 8898.66 8570.56H8863.02C8831.77 8570.56 8809.3 8561.61 8795.63 8543.7L8776.1 8496.34C8767.96 8476.81 8754.45 8453.7 8735.57 8427C8706.6 8386.31 8684.3 8365.97 8668.68 8365.97ZM9339.09 8255.62V8240.48C9339.09 8216.39 9330.46 8194.74 9313.21 8175.54C9295.96 8156.01 9274.8 8146.24 9249.73 8146.24H9240.46C9235.9 8146.89 9232.81 8147.22 9231.18 8147.22C9208.39 8147.22 9186.75 8160.24 9166.24 8186.28C9146.06 8212.32 9135.96 8240.15 9135.96 8269.78V8276.12C9135.96 8286.54 9142.15 8291.75 9154.52 8291.75C9159.4 8292.73 9162.01 8293.21 9162.33 8293.21L9173.56 8293.7H9176.49L9179.91 8293.21L9274.15 8287.84L9291.73 8285.89C9323.3 8285.89 9339.09 8275.8 9339.09 8255.62ZM9135.96 8385.01C9135.96 8422.12 9149.96 8453.21 9177.96 8478.27C9205.95 8503.34 9241.43 8515.87 9284.4 8515.87C9301.65 8515.87 9317.28 8513.43 9331.28 8508.55C9345.6 8503.34 9361.06 8497.15 9377.66 8489.99C9394.59 8482.83 9405.17 8479.25 9409.4 8479.25C9422.42 8479.25 9428.93 8486.25 9428.93 8500.25C9428.93 8519.13 9404.85 8539.31 9356.67 8560.79C9325.42 8574.79 9291.89 8581.79 9256.08 8581.79H9245.34C9184.14 8581.79 9133.36 8563.23 9093 8526.12C9071.19 8505.94 9054.26 8480.23 9042.21 8448.98C9030.17 8417.4 9024.15 8383.55 9024.15 8347.41L9024.64 8336.18V8324.95C9024.64 8293.7 9031.8 8262.94 9046.12 8232.67C9060.77 8202.39 9078.18 8177.49 9098.37 8157.96C9141.01 8116.95 9191.63 8096.27 9250.22 8095.95C9338.76 8095.95 9397.68 8130.45 9426.98 8199.46C9436.1 8221.27 9440.65 8241.29 9440.65 8259.52V8269.29C9440.65 8291.75 9431.38 8306.89 9412.82 8314.7C9394.27 8322.19 9350.48 8328.37 9281.47 8333.25C9212.46 8338.14 9175.03 8341.39 9169.17 8343.02C9147.03 8348.55 9135.96 8362.55 9135.96 8385.01ZM9838.11 8255.62V8240.48C9838.11 8216.39 9829.49 8194.74 9812.23 8175.54C9794.98 8156.01 9773.82 8146.24 9748.76 8146.24H9739.48C9734.92 8146.89 9731.83 8147.22 9730.2 8147.22C9707.42 8147.22 9685.77 8160.24 9665.26 8186.28C9645.08 8212.32 9634.99 8240.15 9634.99 8269.78V8276.12C9634.99 8286.54 9641.17 8291.75 9653.54 8291.75C9658.43 8292.73 9661.03 8293.21 9661.36 8293.21L9672.59 8293.7H9675.52L9678.93 8293.21L9773.17 8287.84L9790.75 8285.89C9822.33 8285.89 9838.11 8275.8 9838.11 8255.62ZM9634.99 8385.01C9634.99 8422.12 9648.99 8453.21 9676.98 8478.27C9704.98 8503.34 9740.46 8515.87 9783.43 8515.87C9800.68 8515.87 9816.3 8513.43 9830.3 8508.55C9844.62 8503.34 9860.09 8497.15 9876.69 8489.99C9893.61 8482.83 9904.19 8479.25 9908.43 8479.25C9921.45 8479.25 9927.96 8486.25 9927.96 8500.25C9927.96 8519.13 9903.87 8539.31 9855.69 8560.79C9824.44 8574.79 9790.91 8581.79 9755.11 8581.79H9744.36C9683.17 8581.79 9632.38 8563.23 9592.02 8526.12C9570.21 8505.94 9553.28 8480.23 9541.24 8448.98C9529.19 8417.4 9523.17 8383.55 9523.17 8347.41L9523.66 8336.18V8324.95C9523.66 8293.7 9530.82 8262.94 9545.14 8232.67C9559.79 8202.39 9577.21 8177.49 9597.39 8157.96C9640.03 8116.95 9690.65 8096.27 9749.25 8095.95C9837.79 8095.95 9896.71 8130.45 9926 8199.46C9935.12 8221.27 9939.68 8241.29 9939.68 8259.52V8269.29C9939.68 8291.75 9930.4 8306.89 9911.84 8314.7C9893.29 8322.19 9849.51 8328.37 9780.5 8333.25C9711.49 8338.14 9674.05 8341.39 9668.19 8343.02C9646.06 8348.55 9634.99 8362.55 9634.99 8385.01ZM10407.9 8355.23V8326.42C10407.9 8274.01 10397.2 8232.18 10375.7 8200.93C10354.2 8169.68 10327.2 8154.05 10294.7 8154.05H10289.8C10271.9 8154.05 10254.5 8159.1 10237.5 8169.19C10220.6 8178.96 10207.6 8191.49 10198.5 8206.79C10189.7 8222.09 10185.3 8267.17 10185.3 8342.04V8383.55L10185.8 8388.92V8409.43L10186.3 8414.31V8424.56C10186.9 8431.72 10187.2 8436.93 10187.2 8440.19C10187.2 8467.86 10196 8489.5 10213.6 8505.13C10231.5 8520.43 10255.4 8528.08 10285.4 8528.08H10290.3C10326.1 8528.08 10354.6 8511.64 10375.7 8478.76C10397.2 8445.88 10407.9 8404.71 10407.9 8355.23ZM10212.6 8565.19C10195.7 8565.19 10187.2 8587 10187.2 8630.62C10187.2 8674.56 10190.3 8702.39 10196.5 8714.11C10203 8726.16 10213.3 8737.06 10227.3 8746.83C10241.6 8756.59 10248.8 8764.89 10248.8 8771.73C10248.8 8786.38 10227.6 8793.7 10185.3 8793.7H10136.5C10062.2 8793.7 10025.1 8786.22 10025.1 8771.24C10025.1 8766.68 10034.6 8755.29 10053.4 8737.06C10063.5 8727.3 10071.5 8707.44 10077.4 8677.49C10083.2 8647.87 10086.2 8591.55 10086.2 8508.55V8305.91L10085.2 8253.66C10085.2 8221.76 10081 8198.49 10072.5 8183.84C10069.2 8178.31 10060.8 8170.82 10047.1 8161.38C10033.4 8151.61 10026.6 8143.31 10026.6 8136.48C10026.6 8129.64 10030.5 8124.27 10038.3 8120.36C10063.7 8107.99 10097.2 8101.81 10138.9 8101.81C10149.6 8101.81 10160.5 8108.32 10171.6 8121.34C10183 8134.36 10189.4 8140.87 10190.7 8140.87C10195.9 8140.87 10206.3 8136.48 10221.9 8127.69C10237.9 8118.57 10246.3 8113.69 10247.3 8113.04C10275.3 8100.02 10299.5 8093.51 10320 8093.51H10345.4C10363.7 8093.51 10384.3 8098.55 10407.4 8108.64C10451.7 8127.85 10483.5 8163.82 10502.7 8216.55C10514.1 8247.48 10519.8 8277.59 10519.8 8306.89V8334.23C10519.8 8364.5 10513.6 8395.59 10501.2 8427.49C10476.8 8490.64 10435.4 8533.61 10377.2 8556.4C10352.4 8566.16 10323.6 8571.05 10290.8 8571.05L10212.6 8565.19ZM10793.2 7946.05C10793.2 7960.37 10787 7973.72 10774.6 7986.09C10762.6 7998.13 10750.5 8004.15 10738.5 8004.15C10735.9 8004.8 10733.8 8005.13 10732.2 8005.13L10721.4 8006.11C10705.1 8006.11 10690.5 8000.73 10677.5 7989.99C10664.8 7979.25 10658.4 7965.42 10658.4 7948.49V7939.7C10658.4 7922.77 10665.1 7908.61 10678.4 7897.22C10692.1 7885.5 10707.7 7879.64 10725.3 7879.64H10727.8L10744.4 7881.59C10754.5 7881.59 10764.9 7887.13 10775.6 7898.2C10786.7 7908.94 10792.2 7919.84 10792.2 7930.91L10793.2 7935.3V7946.05ZM10637.9 8163.82C10621 8155.68 10612.5 8148.03 10612.5 8140.87C10612.5 8133.71 10615.9 8128.01 10622.8 8123.78C10646.5 8109.46 10684.1 8102.3 10735.6 8102.3H10749.7C10767.3 8102.3 10777.2 8110.43 10779.5 8126.71C10780.8 8135.5 10781.5 8194.74 10781.5 8304.45C10781.5 8413.82 10783.8 8476.65 10788.3 8492.92C10792.9 8508.87 10803.8 8521.24 10821 8530.03C10838.3 8538.49 10846.9 8547.12 10846.9 8555.91C10846.9 8568.28 10806.5 8574.46 10725.8 8574.46L10711.2 8574.95H10651.6C10627.8 8574.95 10615.9 8569.09 10615.9 8557.38C10615.9 8547.61 10623.1 8538.17 10637.4 8529.05C10652.1 8519.94 10662.2 8509.85 10667.7 8498.78C10673.9 8486.74 10677 8458.58 10677 8414.31L10677.5 8398.68V8383.55L10678 8360.6V8345.46L10678.4 8330.32C10678.4 8253.18 10675.8 8208.25 10670.6 8195.56C10665.8 8182.54 10654.8 8171.96 10637.9 8163.82ZM10994.9 8569.09C10949 8569.09 10926 8562.58 10926 8549.56C10926 8538.82 10932 8530.03 10944.1 8523.2C10965.9 8510.83 10978.6 8499.76 10982.2 8489.99C10985.7 8479.9 10987.5 8432.86 10987.5 8348.88C10987.5 8264.57 10984.9 8215.25 10979.7 8200.93C10974.8 8186.28 10965.7 8174.24 10952.4 8164.8C10939 8155.36 10932.4 8147.71 10932.4 8141.85C10932.4 8135.99 10936.7 8130.45 10945.5 8125.25C10966 8113.2 10998.6 8107.18 11043.2 8107.18C11056.5 8107.18 11067 8111.74 11074.4 8120.85C11077 8124.11 11080.6 8131.27 11085.2 8142.34C11090.1 8153.08 11093.3 8158.45 11094.9 8158.45C11101.1 8158.12 11110.7 8153.73 11123.8 8145.27C11168.7 8114.99 11209.4 8099.86 11245.8 8099.86H11246.8H11262.4C11288.8 8099.86 11312.6 8106.37 11333.7 8119.39C11354.9 8132.41 11371.2 8151.94 11382.5 8177.98C11394.3 8204.02 11400.1 8260.83 11400.1 8348.39C11400.1 8435.63 11401.9 8484.46 11405.5 8494.88C11409.4 8504.97 11420 8514.41 11437.2 8523.2C11454.8 8531.98 11463.6 8540.61 11463.6 8549.07C11463.6 8563.72 11417.4 8571.05 11324.9 8571.05H11310.3C11281 8571.05 11266.3 8564.05 11266.3 8550.05C11266.3 8547.12 11269.9 8540.12 11277.1 8529.05C11284.2 8517.66 11289.1 8505.13 11291.7 8491.46C11294.3 8477.79 11295.6 8432.86 11295.6 8356.69C11295.6 8280.19 11290.9 8231.04 11281.5 8209.23C11268.5 8179.28 11246.8 8164.31 11216.5 8164.31C11194.4 8164.31 11172.9 8169.52 11152.1 8179.93C11131.6 8190.02 11116.6 8204.51 11107.2 8223.39C11098 8241.95 11093.5 8286.7 11093.5 8357.67C11093.5 8428.31 11095.4 8471.11 11099.3 8486.09C11103.2 8500.73 11108 8512.62 11113.5 8521.73L11131.6 8551.03C11131.6 8563.72 11106 8570.07 11054.9 8570.07L11025.1 8569.09H10994.9ZM11738.5 8127.2H11725.8C11708.6 8127.2 11691.8 8137.13 11675.5 8156.98C11659.2 8176.84 11651.1 8199.95 11651.1 8226.32L11650.1 8234.13L11649.6 8246.34V8259.04L11650.1 8262.94C11650.1 8296.8 11657.4 8324.14 11672.1 8344.97C11686.7 8365.81 11708.6 8376.22 11737.5 8376.22H11740.9C11763.4 8376.22 11782.6 8367.43 11798.6 8349.86C11814.5 8332.28 11822.5 8309 11822.5 8280.03V8260.99C11821.5 8253.18 11821 8246.83 11821 8241.95C11821 8211.02 11812.4 8184.17 11795.1 8161.38C11778.2 8138.59 11759.3 8127.2 11738.5 8127.2ZM11695 8561.28C11672.3 8561.28 11652.9 8569.26 11636.9 8585.21C11621 8601.16 11613 8621.18 11613 8645.27V8649.17C11613 8676.84 11623.9 8698.65 11645.7 8714.6C11667.5 8730.55 11697.3 8738.53 11735.1 8738.53H11747.8C11793.4 8738.53 11830 8728.11 11857.6 8707.28C11885.3 8686.44 11899.1 8662.03 11899.1 8634.04L11898.7 8630.13C11898.7 8611.57 11891 8596.6 11875.7 8585.21C11860.4 8574.14 11842.3 8568.61 11821.5 8568.61C11808.5 8566.98 11799.1 8566.16 11793.2 8566.16L11776.6 8564.7H11768.3L11739 8562.75L11719 8561.28H11695ZM11995.3 8121.83C11995.3 8140.38 11983.6 8152.26 11960.2 8157.47C11936.7 8162.36 11925 8171.96 11925 8186.28L11926.5 8196.54L11928.4 8208.25L11930.9 8220.95C11932.5 8231.69 11933.3 8246.83 11933.3 8266.36C11933.3 8285.89 11927.8 8306.07 11916.7 8326.91C11885.8 8384.52 11826.2 8416.1 11738 8421.63C11709.7 8423.59 11691.6 8426.03 11683.8 8428.96C11666.9 8435.47 11658.4 8446.37 11658.4 8461.67C11658.4 8476.97 11671 8487.71 11696 8493.9C11699.6 8494.88 11732 8497.97 11793.2 8503.18C11854.4 8508.06 11895.2 8515.71 11915.8 8526.12C11959 8547.61 11980.7 8578.7 11980.7 8619.39C11980.7 8672.77 11956.8 8716.23 11908.9 8749.76C11861.4 8783.29 11799.1 8800.05 11721.9 8800.05C11667.5 8800.05 11622.3 8789.63 11586.2 8768.8C11569.6 8759.36 11556 8746.99 11545.6 8731.69C11535.5 8716.72 11530.5 8701.09 11530.5 8684.82C11530.5 8655.85 11539.1 8631.76 11556.4 8612.55C11584 8581.95 11597.9 8565.68 11597.9 8563.72C11597.9 8561.77 11591.9 8553.14 11579.8 8537.84C11567.8 8522.54 11561.7 8506.59 11561.7 8489.99C11561.7 8473.39 11569.6 8455.49 11585.2 8436.28C11601.1 8416.75 11609.1 8405.85 11609.1 8403.57C11609.1 8401.29 11599.3 8384.69 11579.8 8353.76C11560.3 8322.51 11550.5 8292.89 11550.5 8264.89C11550.5 8236.9 11556.5 8212 11568.6 8190.19C11602.8 8128.01 11666.4 8096.93 11759.5 8096.93H11773.7L11841.5 8101.32L11866.4 8102.3C11874.9 8102.62 11883.5 8102.79 11892.3 8102.79L11944.1 8099.37C11978.2 8099.37 11995.3 8106.85 11995.3 8121.83Z" fill="black"/>
<rect x="6271" y="9611" width="5602" height="1021.81" fill="white"/>
<path d="M8556.57 9795.95C8556.57 9802.14 8547.13 9811.25 8528.25 9823.3C8509.69 9835.34 8498.13 9851.78 8493.58 9872.61C8489.35 9893.12 8487.23 9974.99 8487.23 10118.2C8487.23 10261.1 8489.83 10343 8495.04 10363.8C8500.58 10384.3 8512.46 10399.8 8530.69 10410.2C8549.24 10420.3 8558.52 10429.7 8558.52 10438.5C8558.52 10450.6 8543.71 10456.6 8514.09 10456.6L8503.34 10456.1L8480.88 10455.6C8473.4 10455.3 8465.91 10455.1 8458.42 10455.1L8436.94 10454.2H8371.02C8317.96 10454.2 8291.43 10449.4 8291.43 10440V10433.2C8291.43 10427 8301.85 10417.9 8322.68 10405.8C8343.84 10393.4 8357.02 10376.2 8362.23 10354.1C8367.44 10331.6 8370.04 10252 8370.04 10115.3C8370.04 9978.24 8366.95 9898.33 8360.76 9875.54C8354.58 9852.43 8344.81 9837.29 8331.47 9830.13C8304.78 9815.48 8291.43 9804.42 8291.43 9796.93C8291.43 9784.23 8341.72 9777.89 8442.31 9777.89L8496.02 9776.91H8527.76C8546.96 9776.91 8556.57 9783.26 8556.57 9795.95ZM8722.09 10451.7C8676.19 10451.7 8653.25 10445.2 8653.25 10432.2C8653.25 10421.4 8659.27 10412.7 8671.31 10405.8C8693.12 10393.4 8705.82 10382.4 8709.4 10372.6C8712.98 10362.5 8714.77 10315.5 8714.77 10231.5C8714.77 10147.2 8712.16 10097.9 8706.96 10083.5C8702.07 10068.9 8692.96 10056.9 8679.61 10047.4C8666.27 10038 8659.59 10030.3 8659.59 10024.5C8659.59 10018.6 8663.99 10013.1 8672.78 10007.9C8693.28 9995.82 8725.84 9989.8 8770.43 9989.8C8783.78 9989.8 8794.2 9994.36 8801.68 10003.5C8804.29 10006.7 8807.87 10013.9 8812.43 10025C8817.31 10035.7 8820.56 10041.1 8822.19 10041.1C8828.38 10040.7 8837.98 10036.3 8851 10027.9C8895.92 9997.61 8936.61 9982.48 8973.07 9982.48H8974.05H8989.67C9016.04 9982.48 9039.8 9988.99 9060.96 10002C9082.12 10015 9098.4 10034.6 9109.79 10060.6C9121.51 10086.6 9127.37 10143.4 9127.37 10231C9127.37 10318.3 9129.16 10367.1 9132.74 10377.5C9136.64 10387.6 9147.22 10397 9164.48 10405.8C9182.05 10414.6 9190.84 10423.2 9190.84 10431.7C9190.84 10446.3 9144.62 10453.7 9052.17 10453.7H9037.52C9008.23 10453.7 8993.58 10446.7 8993.58 10432.7C8993.58 10429.7 8997.16 10422.7 9004.32 10411.7C9011.48 10400.3 9016.36 10387.7 9018.97 10374.1C9021.57 10360.4 9022.87 10315.5 9022.87 10239.3C9022.87 10162.8 9018.15 10113.7 9008.71 10091.9C8995.69 10061.9 8974.05 10046.9 8943.77 10046.9C8921.64 10046.9 8900.15 10052.1 8879.32 10062.6C8858.81 10072.6 8843.84 10087.1 8834.4 10106C8825.28 10124.6 8820.73 10169.3 8820.73 10240.3C8820.73 10310.9 8822.68 10353.7 8826.59 10368.7C8830.49 10383.4 8835.21 10395.2 8840.75 10404.4L8858.81 10433.6C8858.81 10446.3 8833.26 10452.7 8782.15 10452.7L8752.37 10451.7H8722.09ZM9619.55 10120.7C9605.88 10120.7 9586.84 10106.5 9562.43 10078.2C9538.34 10049.9 9510.34 10035.7 9478.44 10035.7C9446.87 10035.7 9420.34 10051.5 9398.85 10083.1C9377.37 10114.3 9366.62 10158.7 9366.62 10216.4C9366.62 10274 9379.81 10319.1 9406.18 10351.6C9432.87 10383.8 9467.54 10400 9510.18 10400C9533.62 10400 9553.15 10397 9568.77 10391.2C9584.72 10385.3 9599.37 10379.1 9612.72 10372.6C9626.39 10365.8 9635.99 10362.4 9641.53 10362.4C9650.97 10362.4 9655.69 10368.5 9655.69 10380.9C9655.69 10399.8 9636.64 10418.5 9598.56 10437.1C9560.47 10455.6 9523.53 10464.9 9487.72 10464.9C9418.06 10464.9 9362.07 10443.1 9319.75 10399.5C9302.5 10381.6 9288.01 10358.6 9276.29 10330.6C9264.57 10302.3 9258.71 10272 9258.71 10239.8V10215.9C9258.71 10215.2 9258.71 10214.4 9258.71 10213.4C9258.71 10212.8 9258.71 10212.1 9258.71 10211.5C9258.71 10183.2 9265.06 10153.9 9277.76 10123.6C9302.82 10064.3 9343.19 10023.3 9398.85 10000.5C9431.08 9987.52 9463.14 9981.01 9495.04 9981.01H9506.27C9550.22 9981.01 9587.49 9988.66 9618.09 10004C9642.83 10016.3 9655.2 10037 9655.2 10066C9655.2 10085.2 9651.29 10099.2 9643.48 10108C9635.99 10116.4 9628.02 10120.7 9619.55 10120.7ZM9821.7 10467.3C9804.78 10467.3 9789.31 10461.3 9775.32 10449.3C9761.32 10437.2 9754.32 10421.4 9754.32 10401.9V10397.5C9754.32 10378.6 9761.48 10363 9775.8 10350.6C9790.45 10338.3 9805.26 10332.1 9820.24 10332.1H9829.03C9833.91 10333.1 9837.49 10333.5 9839.77 10333.5C9851.16 10333.5 9863.04 10339.7 9875.41 10352.1C9887.78 10364.5 9893.97 10378.8 9893.97 10395.1V10401.9C9893.97 10416.9 9887.95 10431.4 9875.9 10445.4C9864.18 10459 9850.67 10465.9 9835.37 10465.9L9824.14 10467.3H9821.7Z" fill="black"/>
<ellipse cx="9049" cy="5354.5" rx="2329" ry="216.5" fill="black"/>
<ellipse cx="9095" cy="9168.5" rx="2329" ry="216.5" fill="black"/>
<ellipse cx="9072" cy="7261.5" rx="2329" ry="216.5" fill="black"/>
</svg>
