<svg width="255" height="250" viewBox="0 0 255 250" fill="none" xmlns="http://www.w3.org/2000/svg">
<ellipse cx="127.5" cy="125" rx="127.5" ry="125" fill="black"/>
<path d="M15.47 147.34C15.47 145.123 15.755 142.368 16.325 139.075C16.9583 135.718 18.32 131.728 20.41 127.105L32.095 131.19C31.0183 134.167 30.195 136.732 29.625 138.885C29.055 140.975 28.77 143.033 28.77 145.06C28.77 147.91 29.4033 150.348 30.67 152.375C32 154.402 33.9317 155.953 36.465 157.03C39.0617 158.107 42.2283 158.645 45.965 158.645C49.765 158.645 52.9317 158.233 55.465 157.41C57.9983 156.587 59.9933 155.415 61.45 153.895C62.9067 152.438 63.9517 150.728 64.585 148.765C65.2183 146.802 65.535 144.68 65.535 142.4C65.535 140.627 65.3133 138.632 64.87 136.415C64.49 134.198 63.92 131.792 63.16 129.195C62.4 126.535 61.545 123.748 60.595 120.835L73.895 117.415C74.5283 119.822 75.035 121.88 75.415 123.59C75.8583 125.3 76.2383 126.725 76.555 127.865C76.8717 128.942 77.125 129.828 77.315 130.525C77.9483 132.425 78.8033 133.85 79.88 134.8C80.9567 135.75 82.35 136.383 84.06 136.7C85.8333 137.017 87.955 137.175 90.425 137.175C92.8317 137.175 94.5417 137.808 95.555 139.075C96.5683 140.278 97.075 141.798 97.075 143.635C97.075 145.598 96.41 147.245 95.08 148.575C93.75 149.842 91.8817 150.475 89.475 150.475C87.3217 150.475 85.1683 150.19 83.015 149.62C80.925 148.987 79.12 147.973 77.6 146.58C76.08 145.187 75.0983 143.318 74.655 140.975L78.17 144.775C78.0433 149.082 77.1883 152.913 75.605 156.27C74.0217 159.627 71.805 162.477 68.955 164.82C66.1683 167.163 62.78 168.937 58.79 170.14C54.8633 171.343 50.4617 171.945 45.585 171.945C41.3417 171.945 37.3833 171.47 33.71 170.52C30.1 169.633 26.9017 168.177 24.115 166.15C21.3917 164.187 19.27 161.653 17.75 158.55C16.23 155.447 15.47 151.71 15.47 147.34ZM46.44 111.24C44.4767 111.24 42.7983 110.575 41.405 109.245C40.075 107.915 39.41 106.268 39.41 104.305C39.41 102.342 40.075 100.663 41.405 99.27C42.7983 97.8767 44.4767 97.18 46.44 97.18C48.34 97.18 49.955 97.8767 51.285 99.27C52.6783 100.663 53.375 102.342 53.375 104.305C53.375 106.268 52.6783 107.915 51.285 109.245C49.955 110.575 48.34 111.24 46.44 111.24ZM89.4453 150.475L90.3953 137.175C94.1953 137.175 97.1086 136.985 99.1353 136.605C101.162 136.225 102.555 135.528 103.315 134.515C104.139 133.438 104.55 131.918 104.55 129.955C104.55 128.182 104.297 126.06 103.79 123.59C103.347 121.12 102.745 118.555 101.985 115.895C101.289 113.235 100.529 110.797 99.7053 108.58L112.815 104.97C113.639 107.123 114.43 109.625 115.19 112.475C115.95 115.325 116.584 118.27 117.09 121.31C117.597 124.287 117.85 127.168 117.85 129.955C117.85 134.262 117.154 137.777 115.76 140.5C114.367 143.16 112.404 145.218 109.87 146.675C107.4 148.132 104.424 149.145 100.94 149.715C97.457 150.222 93.6253 150.475 89.4453 150.475ZM112.91 172.515C111.074 172.515 109.49 171.85 108.16 170.52C106.894 169.253 106.26 167.733 106.26 165.96C106.26 164.123 106.894 162.54 108.16 161.21C109.49 159.88 111.074 159.215 112.91 159.215C114.684 159.215 116.204 159.88 117.47 161.21C118.737 162.54 119.37 164.123 119.37 165.96C119.37 167.733 118.737 169.253 117.47 170.52C116.204 171.85 114.684 172.515 112.91 172.515ZM96.4753 172.515C94.6386 172.515 93.0553 171.85 91.7253 170.52C90.4586 169.253 89.8253 167.733 89.8253 165.96C89.8253 164.123 90.4586 162.54 91.7253 161.21C93.0553 159.88 94.6386 159.215 96.4753 159.215C98.2486 159.215 99.7686 159.88 101.035 161.21C102.302 162.54 102.935 164.123 102.935 165.96C102.935 167.733 102.302 169.253 101.035 170.52C99.7686 171.85 98.2486 172.515 96.4753 172.515ZM126.911 146.2L131.566 134.135C133.909 135.148 136.158 135.908 138.311 136.415C140.464 136.922 142.618 137.175 144.771 137.175C146.988 137.175 148.824 136.985 150.281 136.605C151.801 136.162 152.941 135.528 153.701 134.705C154.461 133.882 154.841 132.9 154.841 131.76C154.841 130.683 154.493 129.195 153.796 127.295C153.163 125.395 151.991 122.925 150.281 119.885C148.571 116.782 146.069 112.95 142.776 108.39L154.081 100.885C157.121 105.192 159.749 109.403 161.966 113.52C164.183 117.573 165.893 121.373 167.096 124.92C168.363 128.403 168.996 131.475 168.996 134.135C168.996 137.428 168.109 140.31 166.336 142.78C164.626 145.187 162.061 147.087 158.641 148.48C155.284 149.873 151.136 150.57 146.196 150.57C144.359 150.57 142.301 150.412 140.021 150.095C137.741 149.778 135.429 149.303 133.086 148.67C130.806 148.037 128.748 147.213 126.911 146.2ZM171.307 171.945L166.462 160.165C169.819 159.025 172.89 157.695 175.677 156.175C178.527 154.655 180.997 152.977 183.087 151.14C185.177 149.303 186.792 147.308 187.932 145.155C189.072 142.938 189.642 140.563 189.642 138.03C189.642 135.37 189.04 132.457 187.837 129.29C186.634 126.123 185.177 122.893 183.467 119.6L195.912 113.615C197.052 115.578 198.034 117.7 198.857 119.98C199.744 122.197 200.472 124.192 201.042 125.965C201.612 127.738 201.992 128.942 202.182 129.575C203.069 132.615 204.272 134.642 205.792 135.655C207.375 136.668 209.909 137.175 213.392 137.175C215.799 137.175 217.509 137.808 218.522 139.075C219.599 140.278 220.137 141.798 220.137 143.635C220.137 145.598 219.472 147.245 218.142 148.575C216.812 149.842 214.912 150.475 212.442 150.475C209.845 150.475 207.565 150.095 205.602 149.335C203.639 148.575 202.055 147.467 200.852 146.01C199.712 144.553 198.984 142.843 198.667 140.88L202.182 142.875C201.802 146.232 200.694 149.398 198.857 152.375C197.084 155.415 194.772 158.202 191.922 160.735C189.072 163.268 185.874 165.485 182.327 167.385C178.78 169.285 175.107 170.805 171.307 171.945ZM212.556 150.475L213.506 137.175C216.292 137.175 218.477 136.985 220.061 136.605C221.707 136.225 222.879 135.528 223.576 134.515C224.272 133.438 224.621 131.918 224.621 129.955C224.621 128.182 224.367 126.06 223.861 123.59C223.417 121.12 222.816 118.555 222.056 115.895C221.296 113.235 220.536 110.797 219.776 108.58L232.886 104.97C233.646 107.123 234.406 109.625 235.166 112.475C235.926 115.325 236.559 118.27 237.066 121.31C237.636 124.287 237.921 127.168 237.921 129.955C237.921 133.438 237.477 136.383 236.591 138.79C235.704 141.133 234.469 143.097 232.886 144.68C231.366 146.2 229.529 147.403 227.376 148.29C225.286 149.113 222.974 149.683 220.441 150C217.907 150.317 215.279 150.475 212.556 150.475ZM226.236 97.085C224.272 97.085 222.594 96.42 221.201 95.09C219.871 93.76 219.206 92.1133 219.206 90.15C219.206 88.1867 219.871 86.5083 221.201 85.115C222.594 83.7217 224.272 83.025 226.236 83.025C228.136 83.025 229.751 83.7217 231.081 85.115C232.474 86.5083 233.171 88.1867 233.171 90.15C233.171 92.1133 232.474 93.76 231.081 95.09C229.751 96.42 228.136 97.085 226.236 97.085Z" fill="#9E9E9E"/>
</svg>
